%TF.GenerationSoftware,KiCad,Pcbnew,7.0.2*%
%TF.CreationDate,2024-03-01T12:34:08+01:00*%
%TF.ProjectId,piec_oszust,70696563-5f6f-4737-9a75-73742e6b6963,rev?*%
%TF.SameCoordinates,Original*%
%TF.FileFunction,Drillmap*%
%TF.FilePolarity,Positive*%
%FSLAX45Y45*%
G04 Gerber Fmt 4.5, Leading zero omitted, Abs format (unit mm)*
G04 Created by KiCad (PCBNEW 7.0.2) date 2024-03-01 12:34:08*
%MOMM*%
%LPD*%
G01*
G04 APERTURE LIST*
%ADD10C,0.100000*%
%ADD11C,0.200000*%
%ADD12C,0.070000*%
%ADD13C,0.075000*%
%ADD14C,0.080000*%
%ADD15C,0.110000*%
G04 APERTURE END LIST*
D10*
X3111500Y-4889500D02*
X3111500Y-9715500D01*
X9779000Y-4572000D02*
X3429000Y-4572000D01*
X10096500Y-9715500D02*
X10096500Y-4889500D01*
X3429000Y-10033000D02*
X9779000Y-10033000D01*
X3111500Y-9715500D02*
G75*
G03*
X3429000Y-10033000I317500J0D01*
G01*
X9779000Y-10033000D02*
G75*
G03*
X10096500Y-9715500I0J317500D01*
G01*
X10096500Y-4889500D02*
G75*
G03*
X9779000Y-4572000I-317500J0D01*
G01*
X3429000Y-4572000D02*
G75*
G03*
X3111500Y-4889500I0J-317500D01*
G01*
D11*
D12*
X7204000Y-7077000D02*
X7274000Y-7147000D01*
X7274000Y-7077000D02*
X7204000Y-7147000D01*
X7204000Y-7331000D02*
X7274000Y-7401000D01*
X7274000Y-7331000D02*
X7204000Y-7401000D01*
X7966000Y-7077000D02*
X8036000Y-7147000D01*
X8036000Y-7077000D02*
X7966000Y-7147000D01*
X7966000Y-7331000D02*
X8036000Y-7401000D01*
X8036000Y-7331000D02*
X7966000Y-7401000D01*
X7966000Y-7712000D02*
X8036000Y-7782000D01*
X8036000Y-7712000D02*
X7966000Y-7782000D01*
X7966000Y-7966000D02*
X8036000Y-8036000D01*
X8036000Y-7966000D02*
X7966000Y-8036000D01*
X7966000Y-8220000D02*
X8036000Y-8290000D01*
X8036000Y-8220000D02*
X7966000Y-8290000D01*
X8347000Y-5045000D02*
X8417000Y-5115000D01*
X8417000Y-5045000D02*
X8347000Y-5115000D01*
X8347000Y-5807000D02*
X8417000Y-5877000D01*
X8417000Y-5807000D02*
X8347000Y-5877000D01*
X8601000Y-5553000D02*
X8671000Y-5623000D01*
X8671000Y-5553000D02*
X8601000Y-5623000D01*
X8601000Y-5807000D02*
X8671000Y-5877000D01*
X8671000Y-5807000D02*
X8601000Y-5877000D01*
X8728000Y-7712000D02*
X8798000Y-7782000D01*
X8798000Y-7712000D02*
X8728000Y-7782000D01*
X8728000Y-7966000D02*
X8798000Y-8036000D01*
X8798000Y-7966000D02*
X8728000Y-8036000D01*
X8728000Y-8220000D02*
X8798000Y-8290000D01*
X8798000Y-8220000D02*
X8728000Y-8290000D01*
X9236000Y-6061000D02*
X9306000Y-6131000D01*
X9306000Y-6061000D02*
X9236000Y-6131000D01*
X9236000Y-6823000D02*
X9306000Y-6893000D01*
X9306000Y-6823000D02*
X9236000Y-6893000D01*
X9363000Y-5553000D02*
X9433000Y-5623000D01*
X9433000Y-5553000D02*
X9363000Y-5623000D01*
X9363000Y-5807000D02*
X9433000Y-5877000D01*
X9433000Y-5807000D02*
X9363000Y-5877000D01*
D13*
X8546500Y-7239000D02*
G75*
G03*
X8546500Y-7239000I-37500J0D01*
G01*
X8673500Y-7239000D02*
G75*
G03*
X8673500Y-7239000I-37500J0D01*
G01*
X8800500Y-7239000D02*
G75*
G03*
X8800500Y-7239000I-37500J0D01*
G01*
X9344500Y-7874000D02*
G75*
G03*
X9344500Y-7874000I-37500J0D01*
G01*
X9344500Y-8001000D02*
G75*
G03*
X9344500Y-8001000I-37500J0D01*
G01*
X9344500Y-8128000D02*
G75*
G03*
X9344500Y-8128000I-37500J0D01*
G01*
D14*
X3823735Y-9358000D02*
X3823735Y-9438000D01*
X3783735Y-9398000D02*
X3863735Y-9398000D01*
X3931265Y-5675000D02*
X3931265Y-5755000D01*
X3891265Y-5715000D02*
X3971265Y-5715000D01*
X4323735Y-9358000D02*
X4323735Y-9438000D01*
X4283735Y-9398000D02*
X4363735Y-9398000D01*
X4431265Y-5675000D02*
X4431265Y-5755000D01*
X4391265Y-5715000D02*
X4471265Y-5715000D01*
X7366000Y-6056000D02*
X7366000Y-6136000D01*
X7326000Y-6096000D02*
X7406000Y-6096000D01*
X7366000Y-6818000D02*
X7366000Y-6898000D01*
X7326000Y-6858000D02*
X7406000Y-6858000D01*
X7620000Y-6056000D02*
X7620000Y-6136000D01*
X7580000Y-6096000D02*
X7660000Y-6096000D01*
X7620000Y-6818000D02*
X7620000Y-6898000D01*
X7580000Y-6858000D02*
X7660000Y-6858000D01*
X7874000Y-6056000D02*
X7874000Y-6136000D01*
X7834000Y-6096000D02*
X7914000Y-6096000D01*
X7874000Y-6818000D02*
X7874000Y-6898000D01*
X7834000Y-6858000D02*
X7914000Y-6858000D01*
X8128000Y-6056000D02*
X8128000Y-6136000D01*
X8088000Y-6096000D02*
X8168000Y-6096000D01*
X8128000Y-6818000D02*
X8128000Y-6898000D01*
X8088000Y-6858000D02*
X8168000Y-6858000D01*
X8382000Y-6056000D02*
X8382000Y-6136000D01*
X8342000Y-6096000D02*
X8422000Y-6096000D01*
X8382000Y-6818000D02*
X8382000Y-6898000D01*
X8342000Y-6858000D02*
X8422000Y-6858000D01*
X8636000Y-6056000D02*
X8636000Y-6136000D01*
X8596000Y-6096000D02*
X8676000Y-6096000D01*
X8636000Y-6818000D02*
X8636000Y-6898000D01*
X8596000Y-6858000D02*
X8676000Y-6858000D01*
X8890000Y-6056000D02*
X8890000Y-6136000D01*
X8850000Y-6096000D02*
X8930000Y-6096000D01*
X8890000Y-6818000D02*
X8890000Y-6898000D01*
X8850000Y-6858000D02*
X8930000Y-6858000D01*
D10*
X3907356Y-7147356D02*
X3907356Y-7076644D01*
X3836644Y-7076644D01*
X3836644Y-7147356D01*
X3907356Y-7147356D01*
D11*
X3947000Y-7062000D02*
X3797000Y-7062000D01*
X3797000Y-7062000D02*
G75*
G03*
X3797000Y-7162000I0J-50000D01*
G01*
X3797000Y-7162000D02*
X3947000Y-7162000D01*
X3947000Y-7162000D02*
G75*
G03*
X3947000Y-7062000I0J50000D01*
G01*
D10*
X3907356Y-8047356D02*
X3907356Y-7976644D01*
X3836644Y-7976644D01*
X3836644Y-8047356D01*
X3907356Y-8047356D01*
D11*
X3947000Y-7962000D02*
X3797000Y-7962000D01*
X3797000Y-7962000D02*
G75*
G03*
X3797000Y-8062000I0J-50000D01*
G01*
X3797000Y-8062000D02*
X3947000Y-8062000D01*
X3947000Y-8062000D02*
G75*
G03*
X3947000Y-7962000I0J50000D01*
G01*
D10*
X4007356Y-7597356D02*
X4007356Y-7526644D01*
X3936644Y-7526644D01*
X3936644Y-7597356D01*
X4007356Y-7597356D01*
D11*
X3922000Y-7497000D02*
X3922000Y-7627000D01*
X3922000Y-7627000D02*
G75*
G03*
X4022000Y-7627000I50000J0D01*
G01*
X4022000Y-7627000D02*
X4022000Y-7497000D01*
X4022000Y-7497000D02*
G75*
G03*
X3922000Y-7497000I-50000J0D01*
G01*
D10*
X4607356Y-7597356D02*
X4607356Y-7526644D01*
X4536644Y-7526644D01*
X4536644Y-7597356D01*
X4607356Y-7597356D01*
D11*
X4522000Y-7462000D02*
X4522000Y-7662000D01*
X4522000Y-7662000D02*
G75*
G03*
X4622000Y-7662000I50000J0D01*
G01*
X4622000Y-7662000D02*
X4622000Y-7462000D01*
X4622000Y-7462000D02*
G75*
G03*
X4522000Y-7462000I-50000J0D01*
G01*
D10*
X5242356Y-5623356D02*
X5242356Y-5552644D01*
X5171644Y-5552644D01*
X5171644Y-5623356D01*
X5242356Y-5623356D01*
X5242356Y-5877356D02*
X5242356Y-5806644D01*
X5171644Y-5806644D01*
X5171644Y-5877356D01*
X5242356Y-5877356D01*
X5242356Y-6131356D02*
X5242356Y-6060644D01*
X5171644Y-6060644D01*
X5171644Y-6131356D01*
X5242356Y-6131356D01*
X5242356Y-6385356D02*
X5242356Y-6314644D01*
X5171644Y-6314644D01*
X5171644Y-6385356D01*
X5242356Y-6385356D01*
X5242356Y-6639356D02*
X5242356Y-6568644D01*
X5171644Y-6568644D01*
X5171644Y-6639356D01*
X5242356Y-6639356D01*
X5242356Y-6893356D02*
X5242356Y-6822644D01*
X5171644Y-6822644D01*
X5171644Y-6893356D01*
X5242356Y-6893356D01*
X5242356Y-7147356D02*
X5242356Y-7076644D01*
X5171644Y-7076644D01*
X5171644Y-7147356D01*
X5242356Y-7147356D01*
X5242356Y-7401356D02*
X5242356Y-7330644D01*
X5171644Y-7330644D01*
X5171644Y-7401356D01*
X5242356Y-7401356D01*
X5242356Y-7655356D02*
X5242356Y-7584644D01*
X5171644Y-7584644D01*
X5171644Y-7655356D01*
X5242356Y-7655356D01*
X5242356Y-7909356D02*
X5242356Y-7838644D01*
X5171644Y-7838644D01*
X5171644Y-7909356D01*
X5242356Y-7909356D01*
X5242356Y-8163356D02*
X5242356Y-8092644D01*
X5171644Y-8092644D01*
X5171644Y-8163356D01*
X5242356Y-8163356D01*
X5242356Y-8417356D02*
X5242356Y-8346644D01*
X5171644Y-8346644D01*
X5171644Y-8417356D01*
X5242356Y-8417356D01*
X5242356Y-8671356D02*
X5242356Y-8600644D01*
X5171644Y-8600644D01*
X5171644Y-8671356D01*
X5242356Y-8671356D01*
X5242356Y-8925356D02*
X5242356Y-8854644D01*
X5171644Y-8854644D01*
X5171644Y-8925356D01*
X5242356Y-8925356D01*
X5242356Y-9179356D02*
X5242356Y-9108644D01*
X5171644Y-9108644D01*
X5171644Y-9179356D01*
X5242356Y-9179356D01*
X6766356Y-5623356D02*
X6766356Y-5552644D01*
X6695644Y-5552644D01*
X6695644Y-5623356D01*
X6766356Y-5623356D01*
X6766356Y-5877356D02*
X6766356Y-5806644D01*
X6695644Y-5806644D01*
X6695644Y-5877356D01*
X6766356Y-5877356D01*
X6766356Y-6131356D02*
X6766356Y-6060644D01*
X6695644Y-6060644D01*
X6695644Y-6131356D01*
X6766356Y-6131356D01*
X6766356Y-6385356D02*
X6766356Y-6314644D01*
X6695644Y-6314644D01*
X6695644Y-6385356D01*
X6766356Y-6385356D01*
X6766356Y-6639356D02*
X6766356Y-6568644D01*
X6695644Y-6568644D01*
X6695644Y-6639356D01*
X6766356Y-6639356D01*
X6766356Y-6893356D02*
X6766356Y-6822644D01*
X6695644Y-6822644D01*
X6695644Y-6893356D01*
X6766356Y-6893356D01*
X6766356Y-7147356D02*
X6766356Y-7076644D01*
X6695644Y-7076644D01*
X6695644Y-7147356D01*
X6766356Y-7147356D01*
X6766356Y-7401356D02*
X6766356Y-7330644D01*
X6695644Y-7330644D01*
X6695644Y-7401356D01*
X6766356Y-7401356D01*
X6766356Y-7655356D02*
X6766356Y-7584644D01*
X6695644Y-7584644D01*
X6695644Y-7655356D01*
X6766356Y-7655356D01*
X6766356Y-7909356D02*
X6766356Y-7838644D01*
X6695644Y-7838644D01*
X6695644Y-7909356D01*
X6766356Y-7909356D01*
X6766356Y-8163356D02*
X6766356Y-8092644D01*
X6695644Y-8092644D01*
X6695644Y-8163356D01*
X6766356Y-8163356D01*
X6766356Y-8417356D02*
X6766356Y-8346644D01*
X6695644Y-8346644D01*
X6695644Y-8417356D01*
X6766356Y-8417356D01*
X6766356Y-8671356D02*
X6766356Y-8600644D01*
X6695644Y-8600644D01*
X6695644Y-8671356D01*
X6766356Y-8671356D01*
X6766356Y-8925356D02*
X6766356Y-8854644D01*
X6695644Y-8854644D01*
X6695644Y-8925356D01*
X6766356Y-8925356D01*
X6766356Y-9179356D02*
X6766356Y-9108644D01*
X6695644Y-9108644D01*
X6695644Y-9179356D01*
X6766356Y-9179356D01*
X7147356Y-5115356D02*
X7147356Y-5044644D01*
X7076644Y-5044644D01*
X7076644Y-5115356D01*
X7147356Y-5115356D01*
X7147356Y-5369356D02*
X7147356Y-5298644D01*
X7076644Y-5298644D01*
X7076644Y-5369356D01*
X7147356Y-5369356D01*
X8798356Y-4988356D02*
X8798356Y-4917644D01*
X8727644Y-4917644D01*
X8727644Y-4988356D01*
X8798356Y-4988356D01*
X8798356Y-5242356D02*
X8798356Y-5171644D01*
X8727644Y-5171644D01*
X8727644Y-5242356D01*
X8798356Y-5242356D01*
X9306356Y-7464856D02*
X9306356Y-7394144D01*
X9235644Y-7394144D01*
X9235644Y-7464856D01*
X9306356Y-7464856D01*
X9560356Y-7464856D02*
X9560356Y-7394144D01*
X9489644Y-7394144D01*
X9489644Y-7464856D01*
X9560356Y-7464856D01*
D15*
X3937000Y-6659000D02*
X3992000Y-6604000D01*
X3937000Y-6549000D01*
X3882000Y-6604000D01*
X3937000Y-6659000D01*
X3937000Y-8564000D02*
X3992000Y-8509000D01*
X3937000Y-8454000D01*
X3882000Y-8509000D01*
X3937000Y-8564000D01*
X4191000Y-6659000D02*
X4246000Y-6604000D01*
X4191000Y-6549000D01*
X4136000Y-6604000D01*
X4191000Y-6659000D01*
X4191000Y-8564000D02*
X4246000Y-8509000D01*
X4191000Y-8454000D01*
X4136000Y-8509000D01*
X4191000Y-8564000D01*
X4445000Y-6659000D02*
X4500000Y-6604000D01*
X4445000Y-6549000D01*
X4390000Y-6604000D01*
X4445000Y-6659000D01*
X4445000Y-8564000D02*
X4500000Y-8509000D01*
X4445000Y-8454000D01*
X4390000Y-8509000D01*
X4445000Y-8564000D01*
D11*
X3354119Y-10350524D02*
X3354119Y-10150524D01*
X3354119Y-10150524D02*
X3401738Y-10150524D01*
X3401738Y-10150524D02*
X3430309Y-10160048D01*
X3430309Y-10160048D02*
X3449357Y-10179095D01*
X3449357Y-10179095D02*
X3458881Y-10198143D01*
X3458881Y-10198143D02*
X3468405Y-10236238D01*
X3468405Y-10236238D02*
X3468405Y-10264810D01*
X3468405Y-10264810D02*
X3458881Y-10302905D01*
X3458881Y-10302905D02*
X3449357Y-10321952D01*
X3449357Y-10321952D02*
X3430309Y-10341000D01*
X3430309Y-10341000D02*
X3401738Y-10350524D01*
X3401738Y-10350524D02*
X3354119Y-10350524D01*
X3554119Y-10350524D02*
X3554119Y-10217190D01*
X3554119Y-10255286D02*
X3563643Y-10236238D01*
X3563643Y-10236238D02*
X3573167Y-10226714D01*
X3573167Y-10226714D02*
X3592214Y-10217190D01*
X3592214Y-10217190D02*
X3611262Y-10217190D01*
X3677928Y-10350524D02*
X3677928Y-10217190D01*
X3677928Y-10150524D02*
X3668405Y-10160048D01*
X3668405Y-10160048D02*
X3677928Y-10169571D01*
X3677928Y-10169571D02*
X3687452Y-10160048D01*
X3687452Y-10160048D02*
X3677928Y-10150524D01*
X3677928Y-10150524D02*
X3677928Y-10169571D01*
X3801738Y-10350524D02*
X3782690Y-10341000D01*
X3782690Y-10341000D02*
X3773167Y-10321952D01*
X3773167Y-10321952D02*
X3773167Y-10150524D01*
X3906500Y-10350524D02*
X3887452Y-10341000D01*
X3887452Y-10341000D02*
X3877928Y-10321952D01*
X3877928Y-10321952D02*
X3877928Y-10150524D01*
X4135071Y-10350524D02*
X4135071Y-10150524D01*
X4135071Y-10150524D02*
X4201738Y-10293381D01*
X4201738Y-10293381D02*
X4268405Y-10150524D01*
X4268405Y-10150524D02*
X4268405Y-10350524D01*
X4449357Y-10350524D02*
X4449357Y-10245762D01*
X4449357Y-10245762D02*
X4439833Y-10226714D01*
X4439833Y-10226714D02*
X4420786Y-10217190D01*
X4420786Y-10217190D02*
X4382690Y-10217190D01*
X4382690Y-10217190D02*
X4363643Y-10226714D01*
X4449357Y-10341000D02*
X4430310Y-10350524D01*
X4430310Y-10350524D02*
X4382690Y-10350524D01*
X4382690Y-10350524D02*
X4363643Y-10341000D01*
X4363643Y-10341000D02*
X4354119Y-10321952D01*
X4354119Y-10321952D02*
X4354119Y-10302905D01*
X4354119Y-10302905D02*
X4363643Y-10283857D01*
X4363643Y-10283857D02*
X4382690Y-10274333D01*
X4382690Y-10274333D02*
X4430310Y-10274333D01*
X4430310Y-10274333D02*
X4449357Y-10264810D01*
X4544595Y-10217190D02*
X4544595Y-10417190D01*
X4544595Y-10226714D02*
X4563643Y-10217190D01*
X4563643Y-10217190D02*
X4601738Y-10217190D01*
X4601738Y-10217190D02*
X4620786Y-10226714D01*
X4620786Y-10226714D02*
X4630310Y-10236238D01*
X4630310Y-10236238D02*
X4639833Y-10255286D01*
X4639833Y-10255286D02*
X4639833Y-10312429D01*
X4639833Y-10312429D02*
X4630310Y-10331476D01*
X4630310Y-10331476D02*
X4620786Y-10341000D01*
X4620786Y-10341000D02*
X4601738Y-10350524D01*
X4601738Y-10350524D02*
X4563643Y-10350524D01*
X4563643Y-10350524D02*
X4544595Y-10341000D01*
X4725548Y-10331476D02*
X4735071Y-10341000D01*
X4735071Y-10341000D02*
X4725548Y-10350524D01*
X4725548Y-10350524D02*
X4716024Y-10341000D01*
X4716024Y-10341000D02*
X4725548Y-10331476D01*
X4725548Y-10331476D02*
X4725548Y-10350524D01*
X4725548Y-10226714D02*
X4735071Y-10236238D01*
X4735071Y-10236238D02*
X4725548Y-10245762D01*
X4725548Y-10245762D02*
X4716024Y-10236238D01*
X4716024Y-10236238D02*
X4725548Y-10226714D01*
X4725548Y-10226714D02*
X4725548Y-10245762D01*
D12*
X3036500Y-10643000D02*
X3106500Y-10713000D01*
X3106500Y-10643000D02*
X3036500Y-10713000D01*
D11*
X3392214Y-10570524D02*
X3411262Y-10570524D01*
X3411262Y-10570524D02*
X3430309Y-10580048D01*
X3430309Y-10580048D02*
X3439833Y-10589571D01*
X3439833Y-10589571D02*
X3449357Y-10608619D01*
X3449357Y-10608619D02*
X3458881Y-10646714D01*
X3458881Y-10646714D02*
X3458881Y-10694333D01*
X3458881Y-10694333D02*
X3449357Y-10732429D01*
X3449357Y-10732429D02*
X3439833Y-10751476D01*
X3439833Y-10751476D02*
X3430309Y-10761000D01*
X3430309Y-10761000D02*
X3411262Y-10770524D01*
X3411262Y-10770524D02*
X3392214Y-10770524D01*
X3392214Y-10770524D02*
X3373167Y-10761000D01*
X3373167Y-10761000D02*
X3363643Y-10751476D01*
X3363643Y-10751476D02*
X3354119Y-10732429D01*
X3354119Y-10732429D02*
X3344595Y-10694333D01*
X3344595Y-10694333D02*
X3344595Y-10646714D01*
X3344595Y-10646714D02*
X3354119Y-10608619D01*
X3354119Y-10608619D02*
X3363643Y-10589571D01*
X3363643Y-10589571D02*
X3373167Y-10580048D01*
X3373167Y-10580048D02*
X3392214Y-10570524D01*
X3544595Y-10751476D02*
X3554119Y-10761000D01*
X3554119Y-10761000D02*
X3544595Y-10770524D01*
X3544595Y-10770524D02*
X3535071Y-10761000D01*
X3535071Y-10761000D02*
X3544595Y-10751476D01*
X3544595Y-10751476D02*
X3544595Y-10770524D01*
X3620786Y-10570524D02*
X3754119Y-10570524D01*
X3754119Y-10570524D02*
X3668405Y-10770524D01*
X3868405Y-10570524D02*
X3887452Y-10570524D01*
X3887452Y-10570524D02*
X3906500Y-10580048D01*
X3906500Y-10580048D02*
X3916024Y-10589571D01*
X3916024Y-10589571D02*
X3925548Y-10608619D01*
X3925548Y-10608619D02*
X3935071Y-10646714D01*
X3935071Y-10646714D02*
X3935071Y-10694333D01*
X3935071Y-10694333D02*
X3925548Y-10732429D01*
X3925548Y-10732429D02*
X3916024Y-10751476D01*
X3916024Y-10751476D02*
X3906500Y-10761000D01*
X3906500Y-10761000D02*
X3887452Y-10770524D01*
X3887452Y-10770524D02*
X3868405Y-10770524D01*
X3868405Y-10770524D02*
X3849357Y-10761000D01*
X3849357Y-10761000D02*
X3839833Y-10751476D01*
X3839833Y-10751476D02*
X3830309Y-10732429D01*
X3830309Y-10732429D02*
X3820786Y-10694333D01*
X3820786Y-10694333D02*
X3820786Y-10646714D01*
X3820786Y-10646714D02*
X3830309Y-10608619D01*
X3830309Y-10608619D02*
X3839833Y-10589571D01*
X3839833Y-10589571D02*
X3849357Y-10580048D01*
X3849357Y-10580048D02*
X3868405Y-10570524D01*
X4058881Y-10570524D02*
X4077929Y-10570524D01*
X4077929Y-10570524D02*
X4096976Y-10580048D01*
X4096976Y-10580048D02*
X4106500Y-10589571D01*
X4106500Y-10589571D02*
X4116024Y-10608619D01*
X4116024Y-10608619D02*
X4125548Y-10646714D01*
X4125548Y-10646714D02*
X4125548Y-10694333D01*
X4125548Y-10694333D02*
X4116024Y-10732429D01*
X4116024Y-10732429D02*
X4106500Y-10751476D01*
X4106500Y-10751476D02*
X4096976Y-10761000D01*
X4096976Y-10761000D02*
X4077929Y-10770524D01*
X4077929Y-10770524D02*
X4058881Y-10770524D01*
X4058881Y-10770524D02*
X4039833Y-10761000D01*
X4039833Y-10761000D02*
X4030309Y-10751476D01*
X4030309Y-10751476D02*
X4020786Y-10732429D01*
X4020786Y-10732429D02*
X4011262Y-10694333D01*
X4011262Y-10694333D02*
X4011262Y-10646714D01*
X4011262Y-10646714D02*
X4020786Y-10608619D01*
X4020786Y-10608619D02*
X4030309Y-10589571D01*
X4030309Y-10589571D02*
X4039833Y-10580048D01*
X4039833Y-10580048D02*
X4058881Y-10570524D01*
X4211262Y-10770524D02*
X4211262Y-10637190D01*
X4211262Y-10656238D02*
X4220786Y-10646714D01*
X4220786Y-10646714D02*
X4239833Y-10637190D01*
X4239833Y-10637190D02*
X4268405Y-10637190D01*
X4268405Y-10637190D02*
X4287452Y-10646714D01*
X4287452Y-10646714D02*
X4296976Y-10665762D01*
X4296976Y-10665762D02*
X4296976Y-10770524D01*
X4296976Y-10665762D02*
X4306500Y-10646714D01*
X4306500Y-10646714D02*
X4325548Y-10637190D01*
X4325548Y-10637190D02*
X4354119Y-10637190D01*
X4354119Y-10637190D02*
X4373167Y-10646714D01*
X4373167Y-10646714D02*
X4382691Y-10665762D01*
X4382691Y-10665762D02*
X4382691Y-10770524D01*
X4477929Y-10770524D02*
X4477929Y-10637190D01*
X4477929Y-10656238D02*
X4487452Y-10646714D01*
X4487452Y-10646714D02*
X4506500Y-10637190D01*
X4506500Y-10637190D02*
X4535072Y-10637190D01*
X4535072Y-10637190D02*
X4554119Y-10646714D01*
X4554119Y-10646714D02*
X4563643Y-10665762D01*
X4563643Y-10665762D02*
X4563643Y-10770524D01*
X4563643Y-10665762D02*
X4573167Y-10646714D01*
X4573167Y-10646714D02*
X4592214Y-10637190D01*
X4592214Y-10637190D02*
X4620786Y-10637190D01*
X4620786Y-10637190D02*
X4639833Y-10646714D01*
X4639833Y-10646714D02*
X4649357Y-10665762D01*
X4649357Y-10665762D02*
X4649357Y-10770524D01*
X5039833Y-10561000D02*
X4868405Y-10818143D01*
X5296976Y-10570524D02*
X5316024Y-10570524D01*
X5316024Y-10570524D02*
X5335072Y-10580048D01*
X5335072Y-10580048D02*
X5344595Y-10589571D01*
X5344595Y-10589571D02*
X5354119Y-10608619D01*
X5354119Y-10608619D02*
X5363643Y-10646714D01*
X5363643Y-10646714D02*
X5363643Y-10694333D01*
X5363643Y-10694333D02*
X5354119Y-10732429D01*
X5354119Y-10732429D02*
X5344595Y-10751476D01*
X5344595Y-10751476D02*
X5335072Y-10761000D01*
X5335072Y-10761000D02*
X5316024Y-10770524D01*
X5316024Y-10770524D02*
X5296976Y-10770524D01*
X5296976Y-10770524D02*
X5277929Y-10761000D01*
X5277929Y-10761000D02*
X5268405Y-10751476D01*
X5268405Y-10751476D02*
X5258881Y-10732429D01*
X5258881Y-10732429D02*
X5249357Y-10694333D01*
X5249357Y-10694333D02*
X5249357Y-10646714D01*
X5249357Y-10646714D02*
X5258881Y-10608619D01*
X5258881Y-10608619D02*
X5268405Y-10589571D01*
X5268405Y-10589571D02*
X5277929Y-10580048D01*
X5277929Y-10580048D02*
X5296976Y-10570524D01*
X5449357Y-10751476D02*
X5458881Y-10761000D01*
X5458881Y-10761000D02*
X5449357Y-10770524D01*
X5449357Y-10770524D02*
X5439834Y-10761000D01*
X5439834Y-10761000D02*
X5449357Y-10751476D01*
X5449357Y-10751476D02*
X5449357Y-10770524D01*
X5582691Y-10570524D02*
X5601738Y-10570524D01*
X5601738Y-10570524D02*
X5620786Y-10580048D01*
X5620786Y-10580048D02*
X5630310Y-10589571D01*
X5630310Y-10589571D02*
X5639833Y-10608619D01*
X5639833Y-10608619D02*
X5649357Y-10646714D01*
X5649357Y-10646714D02*
X5649357Y-10694333D01*
X5649357Y-10694333D02*
X5639833Y-10732429D01*
X5639833Y-10732429D02*
X5630310Y-10751476D01*
X5630310Y-10751476D02*
X5620786Y-10761000D01*
X5620786Y-10761000D02*
X5601738Y-10770524D01*
X5601738Y-10770524D02*
X5582691Y-10770524D01*
X5582691Y-10770524D02*
X5563643Y-10761000D01*
X5563643Y-10761000D02*
X5554119Y-10751476D01*
X5554119Y-10751476D02*
X5544595Y-10732429D01*
X5544595Y-10732429D02*
X5535072Y-10694333D01*
X5535072Y-10694333D02*
X5535072Y-10646714D01*
X5535072Y-10646714D02*
X5544595Y-10608619D01*
X5544595Y-10608619D02*
X5554119Y-10589571D01*
X5554119Y-10589571D02*
X5563643Y-10580048D01*
X5563643Y-10580048D02*
X5582691Y-10570524D01*
X5725548Y-10589571D02*
X5735072Y-10580048D01*
X5735072Y-10580048D02*
X5754119Y-10570524D01*
X5754119Y-10570524D02*
X5801738Y-10570524D01*
X5801738Y-10570524D02*
X5820786Y-10580048D01*
X5820786Y-10580048D02*
X5830310Y-10589571D01*
X5830310Y-10589571D02*
X5839833Y-10608619D01*
X5839833Y-10608619D02*
X5839833Y-10627667D01*
X5839833Y-10627667D02*
X5830310Y-10656238D01*
X5830310Y-10656238D02*
X5716024Y-10770524D01*
X5716024Y-10770524D02*
X5839833Y-10770524D01*
X5906500Y-10570524D02*
X6039833Y-10570524D01*
X6039833Y-10570524D02*
X5954119Y-10770524D01*
X6201738Y-10570524D02*
X6163643Y-10570524D01*
X6163643Y-10570524D02*
X6144595Y-10580048D01*
X6144595Y-10580048D02*
X6135072Y-10589571D01*
X6135072Y-10589571D02*
X6116024Y-10618143D01*
X6116024Y-10618143D02*
X6106500Y-10656238D01*
X6106500Y-10656238D02*
X6106500Y-10732429D01*
X6106500Y-10732429D02*
X6116024Y-10751476D01*
X6116024Y-10751476D02*
X6125548Y-10761000D01*
X6125548Y-10761000D02*
X6144595Y-10770524D01*
X6144595Y-10770524D02*
X6182691Y-10770524D01*
X6182691Y-10770524D02*
X6201738Y-10761000D01*
X6201738Y-10761000D02*
X6211262Y-10751476D01*
X6211262Y-10751476D02*
X6220786Y-10732429D01*
X6220786Y-10732429D02*
X6220786Y-10684810D01*
X6220786Y-10684810D02*
X6211262Y-10665762D01*
X6211262Y-10665762D02*
X6201738Y-10656238D01*
X6201738Y-10656238D02*
X6182691Y-10646714D01*
X6182691Y-10646714D02*
X6144595Y-10646714D01*
X6144595Y-10646714D02*
X6125548Y-10656238D01*
X6125548Y-10656238D02*
X6116024Y-10665762D01*
X6116024Y-10665762D02*
X6106500Y-10684810D01*
X6296976Y-10570524D02*
X6296976Y-10608619D01*
X6373167Y-10570524D02*
X6373167Y-10608619D01*
X6668405Y-10846714D02*
X6658881Y-10837190D01*
X6658881Y-10837190D02*
X6639834Y-10808619D01*
X6639834Y-10808619D02*
X6630310Y-10789571D01*
X6630310Y-10789571D02*
X6620786Y-10761000D01*
X6620786Y-10761000D02*
X6611262Y-10713381D01*
X6611262Y-10713381D02*
X6611262Y-10675286D01*
X6611262Y-10675286D02*
X6620786Y-10627667D01*
X6620786Y-10627667D02*
X6630310Y-10599095D01*
X6630310Y-10599095D02*
X6639834Y-10580048D01*
X6639834Y-10580048D02*
X6658881Y-10551476D01*
X6658881Y-10551476D02*
X6668405Y-10541952D01*
X6849357Y-10770524D02*
X6735072Y-10770524D01*
X6792214Y-10770524D02*
X6792214Y-10570524D01*
X6792214Y-10570524D02*
X6773167Y-10599095D01*
X6773167Y-10599095D02*
X6754119Y-10618143D01*
X6754119Y-10618143D02*
X6735072Y-10627667D01*
X6963643Y-10656238D02*
X6944595Y-10646714D01*
X6944595Y-10646714D02*
X6935072Y-10637190D01*
X6935072Y-10637190D02*
X6925548Y-10618143D01*
X6925548Y-10618143D02*
X6925548Y-10608619D01*
X6925548Y-10608619D02*
X6935072Y-10589571D01*
X6935072Y-10589571D02*
X6944595Y-10580048D01*
X6944595Y-10580048D02*
X6963643Y-10570524D01*
X6963643Y-10570524D02*
X7001738Y-10570524D01*
X7001738Y-10570524D02*
X7020786Y-10580048D01*
X7020786Y-10580048D02*
X7030310Y-10589571D01*
X7030310Y-10589571D02*
X7039834Y-10608619D01*
X7039834Y-10608619D02*
X7039834Y-10618143D01*
X7039834Y-10618143D02*
X7030310Y-10637190D01*
X7030310Y-10637190D02*
X7020786Y-10646714D01*
X7020786Y-10646714D02*
X7001738Y-10656238D01*
X7001738Y-10656238D02*
X6963643Y-10656238D01*
X6963643Y-10656238D02*
X6944595Y-10665762D01*
X6944595Y-10665762D02*
X6935072Y-10675286D01*
X6935072Y-10675286D02*
X6925548Y-10694333D01*
X6925548Y-10694333D02*
X6925548Y-10732429D01*
X6925548Y-10732429D02*
X6935072Y-10751476D01*
X6935072Y-10751476D02*
X6944595Y-10761000D01*
X6944595Y-10761000D02*
X6963643Y-10770524D01*
X6963643Y-10770524D02*
X7001738Y-10770524D01*
X7001738Y-10770524D02*
X7020786Y-10761000D01*
X7020786Y-10761000D02*
X7030310Y-10751476D01*
X7030310Y-10751476D02*
X7039834Y-10732429D01*
X7039834Y-10732429D02*
X7039834Y-10694333D01*
X7039834Y-10694333D02*
X7030310Y-10675286D01*
X7030310Y-10675286D02*
X7020786Y-10665762D01*
X7020786Y-10665762D02*
X7001738Y-10656238D01*
X7277929Y-10770524D02*
X7277929Y-10570524D01*
X7363643Y-10770524D02*
X7363643Y-10665762D01*
X7363643Y-10665762D02*
X7354119Y-10646714D01*
X7354119Y-10646714D02*
X7335072Y-10637190D01*
X7335072Y-10637190D02*
X7306500Y-10637190D01*
X7306500Y-10637190D02*
X7287453Y-10646714D01*
X7287453Y-10646714D02*
X7277929Y-10656238D01*
X7487453Y-10770524D02*
X7468405Y-10761000D01*
X7468405Y-10761000D02*
X7458881Y-10751476D01*
X7458881Y-10751476D02*
X7449357Y-10732429D01*
X7449357Y-10732429D02*
X7449357Y-10675286D01*
X7449357Y-10675286D02*
X7458881Y-10656238D01*
X7458881Y-10656238D02*
X7468405Y-10646714D01*
X7468405Y-10646714D02*
X7487453Y-10637190D01*
X7487453Y-10637190D02*
X7516024Y-10637190D01*
X7516024Y-10637190D02*
X7535072Y-10646714D01*
X7535072Y-10646714D02*
X7544596Y-10656238D01*
X7544596Y-10656238D02*
X7554119Y-10675286D01*
X7554119Y-10675286D02*
X7554119Y-10732429D01*
X7554119Y-10732429D02*
X7544596Y-10751476D01*
X7544596Y-10751476D02*
X7535072Y-10761000D01*
X7535072Y-10761000D02*
X7516024Y-10770524D01*
X7516024Y-10770524D02*
X7487453Y-10770524D01*
X7668405Y-10770524D02*
X7649357Y-10761000D01*
X7649357Y-10761000D02*
X7639834Y-10741952D01*
X7639834Y-10741952D02*
X7639834Y-10570524D01*
X7820786Y-10761000D02*
X7801738Y-10770524D01*
X7801738Y-10770524D02*
X7763643Y-10770524D01*
X7763643Y-10770524D02*
X7744596Y-10761000D01*
X7744596Y-10761000D02*
X7735072Y-10741952D01*
X7735072Y-10741952D02*
X7735072Y-10665762D01*
X7735072Y-10665762D02*
X7744596Y-10646714D01*
X7744596Y-10646714D02*
X7763643Y-10637190D01*
X7763643Y-10637190D02*
X7801738Y-10637190D01*
X7801738Y-10637190D02*
X7820786Y-10646714D01*
X7820786Y-10646714D02*
X7830310Y-10665762D01*
X7830310Y-10665762D02*
X7830310Y-10684810D01*
X7830310Y-10684810D02*
X7735072Y-10703857D01*
X7906500Y-10761000D02*
X7925548Y-10770524D01*
X7925548Y-10770524D02*
X7963643Y-10770524D01*
X7963643Y-10770524D02*
X7982691Y-10761000D01*
X7982691Y-10761000D02*
X7992215Y-10741952D01*
X7992215Y-10741952D02*
X7992215Y-10732429D01*
X7992215Y-10732429D02*
X7982691Y-10713381D01*
X7982691Y-10713381D02*
X7963643Y-10703857D01*
X7963643Y-10703857D02*
X7935072Y-10703857D01*
X7935072Y-10703857D02*
X7916024Y-10694333D01*
X7916024Y-10694333D02*
X7906500Y-10675286D01*
X7906500Y-10675286D02*
X7906500Y-10665762D01*
X7906500Y-10665762D02*
X7916024Y-10646714D01*
X7916024Y-10646714D02*
X7935072Y-10637190D01*
X7935072Y-10637190D02*
X7963643Y-10637190D01*
X7963643Y-10637190D02*
X7982691Y-10646714D01*
X8058881Y-10846714D02*
X8068405Y-10837190D01*
X8068405Y-10837190D02*
X8087453Y-10808619D01*
X8087453Y-10808619D02*
X8096977Y-10789571D01*
X8096977Y-10789571D02*
X8106500Y-10761000D01*
X8106500Y-10761000D02*
X8116024Y-10713381D01*
X8116024Y-10713381D02*
X8116024Y-10675286D01*
X8116024Y-10675286D02*
X8106500Y-10627667D01*
X8106500Y-10627667D02*
X8096977Y-10599095D01*
X8096977Y-10599095D02*
X8087453Y-10580048D01*
X8087453Y-10580048D02*
X8068405Y-10551476D01*
X8068405Y-10551476D02*
X8058881Y-10541952D01*
D13*
X3106500Y-10942000D02*
G75*
G03*
X3106500Y-10942000I-37500J0D01*
G01*
D11*
X3392214Y-10834524D02*
X3411262Y-10834524D01*
X3411262Y-10834524D02*
X3430309Y-10844048D01*
X3430309Y-10844048D02*
X3439833Y-10853571D01*
X3439833Y-10853571D02*
X3449357Y-10872619D01*
X3449357Y-10872619D02*
X3458881Y-10910714D01*
X3458881Y-10910714D02*
X3458881Y-10958333D01*
X3458881Y-10958333D02*
X3449357Y-10996429D01*
X3449357Y-10996429D02*
X3439833Y-11015476D01*
X3439833Y-11015476D02*
X3430309Y-11025000D01*
X3430309Y-11025000D02*
X3411262Y-11034524D01*
X3411262Y-11034524D02*
X3392214Y-11034524D01*
X3392214Y-11034524D02*
X3373167Y-11025000D01*
X3373167Y-11025000D02*
X3363643Y-11015476D01*
X3363643Y-11015476D02*
X3354119Y-10996429D01*
X3354119Y-10996429D02*
X3344595Y-10958333D01*
X3344595Y-10958333D02*
X3344595Y-10910714D01*
X3344595Y-10910714D02*
X3354119Y-10872619D01*
X3354119Y-10872619D02*
X3363643Y-10853571D01*
X3363643Y-10853571D02*
X3373167Y-10844048D01*
X3373167Y-10844048D02*
X3392214Y-10834524D01*
X3544595Y-11015476D02*
X3554119Y-11025000D01*
X3554119Y-11025000D02*
X3544595Y-11034524D01*
X3544595Y-11034524D02*
X3535071Y-11025000D01*
X3535071Y-11025000D02*
X3544595Y-11015476D01*
X3544595Y-11015476D02*
X3544595Y-11034524D01*
X3620786Y-10834524D02*
X3754119Y-10834524D01*
X3754119Y-10834524D02*
X3668405Y-11034524D01*
X3925548Y-10834524D02*
X3830309Y-10834524D01*
X3830309Y-10834524D02*
X3820786Y-10929762D01*
X3820786Y-10929762D02*
X3830309Y-10920238D01*
X3830309Y-10920238D02*
X3849357Y-10910714D01*
X3849357Y-10910714D02*
X3896976Y-10910714D01*
X3896976Y-10910714D02*
X3916024Y-10920238D01*
X3916024Y-10920238D02*
X3925548Y-10929762D01*
X3925548Y-10929762D02*
X3935071Y-10948810D01*
X3935071Y-10948810D02*
X3935071Y-10996429D01*
X3935071Y-10996429D02*
X3925548Y-11015476D01*
X3925548Y-11015476D02*
X3916024Y-11025000D01*
X3916024Y-11025000D02*
X3896976Y-11034524D01*
X3896976Y-11034524D02*
X3849357Y-11034524D01*
X3849357Y-11034524D02*
X3830309Y-11025000D01*
X3830309Y-11025000D02*
X3820786Y-11015476D01*
X4058881Y-10834524D02*
X4077929Y-10834524D01*
X4077929Y-10834524D02*
X4096976Y-10844048D01*
X4096976Y-10844048D02*
X4106500Y-10853571D01*
X4106500Y-10853571D02*
X4116024Y-10872619D01*
X4116024Y-10872619D02*
X4125548Y-10910714D01*
X4125548Y-10910714D02*
X4125548Y-10958333D01*
X4125548Y-10958333D02*
X4116024Y-10996429D01*
X4116024Y-10996429D02*
X4106500Y-11015476D01*
X4106500Y-11015476D02*
X4096976Y-11025000D01*
X4096976Y-11025000D02*
X4077929Y-11034524D01*
X4077929Y-11034524D02*
X4058881Y-11034524D01*
X4058881Y-11034524D02*
X4039833Y-11025000D01*
X4039833Y-11025000D02*
X4030309Y-11015476D01*
X4030309Y-11015476D02*
X4020786Y-10996429D01*
X4020786Y-10996429D02*
X4011262Y-10958333D01*
X4011262Y-10958333D02*
X4011262Y-10910714D01*
X4011262Y-10910714D02*
X4020786Y-10872619D01*
X4020786Y-10872619D02*
X4030309Y-10853571D01*
X4030309Y-10853571D02*
X4039833Y-10844048D01*
X4039833Y-10844048D02*
X4058881Y-10834524D01*
X4211262Y-11034524D02*
X4211262Y-10901190D01*
X4211262Y-10920238D02*
X4220786Y-10910714D01*
X4220786Y-10910714D02*
X4239833Y-10901190D01*
X4239833Y-10901190D02*
X4268405Y-10901190D01*
X4268405Y-10901190D02*
X4287452Y-10910714D01*
X4287452Y-10910714D02*
X4296976Y-10929762D01*
X4296976Y-10929762D02*
X4296976Y-11034524D01*
X4296976Y-10929762D02*
X4306500Y-10910714D01*
X4306500Y-10910714D02*
X4325548Y-10901190D01*
X4325548Y-10901190D02*
X4354119Y-10901190D01*
X4354119Y-10901190D02*
X4373167Y-10910714D01*
X4373167Y-10910714D02*
X4382691Y-10929762D01*
X4382691Y-10929762D02*
X4382691Y-11034524D01*
X4477929Y-11034524D02*
X4477929Y-10901190D01*
X4477929Y-10920238D02*
X4487452Y-10910714D01*
X4487452Y-10910714D02*
X4506500Y-10901190D01*
X4506500Y-10901190D02*
X4535072Y-10901190D01*
X4535072Y-10901190D02*
X4554119Y-10910714D01*
X4554119Y-10910714D02*
X4563643Y-10929762D01*
X4563643Y-10929762D02*
X4563643Y-11034524D01*
X4563643Y-10929762D02*
X4573167Y-10910714D01*
X4573167Y-10910714D02*
X4592214Y-10901190D01*
X4592214Y-10901190D02*
X4620786Y-10901190D01*
X4620786Y-10901190D02*
X4639833Y-10910714D01*
X4639833Y-10910714D02*
X4649357Y-10929762D01*
X4649357Y-10929762D02*
X4649357Y-11034524D01*
X5039833Y-10825000D02*
X4868405Y-11082143D01*
X5296976Y-10834524D02*
X5316024Y-10834524D01*
X5316024Y-10834524D02*
X5335072Y-10844048D01*
X5335072Y-10844048D02*
X5344595Y-10853571D01*
X5344595Y-10853571D02*
X5354119Y-10872619D01*
X5354119Y-10872619D02*
X5363643Y-10910714D01*
X5363643Y-10910714D02*
X5363643Y-10958333D01*
X5363643Y-10958333D02*
X5354119Y-10996429D01*
X5354119Y-10996429D02*
X5344595Y-11015476D01*
X5344595Y-11015476D02*
X5335072Y-11025000D01*
X5335072Y-11025000D02*
X5316024Y-11034524D01*
X5316024Y-11034524D02*
X5296976Y-11034524D01*
X5296976Y-11034524D02*
X5277929Y-11025000D01*
X5277929Y-11025000D02*
X5268405Y-11015476D01*
X5268405Y-11015476D02*
X5258881Y-10996429D01*
X5258881Y-10996429D02*
X5249357Y-10958333D01*
X5249357Y-10958333D02*
X5249357Y-10910714D01*
X5249357Y-10910714D02*
X5258881Y-10872619D01*
X5258881Y-10872619D02*
X5268405Y-10853571D01*
X5268405Y-10853571D02*
X5277929Y-10844048D01*
X5277929Y-10844048D02*
X5296976Y-10834524D01*
X5449357Y-11015476D02*
X5458881Y-11025000D01*
X5458881Y-11025000D02*
X5449357Y-11034524D01*
X5449357Y-11034524D02*
X5439834Y-11025000D01*
X5439834Y-11025000D02*
X5449357Y-11015476D01*
X5449357Y-11015476D02*
X5449357Y-11034524D01*
X5582691Y-10834524D02*
X5601738Y-10834524D01*
X5601738Y-10834524D02*
X5620786Y-10844048D01*
X5620786Y-10844048D02*
X5630310Y-10853571D01*
X5630310Y-10853571D02*
X5639833Y-10872619D01*
X5639833Y-10872619D02*
X5649357Y-10910714D01*
X5649357Y-10910714D02*
X5649357Y-10958333D01*
X5649357Y-10958333D02*
X5639833Y-10996429D01*
X5639833Y-10996429D02*
X5630310Y-11015476D01*
X5630310Y-11015476D02*
X5620786Y-11025000D01*
X5620786Y-11025000D02*
X5601738Y-11034524D01*
X5601738Y-11034524D02*
X5582691Y-11034524D01*
X5582691Y-11034524D02*
X5563643Y-11025000D01*
X5563643Y-11025000D02*
X5554119Y-11015476D01*
X5554119Y-11015476D02*
X5544595Y-10996429D01*
X5544595Y-10996429D02*
X5535072Y-10958333D01*
X5535072Y-10958333D02*
X5535072Y-10910714D01*
X5535072Y-10910714D02*
X5544595Y-10872619D01*
X5544595Y-10872619D02*
X5554119Y-10853571D01*
X5554119Y-10853571D02*
X5563643Y-10844048D01*
X5563643Y-10844048D02*
X5582691Y-10834524D01*
X5725548Y-10853571D02*
X5735072Y-10844048D01*
X5735072Y-10844048D02*
X5754119Y-10834524D01*
X5754119Y-10834524D02*
X5801738Y-10834524D01*
X5801738Y-10834524D02*
X5820786Y-10844048D01*
X5820786Y-10844048D02*
X5830310Y-10853571D01*
X5830310Y-10853571D02*
X5839833Y-10872619D01*
X5839833Y-10872619D02*
X5839833Y-10891667D01*
X5839833Y-10891667D02*
X5830310Y-10920238D01*
X5830310Y-10920238D02*
X5716024Y-11034524D01*
X5716024Y-11034524D02*
X5839833Y-11034524D01*
X5935072Y-11034524D02*
X5973167Y-11034524D01*
X5973167Y-11034524D02*
X5992214Y-11025000D01*
X5992214Y-11025000D02*
X6001738Y-11015476D01*
X6001738Y-11015476D02*
X6020786Y-10986905D01*
X6020786Y-10986905D02*
X6030310Y-10948810D01*
X6030310Y-10948810D02*
X6030310Y-10872619D01*
X6030310Y-10872619D02*
X6020786Y-10853571D01*
X6020786Y-10853571D02*
X6011262Y-10844048D01*
X6011262Y-10844048D02*
X5992214Y-10834524D01*
X5992214Y-10834524D02*
X5954119Y-10834524D01*
X5954119Y-10834524D02*
X5935072Y-10844048D01*
X5935072Y-10844048D02*
X5925548Y-10853571D01*
X5925548Y-10853571D02*
X5916024Y-10872619D01*
X5916024Y-10872619D02*
X5916024Y-10920238D01*
X5916024Y-10920238D02*
X5925548Y-10939286D01*
X5925548Y-10939286D02*
X5935072Y-10948810D01*
X5935072Y-10948810D02*
X5954119Y-10958333D01*
X5954119Y-10958333D02*
X5992214Y-10958333D01*
X5992214Y-10958333D02*
X6011262Y-10948810D01*
X6011262Y-10948810D02*
X6020786Y-10939286D01*
X6020786Y-10939286D02*
X6030310Y-10920238D01*
X6211262Y-10834524D02*
X6116024Y-10834524D01*
X6116024Y-10834524D02*
X6106500Y-10929762D01*
X6106500Y-10929762D02*
X6116024Y-10920238D01*
X6116024Y-10920238D02*
X6135072Y-10910714D01*
X6135072Y-10910714D02*
X6182691Y-10910714D01*
X6182691Y-10910714D02*
X6201738Y-10920238D01*
X6201738Y-10920238D02*
X6211262Y-10929762D01*
X6211262Y-10929762D02*
X6220786Y-10948810D01*
X6220786Y-10948810D02*
X6220786Y-10996429D01*
X6220786Y-10996429D02*
X6211262Y-11015476D01*
X6211262Y-11015476D02*
X6201738Y-11025000D01*
X6201738Y-11025000D02*
X6182691Y-11034524D01*
X6182691Y-11034524D02*
X6135072Y-11034524D01*
X6135072Y-11034524D02*
X6116024Y-11025000D01*
X6116024Y-11025000D02*
X6106500Y-11015476D01*
X6296976Y-10834524D02*
X6296976Y-10872619D01*
X6373167Y-10834524D02*
X6373167Y-10872619D01*
X6668405Y-11110714D02*
X6658881Y-11101190D01*
X6658881Y-11101190D02*
X6639834Y-11072619D01*
X6639834Y-11072619D02*
X6630310Y-11053571D01*
X6630310Y-11053571D02*
X6620786Y-11025000D01*
X6620786Y-11025000D02*
X6611262Y-10977381D01*
X6611262Y-10977381D02*
X6611262Y-10939286D01*
X6611262Y-10939286D02*
X6620786Y-10891667D01*
X6620786Y-10891667D02*
X6630310Y-10863095D01*
X6630310Y-10863095D02*
X6639834Y-10844048D01*
X6639834Y-10844048D02*
X6658881Y-10815476D01*
X6658881Y-10815476D02*
X6668405Y-10805952D01*
X6830310Y-10834524D02*
X6792214Y-10834524D01*
X6792214Y-10834524D02*
X6773167Y-10844048D01*
X6773167Y-10844048D02*
X6763643Y-10853571D01*
X6763643Y-10853571D02*
X6744595Y-10882143D01*
X6744595Y-10882143D02*
X6735072Y-10920238D01*
X6735072Y-10920238D02*
X6735072Y-10996429D01*
X6735072Y-10996429D02*
X6744595Y-11015476D01*
X6744595Y-11015476D02*
X6754119Y-11025000D01*
X6754119Y-11025000D02*
X6773167Y-11034524D01*
X6773167Y-11034524D02*
X6811262Y-11034524D01*
X6811262Y-11034524D02*
X6830310Y-11025000D01*
X6830310Y-11025000D02*
X6839834Y-11015476D01*
X6839834Y-11015476D02*
X6849357Y-10996429D01*
X6849357Y-10996429D02*
X6849357Y-10948810D01*
X6849357Y-10948810D02*
X6839834Y-10929762D01*
X6839834Y-10929762D02*
X6830310Y-10920238D01*
X6830310Y-10920238D02*
X6811262Y-10910714D01*
X6811262Y-10910714D02*
X6773167Y-10910714D01*
X6773167Y-10910714D02*
X6754119Y-10920238D01*
X6754119Y-10920238D02*
X6744595Y-10929762D01*
X6744595Y-10929762D02*
X6735072Y-10948810D01*
X7087453Y-11034524D02*
X7087453Y-10834524D01*
X7173167Y-11034524D02*
X7173167Y-10929762D01*
X7173167Y-10929762D02*
X7163643Y-10910714D01*
X7163643Y-10910714D02*
X7144596Y-10901190D01*
X7144596Y-10901190D02*
X7116024Y-10901190D01*
X7116024Y-10901190D02*
X7096976Y-10910714D01*
X7096976Y-10910714D02*
X7087453Y-10920238D01*
X7296976Y-11034524D02*
X7277929Y-11025000D01*
X7277929Y-11025000D02*
X7268405Y-11015476D01*
X7268405Y-11015476D02*
X7258881Y-10996429D01*
X7258881Y-10996429D02*
X7258881Y-10939286D01*
X7258881Y-10939286D02*
X7268405Y-10920238D01*
X7268405Y-10920238D02*
X7277929Y-10910714D01*
X7277929Y-10910714D02*
X7296976Y-10901190D01*
X7296976Y-10901190D02*
X7325548Y-10901190D01*
X7325548Y-10901190D02*
X7344596Y-10910714D01*
X7344596Y-10910714D02*
X7354119Y-10920238D01*
X7354119Y-10920238D02*
X7363643Y-10939286D01*
X7363643Y-10939286D02*
X7363643Y-10996429D01*
X7363643Y-10996429D02*
X7354119Y-11015476D01*
X7354119Y-11015476D02*
X7344596Y-11025000D01*
X7344596Y-11025000D02*
X7325548Y-11034524D01*
X7325548Y-11034524D02*
X7296976Y-11034524D01*
X7477929Y-11034524D02*
X7458881Y-11025000D01*
X7458881Y-11025000D02*
X7449357Y-11005952D01*
X7449357Y-11005952D02*
X7449357Y-10834524D01*
X7630310Y-11025000D02*
X7611262Y-11034524D01*
X7611262Y-11034524D02*
X7573167Y-11034524D01*
X7573167Y-11034524D02*
X7554119Y-11025000D01*
X7554119Y-11025000D02*
X7544596Y-11005952D01*
X7544596Y-11005952D02*
X7544596Y-10929762D01*
X7544596Y-10929762D02*
X7554119Y-10910714D01*
X7554119Y-10910714D02*
X7573167Y-10901190D01*
X7573167Y-10901190D02*
X7611262Y-10901190D01*
X7611262Y-10901190D02*
X7630310Y-10910714D01*
X7630310Y-10910714D02*
X7639834Y-10929762D01*
X7639834Y-10929762D02*
X7639834Y-10948810D01*
X7639834Y-10948810D02*
X7544596Y-10967857D01*
X7716024Y-11025000D02*
X7735072Y-11034524D01*
X7735072Y-11034524D02*
X7773167Y-11034524D01*
X7773167Y-11034524D02*
X7792215Y-11025000D01*
X7792215Y-11025000D02*
X7801738Y-11005952D01*
X7801738Y-11005952D02*
X7801738Y-10996429D01*
X7801738Y-10996429D02*
X7792215Y-10977381D01*
X7792215Y-10977381D02*
X7773167Y-10967857D01*
X7773167Y-10967857D02*
X7744596Y-10967857D01*
X7744596Y-10967857D02*
X7725548Y-10958333D01*
X7725548Y-10958333D02*
X7716024Y-10939286D01*
X7716024Y-10939286D02*
X7716024Y-10929762D01*
X7716024Y-10929762D02*
X7725548Y-10910714D01*
X7725548Y-10910714D02*
X7744596Y-10901190D01*
X7744596Y-10901190D02*
X7773167Y-10901190D01*
X7773167Y-10901190D02*
X7792215Y-10910714D01*
X7868405Y-11110714D02*
X7877929Y-11101190D01*
X7877929Y-11101190D02*
X7896977Y-11072619D01*
X7896977Y-11072619D02*
X7906500Y-11053571D01*
X7906500Y-11053571D02*
X7916024Y-11025000D01*
X7916024Y-11025000D02*
X7925548Y-10977381D01*
X7925548Y-10977381D02*
X7925548Y-10939286D01*
X7925548Y-10939286D02*
X7916024Y-10891667D01*
X7916024Y-10891667D02*
X7906500Y-10863095D01*
X7906500Y-10863095D02*
X7896977Y-10844048D01*
X7896977Y-10844048D02*
X7877929Y-10815476D01*
X7877929Y-10815476D02*
X7868405Y-10805952D01*
D14*
X3066500Y-11166000D02*
X3066500Y-11246000D01*
X3026500Y-11206000D02*
X3106500Y-11206000D01*
D11*
X3392214Y-11098524D02*
X3411262Y-11098524D01*
X3411262Y-11098524D02*
X3430309Y-11108048D01*
X3430309Y-11108048D02*
X3439833Y-11117571D01*
X3439833Y-11117571D02*
X3449357Y-11136619D01*
X3449357Y-11136619D02*
X3458881Y-11174714D01*
X3458881Y-11174714D02*
X3458881Y-11222333D01*
X3458881Y-11222333D02*
X3449357Y-11260428D01*
X3449357Y-11260428D02*
X3439833Y-11279476D01*
X3439833Y-11279476D02*
X3430309Y-11289000D01*
X3430309Y-11289000D02*
X3411262Y-11298524D01*
X3411262Y-11298524D02*
X3392214Y-11298524D01*
X3392214Y-11298524D02*
X3373167Y-11289000D01*
X3373167Y-11289000D02*
X3363643Y-11279476D01*
X3363643Y-11279476D02*
X3354119Y-11260428D01*
X3354119Y-11260428D02*
X3344595Y-11222333D01*
X3344595Y-11222333D02*
X3344595Y-11174714D01*
X3344595Y-11174714D02*
X3354119Y-11136619D01*
X3354119Y-11136619D02*
X3363643Y-11117571D01*
X3363643Y-11117571D02*
X3373167Y-11108048D01*
X3373167Y-11108048D02*
X3392214Y-11098524D01*
X3544595Y-11279476D02*
X3554119Y-11289000D01*
X3554119Y-11289000D02*
X3544595Y-11298524D01*
X3544595Y-11298524D02*
X3535071Y-11289000D01*
X3535071Y-11289000D02*
X3544595Y-11279476D01*
X3544595Y-11279476D02*
X3544595Y-11298524D01*
X3668405Y-11184238D02*
X3649357Y-11174714D01*
X3649357Y-11174714D02*
X3639833Y-11165190D01*
X3639833Y-11165190D02*
X3630309Y-11146143D01*
X3630309Y-11146143D02*
X3630309Y-11136619D01*
X3630309Y-11136619D02*
X3639833Y-11117571D01*
X3639833Y-11117571D02*
X3649357Y-11108048D01*
X3649357Y-11108048D02*
X3668405Y-11098524D01*
X3668405Y-11098524D02*
X3706500Y-11098524D01*
X3706500Y-11098524D02*
X3725548Y-11108048D01*
X3725548Y-11108048D02*
X3735071Y-11117571D01*
X3735071Y-11117571D02*
X3744595Y-11136619D01*
X3744595Y-11136619D02*
X3744595Y-11146143D01*
X3744595Y-11146143D02*
X3735071Y-11165190D01*
X3735071Y-11165190D02*
X3725548Y-11174714D01*
X3725548Y-11174714D02*
X3706500Y-11184238D01*
X3706500Y-11184238D02*
X3668405Y-11184238D01*
X3668405Y-11184238D02*
X3649357Y-11193762D01*
X3649357Y-11193762D02*
X3639833Y-11203286D01*
X3639833Y-11203286D02*
X3630309Y-11222333D01*
X3630309Y-11222333D02*
X3630309Y-11260428D01*
X3630309Y-11260428D02*
X3639833Y-11279476D01*
X3639833Y-11279476D02*
X3649357Y-11289000D01*
X3649357Y-11289000D02*
X3668405Y-11298524D01*
X3668405Y-11298524D02*
X3706500Y-11298524D01*
X3706500Y-11298524D02*
X3725548Y-11289000D01*
X3725548Y-11289000D02*
X3735071Y-11279476D01*
X3735071Y-11279476D02*
X3744595Y-11260428D01*
X3744595Y-11260428D02*
X3744595Y-11222333D01*
X3744595Y-11222333D02*
X3735071Y-11203286D01*
X3735071Y-11203286D02*
X3725548Y-11193762D01*
X3725548Y-11193762D02*
X3706500Y-11184238D01*
X3868405Y-11098524D02*
X3887452Y-11098524D01*
X3887452Y-11098524D02*
X3906500Y-11108048D01*
X3906500Y-11108048D02*
X3916024Y-11117571D01*
X3916024Y-11117571D02*
X3925548Y-11136619D01*
X3925548Y-11136619D02*
X3935071Y-11174714D01*
X3935071Y-11174714D02*
X3935071Y-11222333D01*
X3935071Y-11222333D02*
X3925548Y-11260428D01*
X3925548Y-11260428D02*
X3916024Y-11279476D01*
X3916024Y-11279476D02*
X3906500Y-11289000D01*
X3906500Y-11289000D02*
X3887452Y-11298524D01*
X3887452Y-11298524D02*
X3868405Y-11298524D01*
X3868405Y-11298524D02*
X3849357Y-11289000D01*
X3849357Y-11289000D02*
X3839833Y-11279476D01*
X3839833Y-11279476D02*
X3830309Y-11260428D01*
X3830309Y-11260428D02*
X3820786Y-11222333D01*
X3820786Y-11222333D02*
X3820786Y-11174714D01*
X3820786Y-11174714D02*
X3830309Y-11136619D01*
X3830309Y-11136619D02*
X3839833Y-11117571D01*
X3839833Y-11117571D02*
X3849357Y-11108048D01*
X3849357Y-11108048D02*
X3868405Y-11098524D01*
X4058881Y-11098524D02*
X4077929Y-11098524D01*
X4077929Y-11098524D02*
X4096976Y-11108048D01*
X4096976Y-11108048D02*
X4106500Y-11117571D01*
X4106500Y-11117571D02*
X4116024Y-11136619D01*
X4116024Y-11136619D02*
X4125548Y-11174714D01*
X4125548Y-11174714D02*
X4125548Y-11222333D01*
X4125548Y-11222333D02*
X4116024Y-11260428D01*
X4116024Y-11260428D02*
X4106500Y-11279476D01*
X4106500Y-11279476D02*
X4096976Y-11289000D01*
X4096976Y-11289000D02*
X4077929Y-11298524D01*
X4077929Y-11298524D02*
X4058881Y-11298524D01*
X4058881Y-11298524D02*
X4039833Y-11289000D01*
X4039833Y-11289000D02*
X4030309Y-11279476D01*
X4030309Y-11279476D02*
X4020786Y-11260428D01*
X4020786Y-11260428D02*
X4011262Y-11222333D01*
X4011262Y-11222333D02*
X4011262Y-11174714D01*
X4011262Y-11174714D02*
X4020786Y-11136619D01*
X4020786Y-11136619D02*
X4030309Y-11117571D01*
X4030309Y-11117571D02*
X4039833Y-11108048D01*
X4039833Y-11108048D02*
X4058881Y-11098524D01*
X4211262Y-11298524D02*
X4211262Y-11165190D01*
X4211262Y-11184238D02*
X4220786Y-11174714D01*
X4220786Y-11174714D02*
X4239833Y-11165190D01*
X4239833Y-11165190D02*
X4268405Y-11165190D01*
X4268405Y-11165190D02*
X4287452Y-11174714D01*
X4287452Y-11174714D02*
X4296976Y-11193762D01*
X4296976Y-11193762D02*
X4296976Y-11298524D01*
X4296976Y-11193762D02*
X4306500Y-11174714D01*
X4306500Y-11174714D02*
X4325548Y-11165190D01*
X4325548Y-11165190D02*
X4354119Y-11165190D01*
X4354119Y-11165190D02*
X4373167Y-11174714D01*
X4373167Y-11174714D02*
X4382691Y-11193762D01*
X4382691Y-11193762D02*
X4382691Y-11298524D01*
X4477929Y-11298524D02*
X4477929Y-11165190D01*
X4477929Y-11184238D02*
X4487452Y-11174714D01*
X4487452Y-11174714D02*
X4506500Y-11165190D01*
X4506500Y-11165190D02*
X4535072Y-11165190D01*
X4535072Y-11165190D02*
X4554119Y-11174714D01*
X4554119Y-11174714D02*
X4563643Y-11193762D01*
X4563643Y-11193762D02*
X4563643Y-11298524D01*
X4563643Y-11193762D02*
X4573167Y-11174714D01*
X4573167Y-11174714D02*
X4592214Y-11165190D01*
X4592214Y-11165190D02*
X4620786Y-11165190D01*
X4620786Y-11165190D02*
X4639833Y-11174714D01*
X4639833Y-11174714D02*
X4649357Y-11193762D01*
X4649357Y-11193762D02*
X4649357Y-11298524D01*
X5039833Y-11089000D02*
X4868405Y-11346143D01*
X5296976Y-11098524D02*
X5316024Y-11098524D01*
X5316024Y-11098524D02*
X5335072Y-11108048D01*
X5335072Y-11108048D02*
X5344595Y-11117571D01*
X5344595Y-11117571D02*
X5354119Y-11136619D01*
X5354119Y-11136619D02*
X5363643Y-11174714D01*
X5363643Y-11174714D02*
X5363643Y-11222333D01*
X5363643Y-11222333D02*
X5354119Y-11260428D01*
X5354119Y-11260428D02*
X5344595Y-11279476D01*
X5344595Y-11279476D02*
X5335072Y-11289000D01*
X5335072Y-11289000D02*
X5316024Y-11298524D01*
X5316024Y-11298524D02*
X5296976Y-11298524D01*
X5296976Y-11298524D02*
X5277929Y-11289000D01*
X5277929Y-11289000D02*
X5268405Y-11279476D01*
X5268405Y-11279476D02*
X5258881Y-11260428D01*
X5258881Y-11260428D02*
X5249357Y-11222333D01*
X5249357Y-11222333D02*
X5249357Y-11174714D01*
X5249357Y-11174714D02*
X5258881Y-11136619D01*
X5258881Y-11136619D02*
X5268405Y-11117571D01*
X5268405Y-11117571D02*
X5277929Y-11108048D01*
X5277929Y-11108048D02*
X5296976Y-11098524D01*
X5449357Y-11279476D02*
X5458881Y-11289000D01*
X5458881Y-11289000D02*
X5449357Y-11298524D01*
X5449357Y-11298524D02*
X5439834Y-11289000D01*
X5439834Y-11289000D02*
X5449357Y-11279476D01*
X5449357Y-11279476D02*
X5449357Y-11298524D01*
X5582691Y-11098524D02*
X5601738Y-11098524D01*
X5601738Y-11098524D02*
X5620786Y-11108048D01*
X5620786Y-11108048D02*
X5630310Y-11117571D01*
X5630310Y-11117571D02*
X5639833Y-11136619D01*
X5639833Y-11136619D02*
X5649357Y-11174714D01*
X5649357Y-11174714D02*
X5649357Y-11222333D01*
X5649357Y-11222333D02*
X5639833Y-11260428D01*
X5639833Y-11260428D02*
X5630310Y-11279476D01*
X5630310Y-11279476D02*
X5620786Y-11289000D01*
X5620786Y-11289000D02*
X5601738Y-11298524D01*
X5601738Y-11298524D02*
X5582691Y-11298524D01*
X5582691Y-11298524D02*
X5563643Y-11289000D01*
X5563643Y-11289000D02*
X5554119Y-11279476D01*
X5554119Y-11279476D02*
X5544595Y-11260428D01*
X5544595Y-11260428D02*
X5535072Y-11222333D01*
X5535072Y-11222333D02*
X5535072Y-11174714D01*
X5535072Y-11174714D02*
X5544595Y-11136619D01*
X5544595Y-11136619D02*
X5554119Y-11117571D01*
X5554119Y-11117571D02*
X5563643Y-11108048D01*
X5563643Y-11108048D02*
X5582691Y-11098524D01*
X5716024Y-11098524D02*
X5839833Y-11098524D01*
X5839833Y-11098524D02*
X5773167Y-11174714D01*
X5773167Y-11174714D02*
X5801738Y-11174714D01*
X5801738Y-11174714D02*
X5820786Y-11184238D01*
X5820786Y-11184238D02*
X5830310Y-11193762D01*
X5830310Y-11193762D02*
X5839833Y-11212809D01*
X5839833Y-11212809D02*
X5839833Y-11260428D01*
X5839833Y-11260428D02*
X5830310Y-11279476D01*
X5830310Y-11279476D02*
X5820786Y-11289000D01*
X5820786Y-11289000D02*
X5801738Y-11298524D01*
X5801738Y-11298524D02*
X5744595Y-11298524D01*
X5744595Y-11298524D02*
X5725548Y-11289000D01*
X5725548Y-11289000D02*
X5716024Y-11279476D01*
X6030310Y-11298524D02*
X5916024Y-11298524D01*
X5973167Y-11298524D02*
X5973167Y-11098524D01*
X5973167Y-11098524D02*
X5954119Y-11127095D01*
X5954119Y-11127095D02*
X5935072Y-11146143D01*
X5935072Y-11146143D02*
X5916024Y-11155667D01*
X6211262Y-11098524D02*
X6116024Y-11098524D01*
X6116024Y-11098524D02*
X6106500Y-11193762D01*
X6106500Y-11193762D02*
X6116024Y-11184238D01*
X6116024Y-11184238D02*
X6135072Y-11174714D01*
X6135072Y-11174714D02*
X6182691Y-11174714D01*
X6182691Y-11174714D02*
X6201738Y-11184238D01*
X6201738Y-11184238D02*
X6211262Y-11193762D01*
X6211262Y-11193762D02*
X6220786Y-11212809D01*
X6220786Y-11212809D02*
X6220786Y-11260428D01*
X6220786Y-11260428D02*
X6211262Y-11279476D01*
X6211262Y-11279476D02*
X6201738Y-11289000D01*
X6201738Y-11289000D02*
X6182691Y-11298524D01*
X6182691Y-11298524D02*
X6135072Y-11298524D01*
X6135072Y-11298524D02*
X6116024Y-11289000D01*
X6116024Y-11289000D02*
X6106500Y-11279476D01*
X6296976Y-11098524D02*
X6296976Y-11136619D01*
X6373167Y-11098524D02*
X6373167Y-11136619D01*
X6668405Y-11374714D02*
X6658881Y-11365190D01*
X6658881Y-11365190D02*
X6639834Y-11336619D01*
X6639834Y-11336619D02*
X6630310Y-11317571D01*
X6630310Y-11317571D02*
X6620786Y-11289000D01*
X6620786Y-11289000D02*
X6611262Y-11241381D01*
X6611262Y-11241381D02*
X6611262Y-11203286D01*
X6611262Y-11203286D02*
X6620786Y-11155667D01*
X6620786Y-11155667D02*
X6630310Y-11127095D01*
X6630310Y-11127095D02*
X6639834Y-11108048D01*
X6639834Y-11108048D02*
X6658881Y-11079476D01*
X6658881Y-11079476D02*
X6668405Y-11069952D01*
X6849357Y-11298524D02*
X6735072Y-11298524D01*
X6792214Y-11298524D02*
X6792214Y-11098524D01*
X6792214Y-11098524D02*
X6773167Y-11127095D01*
X6773167Y-11127095D02*
X6754119Y-11146143D01*
X6754119Y-11146143D02*
X6735072Y-11155667D01*
X6963643Y-11184238D02*
X6944595Y-11174714D01*
X6944595Y-11174714D02*
X6935072Y-11165190D01*
X6935072Y-11165190D02*
X6925548Y-11146143D01*
X6925548Y-11146143D02*
X6925548Y-11136619D01*
X6925548Y-11136619D02*
X6935072Y-11117571D01*
X6935072Y-11117571D02*
X6944595Y-11108048D01*
X6944595Y-11108048D02*
X6963643Y-11098524D01*
X6963643Y-11098524D02*
X7001738Y-11098524D01*
X7001738Y-11098524D02*
X7020786Y-11108048D01*
X7020786Y-11108048D02*
X7030310Y-11117571D01*
X7030310Y-11117571D02*
X7039834Y-11136619D01*
X7039834Y-11136619D02*
X7039834Y-11146143D01*
X7039834Y-11146143D02*
X7030310Y-11165190D01*
X7030310Y-11165190D02*
X7020786Y-11174714D01*
X7020786Y-11174714D02*
X7001738Y-11184238D01*
X7001738Y-11184238D02*
X6963643Y-11184238D01*
X6963643Y-11184238D02*
X6944595Y-11193762D01*
X6944595Y-11193762D02*
X6935072Y-11203286D01*
X6935072Y-11203286D02*
X6925548Y-11222333D01*
X6925548Y-11222333D02*
X6925548Y-11260428D01*
X6925548Y-11260428D02*
X6935072Y-11279476D01*
X6935072Y-11279476D02*
X6944595Y-11289000D01*
X6944595Y-11289000D02*
X6963643Y-11298524D01*
X6963643Y-11298524D02*
X7001738Y-11298524D01*
X7001738Y-11298524D02*
X7020786Y-11289000D01*
X7020786Y-11289000D02*
X7030310Y-11279476D01*
X7030310Y-11279476D02*
X7039834Y-11260428D01*
X7039834Y-11260428D02*
X7039834Y-11222333D01*
X7039834Y-11222333D02*
X7030310Y-11203286D01*
X7030310Y-11203286D02*
X7020786Y-11193762D01*
X7020786Y-11193762D02*
X7001738Y-11184238D01*
X7277929Y-11298524D02*
X7277929Y-11098524D01*
X7363643Y-11298524D02*
X7363643Y-11193762D01*
X7363643Y-11193762D02*
X7354119Y-11174714D01*
X7354119Y-11174714D02*
X7335072Y-11165190D01*
X7335072Y-11165190D02*
X7306500Y-11165190D01*
X7306500Y-11165190D02*
X7287453Y-11174714D01*
X7287453Y-11174714D02*
X7277929Y-11184238D01*
X7487453Y-11298524D02*
X7468405Y-11289000D01*
X7468405Y-11289000D02*
X7458881Y-11279476D01*
X7458881Y-11279476D02*
X7449357Y-11260428D01*
X7449357Y-11260428D02*
X7449357Y-11203286D01*
X7449357Y-11203286D02*
X7458881Y-11184238D01*
X7458881Y-11184238D02*
X7468405Y-11174714D01*
X7468405Y-11174714D02*
X7487453Y-11165190D01*
X7487453Y-11165190D02*
X7516024Y-11165190D01*
X7516024Y-11165190D02*
X7535072Y-11174714D01*
X7535072Y-11174714D02*
X7544596Y-11184238D01*
X7544596Y-11184238D02*
X7554119Y-11203286D01*
X7554119Y-11203286D02*
X7554119Y-11260428D01*
X7554119Y-11260428D02*
X7544596Y-11279476D01*
X7544596Y-11279476D02*
X7535072Y-11289000D01*
X7535072Y-11289000D02*
X7516024Y-11298524D01*
X7516024Y-11298524D02*
X7487453Y-11298524D01*
X7668405Y-11298524D02*
X7649357Y-11289000D01*
X7649357Y-11289000D02*
X7639834Y-11269952D01*
X7639834Y-11269952D02*
X7639834Y-11098524D01*
X7820786Y-11289000D02*
X7801738Y-11298524D01*
X7801738Y-11298524D02*
X7763643Y-11298524D01*
X7763643Y-11298524D02*
X7744596Y-11289000D01*
X7744596Y-11289000D02*
X7735072Y-11269952D01*
X7735072Y-11269952D02*
X7735072Y-11193762D01*
X7735072Y-11193762D02*
X7744596Y-11174714D01*
X7744596Y-11174714D02*
X7763643Y-11165190D01*
X7763643Y-11165190D02*
X7801738Y-11165190D01*
X7801738Y-11165190D02*
X7820786Y-11174714D01*
X7820786Y-11174714D02*
X7830310Y-11193762D01*
X7830310Y-11193762D02*
X7830310Y-11212809D01*
X7830310Y-11212809D02*
X7735072Y-11231857D01*
X7906500Y-11289000D02*
X7925548Y-11298524D01*
X7925548Y-11298524D02*
X7963643Y-11298524D01*
X7963643Y-11298524D02*
X7982691Y-11289000D01*
X7982691Y-11289000D02*
X7992215Y-11269952D01*
X7992215Y-11269952D02*
X7992215Y-11260428D01*
X7992215Y-11260428D02*
X7982691Y-11241381D01*
X7982691Y-11241381D02*
X7963643Y-11231857D01*
X7963643Y-11231857D02*
X7935072Y-11231857D01*
X7935072Y-11231857D02*
X7916024Y-11222333D01*
X7916024Y-11222333D02*
X7906500Y-11203286D01*
X7906500Y-11203286D02*
X7906500Y-11193762D01*
X7906500Y-11193762D02*
X7916024Y-11174714D01*
X7916024Y-11174714D02*
X7935072Y-11165190D01*
X7935072Y-11165190D02*
X7963643Y-11165190D01*
X7963643Y-11165190D02*
X7982691Y-11174714D01*
X8058881Y-11374714D02*
X8068405Y-11365190D01*
X8068405Y-11365190D02*
X8087453Y-11336619D01*
X8087453Y-11336619D02*
X8096977Y-11317571D01*
X8096977Y-11317571D02*
X8106500Y-11289000D01*
X8106500Y-11289000D02*
X8116024Y-11241381D01*
X8116024Y-11241381D02*
X8116024Y-11203286D01*
X8116024Y-11203286D02*
X8106500Y-11155667D01*
X8106500Y-11155667D02*
X8096977Y-11127095D01*
X8096977Y-11127095D02*
X8087453Y-11108048D01*
X8087453Y-11108048D02*
X8068405Y-11079476D01*
X8068405Y-11079476D02*
X8058881Y-11069952D01*
D10*
X3091856Y-11505356D02*
X3091856Y-11434644D01*
X3021144Y-11434644D01*
X3021144Y-11505356D01*
X3091856Y-11505356D01*
D11*
X3458881Y-11562524D02*
X3344595Y-11562524D01*
X3401738Y-11562524D02*
X3401738Y-11362524D01*
X3401738Y-11362524D02*
X3382690Y-11391095D01*
X3382690Y-11391095D02*
X3363643Y-11410143D01*
X3363643Y-11410143D02*
X3344595Y-11419667D01*
X3544595Y-11543476D02*
X3554119Y-11553000D01*
X3554119Y-11553000D02*
X3544595Y-11562524D01*
X3544595Y-11562524D02*
X3535071Y-11553000D01*
X3535071Y-11553000D02*
X3544595Y-11543476D01*
X3544595Y-11543476D02*
X3544595Y-11562524D01*
X3677928Y-11362524D02*
X3696976Y-11362524D01*
X3696976Y-11362524D02*
X3716024Y-11372048D01*
X3716024Y-11372048D02*
X3725548Y-11381571D01*
X3725548Y-11381571D02*
X3735071Y-11400619D01*
X3735071Y-11400619D02*
X3744595Y-11438714D01*
X3744595Y-11438714D02*
X3744595Y-11486333D01*
X3744595Y-11486333D02*
X3735071Y-11524428D01*
X3735071Y-11524428D02*
X3725548Y-11543476D01*
X3725548Y-11543476D02*
X3716024Y-11553000D01*
X3716024Y-11553000D02*
X3696976Y-11562524D01*
X3696976Y-11562524D02*
X3677928Y-11562524D01*
X3677928Y-11562524D02*
X3658881Y-11553000D01*
X3658881Y-11553000D02*
X3649357Y-11543476D01*
X3649357Y-11543476D02*
X3639833Y-11524428D01*
X3639833Y-11524428D02*
X3630309Y-11486333D01*
X3630309Y-11486333D02*
X3630309Y-11438714D01*
X3630309Y-11438714D02*
X3639833Y-11400619D01*
X3639833Y-11400619D02*
X3649357Y-11381571D01*
X3649357Y-11381571D02*
X3658881Y-11372048D01*
X3658881Y-11372048D02*
X3677928Y-11362524D01*
X3868405Y-11362524D02*
X3887452Y-11362524D01*
X3887452Y-11362524D02*
X3906500Y-11372048D01*
X3906500Y-11372048D02*
X3916024Y-11381571D01*
X3916024Y-11381571D02*
X3925548Y-11400619D01*
X3925548Y-11400619D02*
X3935071Y-11438714D01*
X3935071Y-11438714D02*
X3935071Y-11486333D01*
X3935071Y-11486333D02*
X3925548Y-11524428D01*
X3925548Y-11524428D02*
X3916024Y-11543476D01*
X3916024Y-11543476D02*
X3906500Y-11553000D01*
X3906500Y-11553000D02*
X3887452Y-11562524D01*
X3887452Y-11562524D02*
X3868405Y-11562524D01*
X3868405Y-11562524D02*
X3849357Y-11553000D01*
X3849357Y-11553000D02*
X3839833Y-11543476D01*
X3839833Y-11543476D02*
X3830309Y-11524428D01*
X3830309Y-11524428D02*
X3820786Y-11486333D01*
X3820786Y-11486333D02*
X3820786Y-11438714D01*
X3820786Y-11438714D02*
X3830309Y-11400619D01*
X3830309Y-11400619D02*
X3839833Y-11381571D01*
X3839833Y-11381571D02*
X3849357Y-11372048D01*
X3849357Y-11372048D02*
X3868405Y-11362524D01*
X4058881Y-11362524D02*
X4077929Y-11362524D01*
X4077929Y-11362524D02*
X4096976Y-11372048D01*
X4096976Y-11372048D02*
X4106500Y-11381571D01*
X4106500Y-11381571D02*
X4116024Y-11400619D01*
X4116024Y-11400619D02*
X4125548Y-11438714D01*
X4125548Y-11438714D02*
X4125548Y-11486333D01*
X4125548Y-11486333D02*
X4116024Y-11524428D01*
X4116024Y-11524428D02*
X4106500Y-11543476D01*
X4106500Y-11543476D02*
X4096976Y-11553000D01*
X4096976Y-11553000D02*
X4077929Y-11562524D01*
X4077929Y-11562524D02*
X4058881Y-11562524D01*
X4058881Y-11562524D02*
X4039833Y-11553000D01*
X4039833Y-11553000D02*
X4030309Y-11543476D01*
X4030309Y-11543476D02*
X4020786Y-11524428D01*
X4020786Y-11524428D02*
X4011262Y-11486333D01*
X4011262Y-11486333D02*
X4011262Y-11438714D01*
X4011262Y-11438714D02*
X4020786Y-11400619D01*
X4020786Y-11400619D02*
X4030309Y-11381571D01*
X4030309Y-11381571D02*
X4039833Y-11372048D01*
X4039833Y-11372048D02*
X4058881Y-11362524D01*
X4211262Y-11562524D02*
X4211262Y-11429190D01*
X4211262Y-11448238D02*
X4220786Y-11438714D01*
X4220786Y-11438714D02*
X4239833Y-11429190D01*
X4239833Y-11429190D02*
X4268405Y-11429190D01*
X4268405Y-11429190D02*
X4287452Y-11438714D01*
X4287452Y-11438714D02*
X4296976Y-11457762D01*
X4296976Y-11457762D02*
X4296976Y-11562524D01*
X4296976Y-11457762D02*
X4306500Y-11438714D01*
X4306500Y-11438714D02*
X4325548Y-11429190D01*
X4325548Y-11429190D02*
X4354119Y-11429190D01*
X4354119Y-11429190D02*
X4373167Y-11438714D01*
X4373167Y-11438714D02*
X4382691Y-11457762D01*
X4382691Y-11457762D02*
X4382691Y-11562524D01*
X4477929Y-11562524D02*
X4477929Y-11429190D01*
X4477929Y-11448238D02*
X4487452Y-11438714D01*
X4487452Y-11438714D02*
X4506500Y-11429190D01*
X4506500Y-11429190D02*
X4535072Y-11429190D01*
X4535072Y-11429190D02*
X4554119Y-11438714D01*
X4554119Y-11438714D02*
X4563643Y-11457762D01*
X4563643Y-11457762D02*
X4563643Y-11562524D01*
X4563643Y-11457762D02*
X4573167Y-11438714D01*
X4573167Y-11438714D02*
X4592214Y-11429190D01*
X4592214Y-11429190D02*
X4620786Y-11429190D01*
X4620786Y-11429190D02*
X4639833Y-11438714D01*
X4639833Y-11438714D02*
X4649357Y-11457762D01*
X4649357Y-11457762D02*
X4649357Y-11562524D01*
X5039833Y-11353000D02*
X4868405Y-11610143D01*
X5296976Y-11362524D02*
X5316024Y-11362524D01*
X5316024Y-11362524D02*
X5335072Y-11372048D01*
X5335072Y-11372048D02*
X5344595Y-11381571D01*
X5344595Y-11381571D02*
X5354119Y-11400619D01*
X5354119Y-11400619D02*
X5363643Y-11438714D01*
X5363643Y-11438714D02*
X5363643Y-11486333D01*
X5363643Y-11486333D02*
X5354119Y-11524428D01*
X5354119Y-11524428D02*
X5344595Y-11543476D01*
X5344595Y-11543476D02*
X5335072Y-11553000D01*
X5335072Y-11553000D02*
X5316024Y-11562524D01*
X5316024Y-11562524D02*
X5296976Y-11562524D01*
X5296976Y-11562524D02*
X5277929Y-11553000D01*
X5277929Y-11553000D02*
X5268405Y-11543476D01*
X5268405Y-11543476D02*
X5258881Y-11524428D01*
X5258881Y-11524428D02*
X5249357Y-11486333D01*
X5249357Y-11486333D02*
X5249357Y-11438714D01*
X5249357Y-11438714D02*
X5258881Y-11400619D01*
X5258881Y-11400619D02*
X5268405Y-11381571D01*
X5268405Y-11381571D02*
X5277929Y-11372048D01*
X5277929Y-11372048D02*
X5296976Y-11362524D01*
X5449357Y-11543476D02*
X5458881Y-11553000D01*
X5458881Y-11553000D02*
X5449357Y-11562524D01*
X5449357Y-11562524D02*
X5439834Y-11553000D01*
X5439834Y-11553000D02*
X5449357Y-11543476D01*
X5449357Y-11543476D02*
X5449357Y-11562524D01*
X5582691Y-11362524D02*
X5601738Y-11362524D01*
X5601738Y-11362524D02*
X5620786Y-11372048D01*
X5620786Y-11372048D02*
X5630310Y-11381571D01*
X5630310Y-11381571D02*
X5639833Y-11400619D01*
X5639833Y-11400619D02*
X5649357Y-11438714D01*
X5649357Y-11438714D02*
X5649357Y-11486333D01*
X5649357Y-11486333D02*
X5639833Y-11524428D01*
X5639833Y-11524428D02*
X5630310Y-11543476D01*
X5630310Y-11543476D02*
X5620786Y-11553000D01*
X5620786Y-11553000D02*
X5601738Y-11562524D01*
X5601738Y-11562524D02*
X5582691Y-11562524D01*
X5582691Y-11562524D02*
X5563643Y-11553000D01*
X5563643Y-11553000D02*
X5554119Y-11543476D01*
X5554119Y-11543476D02*
X5544595Y-11524428D01*
X5544595Y-11524428D02*
X5535072Y-11486333D01*
X5535072Y-11486333D02*
X5535072Y-11438714D01*
X5535072Y-11438714D02*
X5544595Y-11400619D01*
X5544595Y-11400619D02*
X5554119Y-11381571D01*
X5554119Y-11381571D02*
X5563643Y-11372048D01*
X5563643Y-11372048D02*
X5582691Y-11362524D01*
X5716024Y-11362524D02*
X5839833Y-11362524D01*
X5839833Y-11362524D02*
X5773167Y-11438714D01*
X5773167Y-11438714D02*
X5801738Y-11438714D01*
X5801738Y-11438714D02*
X5820786Y-11448238D01*
X5820786Y-11448238D02*
X5830310Y-11457762D01*
X5830310Y-11457762D02*
X5839833Y-11476809D01*
X5839833Y-11476809D02*
X5839833Y-11524428D01*
X5839833Y-11524428D02*
X5830310Y-11543476D01*
X5830310Y-11543476D02*
X5820786Y-11553000D01*
X5820786Y-11553000D02*
X5801738Y-11562524D01*
X5801738Y-11562524D02*
X5744595Y-11562524D01*
X5744595Y-11562524D02*
X5725548Y-11553000D01*
X5725548Y-11553000D02*
X5716024Y-11543476D01*
X5935072Y-11562524D02*
X5973167Y-11562524D01*
X5973167Y-11562524D02*
X5992214Y-11553000D01*
X5992214Y-11553000D02*
X6001738Y-11543476D01*
X6001738Y-11543476D02*
X6020786Y-11514905D01*
X6020786Y-11514905D02*
X6030310Y-11476809D01*
X6030310Y-11476809D02*
X6030310Y-11400619D01*
X6030310Y-11400619D02*
X6020786Y-11381571D01*
X6020786Y-11381571D02*
X6011262Y-11372048D01*
X6011262Y-11372048D02*
X5992214Y-11362524D01*
X5992214Y-11362524D02*
X5954119Y-11362524D01*
X5954119Y-11362524D02*
X5935072Y-11372048D01*
X5935072Y-11372048D02*
X5925548Y-11381571D01*
X5925548Y-11381571D02*
X5916024Y-11400619D01*
X5916024Y-11400619D02*
X5916024Y-11448238D01*
X5916024Y-11448238D02*
X5925548Y-11467286D01*
X5925548Y-11467286D02*
X5935072Y-11476809D01*
X5935072Y-11476809D02*
X5954119Y-11486333D01*
X5954119Y-11486333D02*
X5992214Y-11486333D01*
X5992214Y-11486333D02*
X6011262Y-11476809D01*
X6011262Y-11476809D02*
X6020786Y-11467286D01*
X6020786Y-11467286D02*
X6030310Y-11448238D01*
X6201738Y-11429190D02*
X6201738Y-11562524D01*
X6154119Y-11353000D02*
X6106500Y-11495857D01*
X6106500Y-11495857D02*
X6230310Y-11495857D01*
X6296976Y-11362524D02*
X6296976Y-11400619D01*
X6373167Y-11362524D02*
X6373167Y-11400619D01*
X6668405Y-11638714D02*
X6658881Y-11629190D01*
X6658881Y-11629190D02*
X6639834Y-11600619D01*
X6639834Y-11600619D02*
X6630310Y-11581571D01*
X6630310Y-11581571D02*
X6620786Y-11553000D01*
X6620786Y-11553000D02*
X6611262Y-11505381D01*
X6611262Y-11505381D02*
X6611262Y-11467286D01*
X6611262Y-11467286D02*
X6620786Y-11419667D01*
X6620786Y-11419667D02*
X6630310Y-11391095D01*
X6630310Y-11391095D02*
X6639834Y-11372048D01*
X6639834Y-11372048D02*
X6658881Y-11343476D01*
X6658881Y-11343476D02*
X6668405Y-11333952D01*
X6725548Y-11362524D02*
X6849357Y-11362524D01*
X6849357Y-11362524D02*
X6782691Y-11438714D01*
X6782691Y-11438714D02*
X6811262Y-11438714D01*
X6811262Y-11438714D02*
X6830310Y-11448238D01*
X6830310Y-11448238D02*
X6839834Y-11457762D01*
X6839834Y-11457762D02*
X6849357Y-11476809D01*
X6849357Y-11476809D02*
X6849357Y-11524428D01*
X6849357Y-11524428D02*
X6839834Y-11543476D01*
X6839834Y-11543476D02*
X6830310Y-11553000D01*
X6830310Y-11553000D02*
X6811262Y-11562524D01*
X6811262Y-11562524D02*
X6754119Y-11562524D01*
X6754119Y-11562524D02*
X6735072Y-11553000D01*
X6735072Y-11553000D02*
X6725548Y-11543476D01*
X7020786Y-11362524D02*
X6982691Y-11362524D01*
X6982691Y-11362524D02*
X6963643Y-11372048D01*
X6963643Y-11372048D02*
X6954119Y-11381571D01*
X6954119Y-11381571D02*
X6935072Y-11410143D01*
X6935072Y-11410143D02*
X6925548Y-11448238D01*
X6925548Y-11448238D02*
X6925548Y-11524428D01*
X6925548Y-11524428D02*
X6935072Y-11543476D01*
X6935072Y-11543476D02*
X6944595Y-11553000D01*
X6944595Y-11553000D02*
X6963643Y-11562524D01*
X6963643Y-11562524D02*
X7001738Y-11562524D01*
X7001738Y-11562524D02*
X7020786Y-11553000D01*
X7020786Y-11553000D02*
X7030310Y-11543476D01*
X7030310Y-11543476D02*
X7039834Y-11524428D01*
X7039834Y-11524428D02*
X7039834Y-11476809D01*
X7039834Y-11476809D02*
X7030310Y-11457762D01*
X7030310Y-11457762D02*
X7020786Y-11448238D01*
X7020786Y-11448238D02*
X7001738Y-11438714D01*
X7001738Y-11438714D02*
X6963643Y-11438714D01*
X6963643Y-11438714D02*
X6944595Y-11448238D01*
X6944595Y-11448238D02*
X6935072Y-11457762D01*
X6935072Y-11457762D02*
X6925548Y-11476809D01*
X7277929Y-11562524D02*
X7277929Y-11362524D01*
X7363643Y-11562524D02*
X7363643Y-11457762D01*
X7363643Y-11457762D02*
X7354119Y-11438714D01*
X7354119Y-11438714D02*
X7335072Y-11429190D01*
X7335072Y-11429190D02*
X7306500Y-11429190D01*
X7306500Y-11429190D02*
X7287453Y-11438714D01*
X7287453Y-11438714D02*
X7277929Y-11448238D01*
X7487453Y-11562524D02*
X7468405Y-11553000D01*
X7468405Y-11553000D02*
X7458881Y-11543476D01*
X7458881Y-11543476D02*
X7449357Y-11524428D01*
X7449357Y-11524428D02*
X7449357Y-11467286D01*
X7449357Y-11467286D02*
X7458881Y-11448238D01*
X7458881Y-11448238D02*
X7468405Y-11438714D01*
X7468405Y-11438714D02*
X7487453Y-11429190D01*
X7487453Y-11429190D02*
X7516024Y-11429190D01*
X7516024Y-11429190D02*
X7535072Y-11438714D01*
X7535072Y-11438714D02*
X7544596Y-11448238D01*
X7544596Y-11448238D02*
X7554119Y-11467286D01*
X7554119Y-11467286D02*
X7554119Y-11524428D01*
X7554119Y-11524428D02*
X7544596Y-11543476D01*
X7544596Y-11543476D02*
X7535072Y-11553000D01*
X7535072Y-11553000D02*
X7516024Y-11562524D01*
X7516024Y-11562524D02*
X7487453Y-11562524D01*
X7668405Y-11562524D02*
X7649357Y-11553000D01*
X7649357Y-11553000D02*
X7639834Y-11533952D01*
X7639834Y-11533952D02*
X7639834Y-11362524D01*
X7820786Y-11553000D02*
X7801738Y-11562524D01*
X7801738Y-11562524D02*
X7763643Y-11562524D01*
X7763643Y-11562524D02*
X7744596Y-11553000D01*
X7744596Y-11553000D02*
X7735072Y-11533952D01*
X7735072Y-11533952D02*
X7735072Y-11457762D01*
X7735072Y-11457762D02*
X7744596Y-11438714D01*
X7744596Y-11438714D02*
X7763643Y-11429190D01*
X7763643Y-11429190D02*
X7801738Y-11429190D01*
X7801738Y-11429190D02*
X7820786Y-11438714D01*
X7820786Y-11438714D02*
X7830310Y-11457762D01*
X7830310Y-11457762D02*
X7830310Y-11476809D01*
X7830310Y-11476809D02*
X7735072Y-11495857D01*
X7906500Y-11553000D02*
X7925548Y-11562524D01*
X7925548Y-11562524D02*
X7963643Y-11562524D01*
X7963643Y-11562524D02*
X7982691Y-11553000D01*
X7982691Y-11553000D02*
X7992215Y-11533952D01*
X7992215Y-11533952D02*
X7992215Y-11524428D01*
X7992215Y-11524428D02*
X7982691Y-11505381D01*
X7982691Y-11505381D02*
X7963643Y-11495857D01*
X7963643Y-11495857D02*
X7935072Y-11495857D01*
X7935072Y-11495857D02*
X7916024Y-11486333D01*
X7916024Y-11486333D02*
X7906500Y-11467286D01*
X7906500Y-11467286D02*
X7906500Y-11457762D01*
X7906500Y-11457762D02*
X7916024Y-11438714D01*
X7916024Y-11438714D02*
X7935072Y-11429190D01*
X7935072Y-11429190D02*
X7963643Y-11429190D01*
X7963643Y-11429190D02*
X7982691Y-11438714D01*
X8230310Y-11486333D02*
X8382691Y-11486333D01*
X8306500Y-11562524D02*
X8306500Y-11410143D01*
X8716024Y-11429190D02*
X8716024Y-11562524D01*
X8668405Y-11353000D02*
X8620786Y-11495857D01*
X8620786Y-11495857D02*
X8744596Y-11495857D01*
X8963643Y-11553000D02*
X8982691Y-11562524D01*
X8982691Y-11562524D02*
X9020786Y-11562524D01*
X9020786Y-11562524D02*
X9039834Y-11553000D01*
X9039834Y-11553000D02*
X9049358Y-11533952D01*
X9049358Y-11533952D02*
X9049358Y-11524428D01*
X9049358Y-11524428D02*
X9039834Y-11505381D01*
X9039834Y-11505381D02*
X9020786Y-11495857D01*
X9020786Y-11495857D02*
X8992215Y-11495857D01*
X8992215Y-11495857D02*
X8973167Y-11486333D01*
X8973167Y-11486333D02*
X8963643Y-11467286D01*
X8963643Y-11467286D02*
X8963643Y-11457762D01*
X8963643Y-11457762D02*
X8973167Y-11438714D01*
X8973167Y-11438714D02*
X8992215Y-11429190D01*
X8992215Y-11429190D02*
X9020786Y-11429190D01*
X9020786Y-11429190D02*
X9039834Y-11438714D01*
X9163643Y-11562524D02*
X9144596Y-11553000D01*
X9144596Y-11553000D02*
X9135072Y-11533952D01*
X9135072Y-11533952D02*
X9135072Y-11362524D01*
X9268405Y-11562524D02*
X9249358Y-11553000D01*
X9249358Y-11553000D02*
X9239834Y-11543476D01*
X9239834Y-11543476D02*
X9230310Y-11524428D01*
X9230310Y-11524428D02*
X9230310Y-11467286D01*
X9230310Y-11467286D02*
X9239834Y-11448238D01*
X9239834Y-11448238D02*
X9249358Y-11438714D01*
X9249358Y-11438714D02*
X9268405Y-11429190D01*
X9268405Y-11429190D02*
X9296977Y-11429190D01*
X9296977Y-11429190D02*
X9316024Y-11438714D01*
X9316024Y-11438714D02*
X9325548Y-11448238D01*
X9325548Y-11448238D02*
X9335072Y-11467286D01*
X9335072Y-11467286D02*
X9335072Y-11524428D01*
X9335072Y-11524428D02*
X9325548Y-11543476D01*
X9325548Y-11543476D02*
X9316024Y-11553000D01*
X9316024Y-11553000D02*
X9296977Y-11562524D01*
X9296977Y-11562524D02*
X9268405Y-11562524D01*
X9392215Y-11429190D02*
X9468405Y-11429190D01*
X9420786Y-11362524D02*
X9420786Y-11533952D01*
X9420786Y-11533952D02*
X9430310Y-11553000D01*
X9430310Y-11553000D02*
X9449358Y-11562524D01*
X9449358Y-11562524D02*
X9468405Y-11562524D01*
X9525548Y-11553000D02*
X9544596Y-11562524D01*
X9544596Y-11562524D02*
X9582691Y-11562524D01*
X9582691Y-11562524D02*
X9601739Y-11553000D01*
X9601739Y-11553000D02*
X9611263Y-11533952D01*
X9611263Y-11533952D02*
X9611263Y-11524428D01*
X9611263Y-11524428D02*
X9601739Y-11505381D01*
X9601739Y-11505381D02*
X9582691Y-11495857D01*
X9582691Y-11495857D02*
X9554120Y-11495857D01*
X9554120Y-11495857D02*
X9535072Y-11486333D01*
X9535072Y-11486333D02*
X9525548Y-11467286D01*
X9525548Y-11467286D02*
X9525548Y-11457762D01*
X9525548Y-11457762D02*
X9535072Y-11438714D01*
X9535072Y-11438714D02*
X9554120Y-11429190D01*
X9554120Y-11429190D02*
X9582691Y-11429190D01*
X9582691Y-11429190D02*
X9601739Y-11438714D01*
X9677929Y-11638714D02*
X9687453Y-11629190D01*
X9687453Y-11629190D02*
X9706501Y-11600619D01*
X9706501Y-11600619D02*
X9716024Y-11581571D01*
X9716024Y-11581571D02*
X9725548Y-11553000D01*
X9725548Y-11553000D02*
X9735072Y-11505381D01*
X9735072Y-11505381D02*
X9735072Y-11467286D01*
X9735072Y-11467286D02*
X9725548Y-11419667D01*
X9725548Y-11419667D02*
X9716024Y-11391095D01*
X9716024Y-11391095D02*
X9706501Y-11372048D01*
X9706501Y-11372048D02*
X9687453Y-11343476D01*
X9687453Y-11343476D02*
X9677929Y-11333952D01*
D15*
X3051500Y-11789000D02*
X3106500Y-11734000D01*
X3051500Y-11679000D01*
X2996500Y-11734000D01*
X3051500Y-11789000D01*
D11*
X3458881Y-11826524D02*
X3344595Y-11826524D01*
X3401738Y-11826524D02*
X3401738Y-11626524D01*
X3401738Y-11626524D02*
X3382690Y-11655095D01*
X3382690Y-11655095D02*
X3363643Y-11674143D01*
X3363643Y-11674143D02*
X3344595Y-11683667D01*
X3544595Y-11807476D02*
X3554119Y-11817000D01*
X3554119Y-11817000D02*
X3544595Y-11826524D01*
X3544595Y-11826524D02*
X3535071Y-11817000D01*
X3535071Y-11817000D02*
X3544595Y-11807476D01*
X3544595Y-11807476D02*
X3544595Y-11826524D01*
X3744595Y-11826524D02*
X3630309Y-11826524D01*
X3687452Y-11826524D02*
X3687452Y-11626524D01*
X3687452Y-11626524D02*
X3668405Y-11655095D01*
X3668405Y-11655095D02*
X3649357Y-11674143D01*
X3649357Y-11674143D02*
X3630309Y-11683667D01*
X3868405Y-11626524D02*
X3887452Y-11626524D01*
X3887452Y-11626524D02*
X3906500Y-11636048D01*
X3906500Y-11636048D02*
X3916024Y-11645571D01*
X3916024Y-11645571D02*
X3925548Y-11664619D01*
X3925548Y-11664619D02*
X3935071Y-11702714D01*
X3935071Y-11702714D02*
X3935071Y-11750333D01*
X3935071Y-11750333D02*
X3925548Y-11788428D01*
X3925548Y-11788428D02*
X3916024Y-11807476D01*
X3916024Y-11807476D02*
X3906500Y-11817000D01*
X3906500Y-11817000D02*
X3887452Y-11826524D01*
X3887452Y-11826524D02*
X3868405Y-11826524D01*
X3868405Y-11826524D02*
X3849357Y-11817000D01*
X3849357Y-11817000D02*
X3839833Y-11807476D01*
X3839833Y-11807476D02*
X3830309Y-11788428D01*
X3830309Y-11788428D02*
X3820786Y-11750333D01*
X3820786Y-11750333D02*
X3820786Y-11702714D01*
X3820786Y-11702714D02*
X3830309Y-11664619D01*
X3830309Y-11664619D02*
X3839833Y-11645571D01*
X3839833Y-11645571D02*
X3849357Y-11636048D01*
X3849357Y-11636048D02*
X3868405Y-11626524D01*
X4058881Y-11626524D02*
X4077929Y-11626524D01*
X4077929Y-11626524D02*
X4096976Y-11636048D01*
X4096976Y-11636048D02*
X4106500Y-11645571D01*
X4106500Y-11645571D02*
X4116024Y-11664619D01*
X4116024Y-11664619D02*
X4125548Y-11702714D01*
X4125548Y-11702714D02*
X4125548Y-11750333D01*
X4125548Y-11750333D02*
X4116024Y-11788428D01*
X4116024Y-11788428D02*
X4106500Y-11807476D01*
X4106500Y-11807476D02*
X4096976Y-11817000D01*
X4096976Y-11817000D02*
X4077929Y-11826524D01*
X4077929Y-11826524D02*
X4058881Y-11826524D01*
X4058881Y-11826524D02*
X4039833Y-11817000D01*
X4039833Y-11817000D02*
X4030309Y-11807476D01*
X4030309Y-11807476D02*
X4020786Y-11788428D01*
X4020786Y-11788428D02*
X4011262Y-11750333D01*
X4011262Y-11750333D02*
X4011262Y-11702714D01*
X4011262Y-11702714D02*
X4020786Y-11664619D01*
X4020786Y-11664619D02*
X4030309Y-11645571D01*
X4030309Y-11645571D02*
X4039833Y-11636048D01*
X4039833Y-11636048D02*
X4058881Y-11626524D01*
X4211262Y-11826524D02*
X4211262Y-11693190D01*
X4211262Y-11712238D02*
X4220786Y-11702714D01*
X4220786Y-11702714D02*
X4239833Y-11693190D01*
X4239833Y-11693190D02*
X4268405Y-11693190D01*
X4268405Y-11693190D02*
X4287452Y-11702714D01*
X4287452Y-11702714D02*
X4296976Y-11721762D01*
X4296976Y-11721762D02*
X4296976Y-11826524D01*
X4296976Y-11721762D02*
X4306500Y-11702714D01*
X4306500Y-11702714D02*
X4325548Y-11693190D01*
X4325548Y-11693190D02*
X4354119Y-11693190D01*
X4354119Y-11693190D02*
X4373167Y-11702714D01*
X4373167Y-11702714D02*
X4382691Y-11721762D01*
X4382691Y-11721762D02*
X4382691Y-11826524D01*
X4477929Y-11826524D02*
X4477929Y-11693190D01*
X4477929Y-11712238D02*
X4487452Y-11702714D01*
X4487452Y-11702714D02*
X4506500Y-11693190D01*
X4506500Y-11693190D02*
X4535072Y-11693190D01*
X4535072Y-11693190D02*
X4554119Y-11702714D01*
X4554119Y-11702714D02*
X4563643Y-11721762D01*
X4563643Y-11721762D02*
X4563643Y-11826524D01*
X4563643Y-11721762D02*
X4573167Y-11702714D01*
X4573167Y-11702714D02*
X4592214Y-11693190D01*
X4592214Y-11693190D02*
X4620786Y-11693190D01*
X4620786Y-11693190D02*
X4639833Y-11702714D01*
X4639833Y-11702714D02*
X4649357Y-11721762D01*
X4649357Y-11721762D02*
X4649357Y-11826524D01*
X5039833Y-11617000D02*
X4868405Y-11874143D01*
X5296976Y-11626524D02*
X5316024Y-11626524D01*
X5316024Y-11626524D02*
X5335072Y-11636048D01*
X5335072Y-11636048D02*
X5344595Y-11645571D01*
X5344595Y-11645571D02*
X5354119Y-11664619D01*
X5354119Y-11664619D02*
X5363643Y-11702714D01*
X5363643Y-11702714D02*
X5363643Y-11750333D01*
X5363643Y-11750333D02*
X5354119Y-11788428D01*
X5354119Y-11788428D02*
X5344595Y-11807476D01*
X5344595Y-11807476D02*
X5335072Y-11817000D01*
X5335072Y-11817000D02*
X5316024Y-11826524D01*
X5316024Y-11826524D02*
X5296976Y-11826524D01*
X5296976Y-11826524D02*
X5277929Y-11817000D01*
X5277929Y-11817000D02*
X5268405Y-11807476D01*
X5268405Y-11807476D02*
X5258881Y-11788428D01*
X5258881Y-11788428D02*
X5249357Y-11750333D01*
X5249357Y-11750333D02*
X5249357Y-11702714D01*
X5249357Y-11702714D02*
X5258881Y-11664619D01*
X5258881Y-11664619D02*
X5268405Y-11645571D01*
X5268405Y-11645571D02*
X5277929Y-11636048D01*
X5277929Y-11636048D02*
X5296976Y-11626524D01*
X5449357Y-11807476D02*
X5458881Y-11817000D01*
X5458881Y-11817000D02*
X5449357Y-11826524D01*
X5449357Y-11826524D02*
X5439834Y-11817000D01*
X5439834Y-11817000D02*
X5449357Y-11807476D01*
X5449357Y-11807476D02*
X5449357Y-11826524D01*
X5582691Y-11626524D02*
X5601738Y-11626524D01*
X5601738Y-11626524D02*
X5620786Y-11636048D01*
X5620786Y-11636048D02*
X5630310Y-11645571D01*
X5630310Y-11645571D02*
X5639833Y-11664619D01*
X5639833Y-11664619D02*
X5649357Y-11702714D01*
X5649357Y-11702714D02*
X5649357Y-11750333D01*
X5649357Y-11750333D02*
X5639833Y-11788428D01*
X5639833Y-11788428D02*
X5630310Y-11807476D01*
X5630310Y-11807476D02*
X5620786Y-11817000D01*
X5620786Y-11817000D02*
X5601738Y-11826524D01*
X5601738Y-11826524D02*
X5582691Y-11826524D01*
X5582691Y-11826524D02*
X5563643Y-11817000D01*
X5563643Y-11817000D02*
X5554119Y-11807476D01*
X5554119Y-11807476D02*
X5544595Y-11788428D01*
X5544595Y-11788428D02*
X5535072Y-11750333D01*
X5535072Y-11750333D02*
X5535072Y-11702714D01*
X5535072Y-11702714D02*
X5544595Y-11664619D01*
X5544595Y-11664619D02*
X5554119Y-11645571D01*
X5554119Y-11645571D02*
X5563643Y-11636048D01*
X5563643Y-11636048D02*
X5582691Y-11626524D01*
X5820786Y-11693190D02*
X5820786Y-11826524D01*
X5773167Y-11617000D02*
X5725548Y-11759857D01*
X5725548Y-11759857D02*
X5849357Y-11759857D01*
X5906500Y-11626524D02*
X6030310Y-11626524D01*
X6030310Y-11626524D02*
X5963643Y-11702714D01*
X5963643Y-11702714D02*
X5992214Y-11702714D01*
X5992214Y-11702714D02*
X6011262Y-11712238D01*
X6011262Y-11712238D02*
X6020786Y-11721762D01*
X6020786Y-11721762D02*
X6030310Y-11740809D01*
X6030310Y-11740809D02*
X6030310Y-11788428D01*
X6030310Y-11788428D02*
X6020786Y-11807476D01*
X6020786Y-11807476D02*
X6011262Y-11817000D01*
X6011262Y-11817000D02*
X5992214Y-11826524D01*
X5992214Y-11826524D02*
X5935072Y-11826524D01*
X5935072Y-11826524D02*
X5916024Y-11817000D01*
X5916024Y-11817000D02*
X5906500Y-11807476D01*
X6096976Y-11626524D02*
X6220786Y-11626524D01*
X6220786Y-11626524D02*
X6154119Y-11702714D01*
X6154119Y-11702714D02*
X6182691Y-11702714D01*
X6182691Y-11702714D02*
X6201738Y-11712238D01*
X6201738Y-11712238D02*
X6211262Y-11721762D01*
X6211262Y-11721762D02*
X6220786Y-11740809D01*
X6220786Y-11740809D02*
X6220786Y-11788428D01*
X6220786Y-11788428D02*
X6211262Y-11807476D01*
X6211262Y-11807476D02*
X6201738Y-11817000D01*
X6201738Y-11817000D02*
X6182691Y-11826524D01*
X6182691Y-11826524D02*
X6125548Y-11826524D01*
X6125548Y-11826524D02*
X6106500Y-11817000D01*
X6106500Y-11817000D02*
X6096976Y-11807476D01*
X6296976Y-11626524D02*
X6296976Y-11664619D01*
X6373167Y-11626524D02*
X6373167Y-11664619D01*
X6668405Y-11902714D02*
X6658881Y-11893190D01*
X6658881Y-11893190D02*
X6639834Y-11864619D01*
X6639834Y-11864619D02*
X6630310Y-11845571D01*
X6630310Y-11845571D02*
X6620786Y-11817000D01*
X6620786Y-11817000D02*
X6611262Y-11769381D01*
X6611262Y-11769381D02*
X6611262Y-11731286D01*
X6611262Y-11731286D02*
X6620786Y-11683667D01*
X6620786Y-11683667D02*
X6630310Y-11655095D01*
X6630310Y-11655095D02*
X6639834Y-11636048D01*
X6639834Y-11636048D02*
X6658881Y-11607476D01*
X6658881Y-11607476D02*
X6668405Y-11597952D01*
X6830310Y-11626524D02*
X6792214Y-11626524D01*
X6792214Y-11626524D02*
X6773167Y-11636048D01*
X6773167Y-11636048D02*
X6763643Y-11645571D01*
X6763643Y-11645571D02*
X6744595Y-11674143D01*
X6744595Y-11674143D02*
X6735072Y-11712238D01*
X6735072Y-11712238D02*
X6735072Y-11788428D01*
X6735072Y-11788428D02*
X6744595Y-11807476D01*
X6744595Y-11807476D02*
X6754119Y-11817000D01*
X6754119Y-11817000D02*
X6773167Y-11826524D01*
X6773167Y-11826524D02*
X6811262Y-11826524D01*
X6811262Y-11826524D02*
X6830310Y-11817000D01*
X6830310Y-11817000D02*
X6839834Y-11807476D01*
X6839834Y-11807476D02*
X6849357Y-11788428D01*
X6849357Y-11788428D02*
X6849357Y-11740809D01*
X6849357Y-11740809D02*
X6839834Y-11721762D01*
X6839834Y-11721762D02*
X6830310Y-11712238D01*
X6830310Y-11712238D02*
X6811262Y-11702714D01*
X6811262Y-11702714D02*
X6773167Y-11702714D01*
X6773167Y-11702714D02*
X6754119Y-11712238D01*
X6754119Y-11712238D02*
X6744595Y-11721762D01*
X6744595Y-11721762D02*
X6735072Y-11740809D01*
X7087453Y-11826524D02*
X7087453Y-11626524D01*
X7173167Y-11826524D02*
X7173167Y-11721762D01*
X7173167Y-11721762D02*
X7163643Y-11702714D01*
X7163643Y-11702714D02*
X7144596Y-11693190D01*
X7144596Y-11693190D02*
X7116024Y-11693190D01*
X7116024Y-11693190D02*
X7096976Y-11702714D01*
X7096976Y-11702714D02*
X7087453Y-11712238D01*
X7296976Y-11826524D02*
X7277929Y-11817000D01*
X7277929Y-11817000D02*
X7268405Y-11807476D01*
X7268405Y-11807476D02*
X7258881Y-11788428D01*
X7258881Y-11788428D02*
X7258881Y-11731286D01*
X7258881Y-11731286D02*
X7268405Y-11712238D01*
X7268405Y-11712238D02*
X7277929Y-11702714D01*
X7277929Y-11702714D02*
X7296976Y-11693190D01*
X7296976Y-11693190D02*
X7325548Y-11693190D01*
X7325548Y-11693190D02*
X7344596Y-11702714D01*
X7344596Y-11702714D02*
X7354119Y-11712238D01*
X7354119Y-11712238D02*
X7363643Y-11731286D01*
X7363643Y-11731286D02*
X7363643Y-11788428D01*
X7363643Y-11788428D02*
X7354119Y-11807476D01*
X7354119Y-11807476D02*
X7344596Y-11817000D01*
X7344596Y-11817000D02*
X7325548Y-11826524D01*
X7325548Y-11826524D02*
X7296976Y-11826524D01*
X7477929Y-11826524D02*
X7458881Y-11817000D01*
X7458881Y-11817000D02*
X7449357Y-11797952D01*
X7449357Y-11797952D02*
X7449357Y-11626524D01*
X7630310Y-11817000D02*
X7611262Y-11826524D01*
X7611262Y-11826524D02*
X7573167Y-11826524D01*
X7573167Y-11826524D02*
X7554119Y-11817000D01*
X7554119Y-11817000D02*
X7544596Y-11797952D01*
X7544596Y-11797952D02*
X7544596Y-11721762D01*
X7544596Y-11721762D02*
X7554119Y-11702714D01*
X7554119Y-11702714D02*
X7573167Y-11693190D01*
X7573167Y-11693190D02*
X7611262Y-11693190D01*
X7611262Y-11693190D02*
X7630310Y-11702714D01*
X7630310Y-11702714D02*
X7639834Y-11721762D01*
X7639834Y-11721762D02*
X7639834Y-11740809D01*
X7639834Y-11740809D02*
X7544596Y-11759857D01*
X7716024Y-11817000D02*
X7735072Y-11826524D01*
X7735072Y-11826524D02*
X7773167Y-11826524D01*
X7773167Y-11826524D02*
X7792215Y-11817000D01*
X7792215Y-11817000D02*
X7801738Y-11797952D01*
X7801738Y-11797952D02*
X7801738Y-11788428D01*
X7801738Y-11788428D02*
X7792215Y-11769381D01*
X7792215Y-11769381D02*
X7773167Y-11759857D01*
X7773167Y-11759857D02*
X7744596Y-11759857D01*
X7744596Y-11759857D02*
X7725548Y-11750333D01*
X7725548Y-11750333D02*
X7716024Y-11731286D01*
X7716024Y-11731286D02*
X7716024Y-11721762D01*
X7716024Y-11721762D02*
X7725548Y-11702714D01*
X7725548Y-11702714D02*
X7744596Y-11693190D01*
X7744596Y-11693190D02*
X7773167Y-11693190D01*
X7773167Y-11693190D02*
X7792215Y-11702714D01*
X7868405Y-11902714D02*
X7877929Y-11893190D01*
X7877929Y-11893190D02*
X7896977Y-11864619D01*
X7896977Y-11864619D02*
X7906500Y-11845571D01*
X7906500Y-11845571D02*
X7916024Y-11817000D01*
X7916024Y-11817000D02*
X7925548Y-11769381D01*
X7925548Y-11769381D02*
X7925548Y-11731286D01*
X7925548Y-11731286D02*
X7916024Y-11683667D01*
X7916024Y-11683667D02*
X7906500Y-11655095D01*
X7906500Y-11655095D02*
X7896977Y-11636048D01*
X7896977Y-11636048D02*
X7877929Y-11607476D01*
X7877929Y-11607476D02*
X7868405Y-11597952D01*
M02*
