%TF.GenerationSoftware,KiCad,Pcbnew,7.0.2*%
%TF.CreationDate,2024-03-01T12:34:08+01:00*%
%TF.ProjectId,piec_oszust,70696563-5f6f-4737-9a75-73742e6b6963,rev?*%
%TF.SameCoordinates,Original*%
%TF.FileFunction,Drillmap*%
%TF.FilePolarity,Positive*%
%FSLAX45Y45*%
G04 Gerber Fmt 4.5, Leading zero omitted, Abs format (unit mm)*
G04 Created by KiCad (PCBNEW 7.0.2) date 2024-03-01 12:34:08*
%MOMM*%
%LPD*%
G01*
G04 APERTURE LIST*
%ADD10C,0.100000*%
%ADD11C,0.200000*%
%ADD12C,0.160000*%
G04 APERTURE END LIST*
D10*
X3111500Y-4889500D02*
X3111500Y-9715500D01*
X9779000Y-4572000D02*
X3429000Y-4572000D01*
X10096500Y-9715500D02*
X10096500Y-4889500D01*
X3429000Y-10033000D02*
X9779000Y-10033000D01*
X3111500Y-9715500D02*
G75*
G03*
X3429000Y-10033000I317500J0D01*
G01*
X9779000Y-10033000D02*
G75*
G03*
X10096500Y-9715500I0J317500D01*
G01*
X10096500Y-4889500D02*
G75*
G03*
X9779000Y-4572000I-317500J0D01*
G01*
X3429000Y-4572000D02*
G75*
G03*
X3111500Y-4889500I0J-317500D01*
G01*
D11*
D12*
X3592000Y-7482000D02*
X3752000Y-7642000D01*
X3752000Y-7482000D02*
X3592000Y-7642000D01*
D11*
X3354119Y-10350524D02*
X3354119Y-10150524D01*
X3354119Y-10150524D02*
X3401738Y-10150524D01*
X3401738Y-10150524D02*
X3430309Y-10160048D01*
X3430309Y-10160048D02*
X3449357Y-10179095D01*
X3449357Y-10179095D02*
X3458881Y-10198143D01*
X3458881Y-10198143D02*
X3468405Y-10236238D01*
X3468405Y-10236238D02*
X3468405Y-10264810D01*
X3468405Y-10264810D02*
X3458881Y-10302905D01*
X3458881Y-10302905D02*
X3449357Y-10321952D01*
X3449357Y-10321952D02*
X3430309Y-10341000D01*
X3430309Y-10341000D02*
X3401738Y-10350524D01*
X3401738Y-10350524D02*
X3354119Y-10350524D01*
X3554119Y-10350524D02*
X3554119Y-10217190D01*
X3554119Y-10255286D02*
X3563643Y-10236238D01*
X3563643Y-10236238D02*
X3573167Y-10226714D01*
X3573167Y-10226714D02*
X3592214Y-10217190D01*
X3592214Y-10217190D02*
X3611262Y-10217190D01*
X3677928Y-10350524D02*
X3677928Y-10217190D01*
X3677928Y-10150524D02*
X3668405Y-10160048D01*
X3668405Y-10160048D02*
X3677928Y-10169571D01*
X3677928Y-10169571D02*
X3687452Y-10160048D01*
X3687452Y-10160048D02*
X3677928Y-10150524D01*
X3677928Y-10150524D02*
X3677928Y-10169571D01*
X3801738Y-10350524D02*
X3782690Y-10341000D01*
X3782690Y-10341000D02*
X3773167Y-10321952D01*
X3773167Y-10321952D02*
X3773167Y-10150524D01*
X3906500Y-10350524D02*
X3887452Y-10341000D01*
X3887452Y-10341000D02*
X3877928Y-10321952D01*
X3877928Y-10321952D02*
X3877928Y-10150524D01*
X4135071Y-10350524D02*
X4135071Y-10150524D01*
X4135071Y-10150524D02*
X4201738Y-10293381D01*
X4201738Y-10293381D02*
X4268405Y-10150524D01*
X4268405Y-10150524D02*
X4268405Y-10350524D01*
X4449357Y-10350524D02*
X4449357Y-10245762D01*
X4449357Y-10245762D02*
X4439833Y-10226714D01*
X4439833Y-10226714D02*
X4420786Y-10217190D01*
X4420786Y-10217190D02*
X4382690Y-10217190D01*
X4382690Y-10217190D02*
X4363643Y-10226714D01*
X4449357Y-10341000D02*
X4430310Y-10350524D01*
X4430310Y-10350524D02*
X4382690Y-10350524D01*
X4382690Y-10350524D02*
X4363643Y-10341000D01*
X4363643Y-10341000D02*
X4354119Y-10321952D01*
X4354119Y-10321952D02*
X4354119Y-10302905D01*
X4354119Y-10302905D02*
X4363643Y-10283857D01*
X4363643Y-10283857D02*
X4382690Y-10274333D01*
X4382690Y-10274333D02*
X4430310Y-10274333D01*
X4430310Y-10274333D02*
X4449357Y-10264810D01*
X4544595Y-10217190D02*
X4544595Y-10417190D01*
X4544595Y-10226714D02*
X4563643Y-10217190D01*
X4563643Y-10217190D02*
X4601738Y-10217190D01*
X4601738Y-10217190D02*
X4620786Y-10226714D01*
X4620786Y-10226714D02*
X4630310Y-10236238D01*
X4630310Y-10236238D02*
X4639833Y-10255286D01*
X4639833Y-10255286D02*
X4639833Y-10312429D01*
X4639833Y-10312429D02*
X4630310Y-10331476D01*
X4630310Y-10331476D02*
X4620786Y-10341000D01*
X4620786Y-10341000D02*
X4601738Y-10350524D01*
X4601738Y-10350524D02*
X4563643Y-10350524D01*
X4563643Y-10350524D02*
X4544595Y-10341000D01*
X4725548Y-10331476D02*
X4735071Y-10341000D01*
X4735071Y-10341000D02*
X4725548Y-10350524D01*
X4725548Y-10350524D02*
X4716024Y-10341000D01*
X4716024Y-10341000D02*
X4725548Y-10331476D01*
X4725548Y-10331476D02*
X4725548Y-10350524D01*
X4725548Y-10226714D02*
X4735071Y-10236238D01*
X4735071Y-10236238D02*
X4725548Y-10245762D01*
X4725548Y-10245762D02*
X4716024Y-10236238D01*
X4716024Y-10236238D02*
X4725548Y-10226714D01*
X4725548Y-10226714D02*
X4725548Y-10245762D01*
D12*
X2946500Y-10598000D02*
X3106500Y-10758000D01*
X3106500Y-10598000D02*
X2946500Y-10758000D01*
D11*
X3458881Y-10770524D02*
X3344595Y-10770524D01*
X3401738Y-10770524D02*
X3401738Y-10570524D01*
X3401738Y-10570524D02*
X3382690Y-10599095D01*
X3382690Y-10599095D02*
X3363643Y-10618143D01*
X3363643Y-10618143D02*
X3344595Y-10627667D01*
X3544595Y-10751476D02*
X3554119Y-10761000D01*
X3554119Y-10761000D02*
X3544595Y-10770524D01*
X3544595Y-10770524D02*
X3535071Y-10761000D01*
X3535071Y-10761000D02*
X3544595Y-10751476D01*
X3544595Y-10751476D02*
X3544595Y-10770524D01*
X3725548Y-10570524D02*
X3687452Y-10570524D01*
X3687452Y-10570524D02*
X3668405Y-10580048D01*
X3668405Y-10580048D02*
X3658881Y-10589571D01*
X3658881Y-10589571D02*
X3639833Y-10618143D01*
X3639833Y-10618143D02*
X3630309Y-10656238D01*
X3630309Y-10656238D02*
X3630309Y-10732429D01*
X3630309Y-10732429D02*
X3639833Y-10751476D01*
X3639833Y-10751476D02*
X3649357Y-10761000D01*
X3649357Y-10761000D02*
X3668405Y-10770524D01*
X3668405Y-10770524D02*
X3706500Y-10770524D01*
X3706500Y-10770524D02*
X3725548Y-10761000D01*
X3725548Y-10761000D02*
X3735071Y-10751476D01*
X3735071Y-10751476D02*
X3744595Y-10732429D01*
X3744595Y-10732429D02*
X3744595Y-10684810D01*
X3744595Y-10684810D02*
X3735071Y-10665762D01*
X3735071Y-10665762D02*
X3725548Y-10656238D01*
X3725548Y-10656238D02*
X3706500Y-10646714D01*
X3706500Y-10646714D02*
X3668405Y-10646714D01*
X3668405Y-10646714D02*
X3649357Y-10656238D01*
X3649357Y-10656238D02*
X3639833Y-10665762D01*
X3639833Y-10665762D02*
X3630309Y-10684810D01*
X3868405Y-10570524D02*
X3887452Y-10570524D01*
X3887452Y-10570524D02*
X3906500Y-10580048D01*
X3906500Y-10580048D02*
X3916024Y-10589571D01*
X3916024Y-10589571D02*
X3925548Y-10608619D01*
X3925548Y-10608619D02*
X3935071Y-10646714D01*
X3935071Y-10646714D02*
X3935071Y-10694333D01*
X3935071Y-10694333D02*
X3925548Y-10732429D01*
X3925548Y-10732429D02*
X3916024Y-10751476D01*
X3916024Y-10751476D02*
X3906500Y-10761000D01*
X3906500Y-10761000D02*
X3887452Y-10770524D01*
X3887452Y-10770524D02*
X3868405Y-10770524D01*
X3868405Y-10770524D02*
X3849357Y-10761000D01*
X3849357Y-10761000D02*
X3839833Y-10751476D01*
X3839833Y-10751476D02*
X3830309Y-10732429D01*
X3830309Y-10732429D02*
X3820786Y-10694333D01*
X3820786Y-10694333D02*
X3820786Y-10646714D01*
X3820786Y-10646714D02*
X3830309Y-10608619D01*
X3830309Y-10608619D02*
X3839833Y-10589571D01*
X3839833Y-10589571D02*
X3849357Y-10580048D01*
X3849357Y-10580048D02*
X3868405Y-10570524D01*
X4058881Y-10570524D02*
X4077929Y-10570524D01*
X4077929Y-10570524D02*
X4096976Y-10580048D01*
X4096976Y-10580048D02*
X4106500Y-10589571D01*
X4106500Y-10589571D02*
X4116024Y-10608619D01*
X4116024Y-10608619D02*
X4125548Y-10646714D01*
X4125548Y-10646714D02*
X4125548Y-10694333D01*
X4125548Y-10694333D02*
X4116024Y-10732429D01*
X4116024Y-10732429D02*
X4106500Y-10751476D01*
X4106500Y-10751476D02*
X4096976Y-10761000D01*
X4096976Y-10761000D02*
X4077929Y-10770524D01*
X4077929Y-10770524D02*
X4058881Y-10770524D01*
X4058881Y-10770524D02*
X4039833Y-10761000D01*
X4039833Y-10761000D02*
X4030309Y-10751476D01*
X4030309Y-10751476D02*
X4020786Y-10732429D01*
X4020786Y-10732429D02*
X4011262Y-10694333D01*
X4011262Y-10694333D02*
X4011262Y-10646714D01*
X4011262Y-10646714D02*
X4020786Y-10608619D01*
X4020786Y-10608619D02*
X4030309Y-10589571D01*
X4030309Y-10589571D02*
X4039833Y-10580048D01*
X4039833Y-10580048D02*
X4058881Y-10570524D01*
X4211262Y-10770524D02*
X4211262Y-10637190D01*
X4211262Y-10656238D02*
X4220786Y-10646714D01*
X4220786Y-10646714D02*
X4239833Y-10637190D01*
X4239833Y-10637190D02*
X4268405Y-10637190D01*
X4268405Y-10637190D02*
X4287452Y-10646714D01*
X4287452Y-10646714D02*
X4296976Y-10665762D01*
X4296976Y-10665762D02*
X4296976Y-10770524D01*
X4296976Y-10665762D02*
X4306500Y-10646714D01*
X4306500Y-10646714D02*
X4325548Y-10637190D01*
X4325548Y-10637190D02*
X4354119Y-10637190D01*
X4354119Y-10637190D02*
X4373167Y-10646714D01*
X4373167Y-10646714D02*
X4382691Y-10665762D01*
X4382691Y-10665762D02*
X4382691Y-10770524D01*
X4477929Y-10770524D02*
X4477929Y-10637190D01*
X4477929Y-10656238D02*
X4487452Y-10646714D01*
X4487452Y-10646714D02*
X4506500Y-10637190D01*
X4506500Y-10637190D02*
X4535072Y-10637190D01*
X4535072Y-10637190D02*
X4554119Y-10646714D01*
X4554119Y-10646714D02*
X4563643Y-10665762D01*
X4563643Y-10665762D02*
X4563643Y-10770524D01*
X4563643Y-10665762D02*
X4573167Y-10646714D01*
X4573167Y-10646714D02*
X4592214Y-10637190D01*
X4592214Y-10637190D02*
X4620786Y-10637190D01*
X4620786Y-10637190D02*
X4639833Y-10646714D01*
X4639833Y-10646714D02*
X4649357Y-10665762D01*
X4649357Y-10665762D02*
X4649357Y-10770524D01*
X5039833Y-10561000D02*
X4868405Y-10818143D01*
X5296976Y-10570524D02*
X5316024Y-10570524D01*
X5316024Y-10570524D02*
X5335072Y-10580048D01*
X5335072Y-10580048D02*
X5344595Y-10589571D01*
X5344595Y-10589571D02*
X5354119Y-10608619D01*
X5354119Y-10608619D02*
X5363643Y-10646714D01*
X5363643Y-10646714D02*
X5363643Y-10694333D01*
X5363643Y-10694333D02*
X5354119Y-10732429D01*
X5354119Y-10732429D02*
X5344595Y-10751476D01*
X5344595Y-10751476D02*
X5335072Y-10761000D01*
X5335072Y-10761000D02*
X5316024Y-10770524D01*
X5316024Y-10770524D02*
X5296976Y-10770524D01*
X5296976Y-10770524D02*
X5277929Y-10761000D01*
X5277929Y-10761000D02*
X5268405Y-10751476D01*
X5268405Y-10751476D02*
X5258881Y-10732429D01*
X5258881Y-10732429D02*
X5249357Y-10694333D01*
X5249357Y-10694333D02*
X5249357Y-10646714D01*
X5249357Y-10646714D02*
X5258881Y-10608619D01*
X5258881Y-10608619D02*
X5268405Y-10589571D01*
X5268405Y-10589571D02*
X5277929Y-10580048D01*
X5277929Y-10580048D02*
X5296976Y-10570524D01*
X5449357Y-10751476D02*
X5458881Y-10761000D01*
X5458881Y-10761000D02*
X5449357Y-10770524D01*
X5449357Y-10770524D02*
X5439834Y-10761000D01*
X5439834Y-10761000D02*
X5449357Y-10751476D01*
X5449357Y-10751476D02*
X5449357Y-10770524D01*
X5582691Y-10570524D02*
X5601738Y-10570524D01*
X5601738Y-10570524D02*
X5620786Y-10580048D01*
X5620786Y-10580048D02*
X5630310Y-10589571D01*
X5630310Y-10589571D02*
X5639833Y-10608619D01*
X5639833Y-10608619D02*
X5649357Y-10646714D01*
X5649357Y-10646714D02*
X5649357Y-10694333D01*
X5649357Y-10694333D02*
X5639833Y-10732429D01*
X5639833Y-10732429D02*
X5630310Y-10751476D01*
X5630310Y-10751476D02*
X5620786Y-10761000D01*
X5620786Y-10761000D02*
X5601738Y-10770524D01*
X5601738Y-10770524D02*
X5582691Y-10770524D01*
X5582691Y-10770524D02*
X5563643Y-10761000D01*
X5563643Y-10761000D02*
X5554119Y-10751476D01*
X5554119Y-10751476D02*
X5544595Y-10732429D01*
X5544595Y-10732429D02*
X5535072Y-10694333D01*
X5535072Y-10694333D02*
X5535072Y-10646714D01*
X5535072Y-10646714D02*
X5544595Y-10608619D01*
X5544595Y-10608619D02*
X5554119Y-10589571D01*
X5554119Y-10589571D02*
X5563643Y-10580048D01*
X5563643Y-10580048D02*
X5582691Y-10570524D01*
X5820786Y-10570524D02*
X5782691Y-10570524D01*
X5782691Y-10570524D02*
X5763643Y-10580048D01*
X5763643Y-10580048D02*
X5754119Y-10589571D01*
X5754119Y-10589571D02*
X5735072Y-10618143D01*
X5735072Y-10618143D02*
X5725548Y-10656238D01*
X5725548Y-10656238D02*
X5725548Y-10732429D01*
X5725548Y-10732429D02*
X5735072Y-10751476D01*
X5735072Y-10751476D02*
X5744595Y-10761000D01*
X5744595Y-10761000D02*
X5763643Y-10770524D01*
X5763643Y-10770524D02*
X5801738Y-10770524D01*
X5801738Y-10770524D02*
X5820786Y-10761000D01*
X5820786Y-10761000D02*
X5830310Y-10751476D01*
X5830310Y-10751476D02*
X5839833Y-10732429D01*
X5839833Y-10732429D02*
X5839833Y-10684810D01*
X5839833Y-10684810D02*
X5830310Y-10665762D01*
X5830310Y-10665762D02*
X5820786Y-10656238D01*
X5820786Y-10656238D02*
X5801738Y-10646714D01*
X5801738Y-10646714D02*
X5763643Y-10646714D01*
X5763643Y-10646714D02*
X5744595Y-10656238D01*
X5744595Y-10656238D02*
X5735072Y-10665762D01*
X5735072Y-10665762D02*
X5725548Y-10684810D01*
X5906500Y-10570524D02*
X6030310Y-10570524D01*
X6030310Y-10570524D02*
X5963643Y-10646714D01*
X5963643Y-10646714D02*
X5992214Y-10646714D01*
X5992214Y-10646714D02*
X6011262Y-10656238D01*
X6011262Y-10656238D02*
X6020786Y-10665762D01*
X6020786Y-10665762D02*
X6030310Y-10684810D01*
X6030310Y-10684810D02*
X6030310Y-10732429D01*
X6030310Y-10732429D02*
X6020786Y-10751476D01*
X6020786Y-10751476D02*
X6011262Y-10761000D01*
X6011262Y-10761000D02*
X5992214Y-10770524D01*
X5992214Y-10770524D02*
X5935072Y-10770524D01*
X5935072Y-10770524D02*
X5916024Y-10761000D01*
X5916024Y-10761000D02*
X5906500Y-10751476D01*
X6154119Y-10570524D02*
X6173167Y-10570524D01*
X6173167Y-10570524D02*
X6192214Y-10580048D01*
X6192214Y-10580048D02*
X6201738Y-10589571D01*
X6201738Y-10589571D02*
X6211262Y-10608619D01*
X6211262Y-10608619D02*
X6220786Y-10646714D01*
X6220786Y-10646714D02*
X6220786Y-10694333D01*
X6220786Y-10694333D02*
X6211262Y-10732429D01*
X6211262Y-10732429D02*
X6201738Y-10751476D01*
X6201738Y-10751476D02*
X6192214Y-10761000D01*
X6192214Y-10761000D02*
X6173167Y-10770524D01*
X6173167Y-10770524D02*
X6154119Y-10770524D01*
X6154119Y-10770524D02*
X6135072Y-10761000D01*
X6135072Y-10761000D02*
X6125548Y-10751476D01*
X6125548Y-10751476D02*
X6116024Y-10732429D01*
X6116024Y-10732429D02*
X6106500Y-10694333D01*
X6106500Y-10694333D02*
X6106500Y-10646714D01*
X6106500Y-10646714D02*
X6116024Y-10608619D01*
X6116024Y-10608619D02*
X6125548Y-10589571D01*
X6125548Y-10589571D02*
X6135072Y-10580048D01*
X6135072Y-10580048D02*
X6154119Y-10570524D01*
X6296976Y-10570524D02*
X6296976Y-10608619D01*
X6373167Y-10570524D02*
X6373167Y-10608619D01*
X6668405Y-10846714D02*
X6658881Y-10837190D01*
X6658881Y-10837190D02*
X6639834Y-10808619D01*
X6639834Y-10808619D02*
X6630310Y-10789571D01*
X6630310Y-10789571D02*
X6620786Y-10761000D01*
X6620786Y-10761000D02*
X6611262Y-10713381D01*
X6611262Y-10713381D02*
X6611262Y-10675286D01*
X6611262Y-10675286D02*
X6620786Y-10627667D01*
X6620786Y-10627667D02*
X6630310Y-10599095D01*
X6630310Y-10599095D02*
X6639834Y-10580048D01*
X6639834Y-10580048D02*
X6658881Y-10551476D01*
X6658881Y-10551476D02*
X6668405Y-10541952D01*
X6849357Y-10770524D02*
X6735072Y-10770524D01*
X6792214Y-10770524D02*
X6792214Y-10570524D01*
X6792214Y-10570524D02*
X6773167Y-10599095D01*
X6773167Y-10599095D02*
X6754119Y-10618143D01*
X6754119Y-10618143D02*
X6735072Y-10627667D01*
X7087453Y-10770524D02*
X7087453Y-10570524D01*
X7173167Y-10770524D02*
X7173167Y-10665762D01*
X7173167Y-10665762D02*
X7163643Y-10646714D01*
X7163643Y-10646714D02*
X7144596Y-10637190D01*
X7144596Y-10637190D02*
X7116024Y-10637190D01*
X7116024Y-10637190D02*
X7096976Y-10646714D01*
X7096976Y-10646714D02*
X7087453Y-10656238D01*
X7296976Y-10770524D02*
X7277929Y-10761000D01*
X7277929Y-10761000D02*
X7268405Y-10751476D01*
X7268405Y-10751476D02*
X7258881Y-10732429D01*
X7258881Y-10732429D02*
X7258881Y-10675286D01*
X7258881Y-10675286D02*
X7268405Y-10656238D01*
X7268405Y-10656238D02*
X7277929Y-10646714D01*
X7277929Y-10646714D02*
X7296976Y-10637190D01*
X7296976Y-10637190D02*
X7325548Y-10637190D01*
X7325548Y-10637190D02*
X7344596Y-10646714D01*
X7344596Y-10646714D02*
X7354119Y-10656238D01*
X7354119Y-10656238D02*
X7363643Y-10675286D01*
X7363643Y-10675286D02*
X7363643Y-10732429D01*
X7363643Y-10732429D02*
X7354119Y-10751476D01*
X7354119Y-10751476D02*
X7344596Y-10761000D01*
X7344596Y-10761000D02*
X7325548Y-10770524D01*
X7325548Y-10770524D02*
X7296976Y-10770524D01*
X7477929Y-10770524D02*
X7458881Y-10761000D01*
X7458881Y-10761000D02*
X7449357Y-10741952D01*
X7449357Y-10741952D02*
X7449357Y-10570524D01*
X7630310Y-10761000D02*
X7611262Y-10770524D01*
X7611262Y-10770524D02*
X7573167Y-10770524D01*
X7573167Y-10770524D02*
X7554119Y-10761000D01*
X7554119Y-10761000D02*
X7544596Y-10741952D01*
X7544596Y-10741952D02*
X7544596Y-10665762D01*
X7544596Y-10665762D02*
X7554119Y-10646714D01*
X7554119Y-10646714D02*
X7573167Y-10637190D01*
X7573167Y-10637190D02*
X7611262Y-10637190D01*
X7611262Y-10637190D02*
X7630310Y-10646714D01*
X7630310Y-10646714D02*
X7639834Y-10665762D01*
X7639834Y-10665762D02*
X7639834Y-10684810D01*
X7639834Y-10684810D02*
X7544596Y-10703857D01*
X7706500Y-10846714D02*
X7716024Y-10837190D01*
X7716024Y-10837190D02*
X7735072Y-10808619D01*
X7735072Y-10808619D02*
X7744596Y-10789571D01*
X7744596Y-10789571D02*
X7754119Y-10761000D01*
X7754119Y-10761000D02*
X7763643Y-10713381D01*
X7763643Y-10713381D02*
X7763643Y-10675286D01*
X7763643Y-10675286D02*
X7754119Y-10627667D01*
X7754119Y-10627667D02*
X7744596Y-10599095D01*
X7744596Y-10599095D02*
X7735072Y-10580048D01*
X7735072Y-10580048D02*
X7716024Y-10551476D01*
X7716024Y-10551476D02*
X7706500Y-10541952D01*
X8068405Y-10846714D02*
X8058881Y-10837190D01*
X8058881Y-10837190D02*
X8039834Y-10808619D01*
X8039834Y-10808619D02*
X8030310Y-10789571D01*
X8030310Y-10789571D02*
X8020786Y-10761000D01*
X8020786Y-10761000D02*
X8011262Y-10713381D01*
X8011262Y-10713381D02*
X8011262Y-10675286D01*
X8011262Y-10675286D02*
X8020786Y-10627667D01*
X8020786Y-10627667D02*
X8030310Y-10599095D01*
X8030310Y-10599095D02*
X8039834Y-10580048D01*
X8039834Y-10580048D02*
X8058881Y-10551476D01*
X8058881Y-10551476D02*
X8068405Y-10541952D01*
X8144596Y-10637190D02*
X8144596Y-10770524D01*
X8144596Y-10656238D02*
X8154119Y-10646714D01*
X8154119Y-10646714D02*
X8173167Y-10637190D01*
X8173167Y-10637190D02*
X8201738Y-10637190D01*
X8201738Y-10637190D02*
X8220786Y-10646714D01*
X8220786Y-10646714D02*
X8230310Y-10665762D01*
X8230310Y-10665762D02*
X8230310Y-10770524D01*
X8354119Y-10770524D02*
X8335072Y-10761000D01*
X8335072Y-10761000D02*
X8325548Y-10751476D01*
X8325548Y-10751476D02*
X8316024Y-10732429D01*
X8316024Y-10732429D02*
X8316024Y-10675286D01*
X8316024Y-10675286D02*
X8325548Y-10656238D01*
X8325548Y-10656238D02*
X8335072Y-10646714D01*
X8335072Y-10646714D02*
X8354119Y-10637190D01*
X8354119Y-10637190D02*
X8382691Y-10637190D01*
X8382691Y-10637190D02*
X8401739Y-10646714D01*
X8401739Y-10646714D02*
X8411262Y-10656238D01*
X8411262Y-10656238D02*
X8420786Y-10675286D01*
X8420786Y-10675286D02*
X8420786Y-10732429D01*
X8420786Y-10732429D02*
X8411262Y-10751476D01*
X8411262Y-10751476D02*
X8401739Y-10761000D01*
X8401739Y-10761000D02*
X8382691Y-10770524D01*
X8382691Y-10770524D02*
X8354119Y-10770524D01*
X8477929Y-10637190D02*
X8554119Y-10637190D01*
X8506500Y-10570524D02*
X8506500Y-10741952D01*
X8506500Y-10741952D02*
X8516024Y-10761000D01*
X8516024Y-10761000D02*
X8535072Y-10770524D01*
X8535072Y-10770524D02*
X8554119Y-10770524D01*
X8773167Y-10637190D02*
X8773167Y-10837190D01*
X8773167Y-10646714D02*
X8792215Y-10637190D01*
X8792215Y-10637190D02*
X8830310Y-10637190D01*
X8830310Y-10637190D02*
X8849358Y-10646714D01*
X8849358Y-10646714D02*
X8858881Y-10656238D01*
X8858881Y-10656238D02*
X8868405Y-10675286D01*
X8868405Y-10675286D02*
X8868405Y-10732429D01*
X8868405Y-10732429D02*
X8858881Y-10751476D01*
X8858881Y-10751476D02*
X8849358Y-10761000D01*
X8849358Y-10761000D02*
X8830310Y-10770524D01*
X8830310Y-10770524D02*
X8792215Y-10770524D01*
X8792215Y-10770524D02*
X8773167Y-10761000D01*
X8982691Y-10770524D02*
X8963643Y-10761000D01*
X8963643Y-10761000D02*
X8954120Y-10741952D01*
X8954120Y-10741952D02*
X8954120Y-10570524D01*
X9144596Y-10770524D02*
X9144596Y-10665762D01*
X9144596Y-10665762D02*
X9135072Y-10646714D01*
X9135072Y-10646714D02*
X9116024Y-10637190D01*
X9116024Y-10637190D02*
X9077929Y-10637190D01*
X9077929Y-10637190D02*
X9058881Y-10646714D01*
X9144596Y-10761000D02*
X9125548Y-10770524D01*
X9125548Y-10770524D02*
X9077929Y-10770524D01*
X9077929Y-10770524D02*
X9058881Y-10761000D01*
X9058881Y-10761000D02*
X9049358Y-10741952D01*
X9049358Y-10741952D02*
X9049358Y-10722905D01*
X9049358Y-10722905D02*
X9058881Y-10703857D01*
X9058881Y-10703857D02*
X9077929Y-10694333D01*
X9077929Y-10694333D02*
X9125548Y-10694333D01*
X9125548Y-10694333D02*
X9144596Y-10684810D01*
X9211262Y-10637190D02*
X9287453Y-10637190D01*
X9239834Y-10570524D02*
X9239834Y-10741952D01*
X9239834Y-10741952D02*
X9249358Y-10761000D01*
X9249358Y-10761000D02*
X9268405Y-10770524D01*
X9268405Y-10770524D02*
X9287453Y-10770524D01*
X9430310Y-10761000D02*
X9411262Y-10770524D01*
X9411262Y-10770524D02*
X9373167Y-10770524D01*
X9373167Y-10770524D02*
X9354120Y-10761000D01*
X9354120Y-10761000D02*
X9344596Y-10741952D01*
X9344596Y-10741952D02*
X9344596Y-10665762D01*
X9344596Y-10665762D02*
X9354120Y-10646714D01*
X9354120Y-10646714D02*
X9373167Y-10637190D01*
X9373167Y-10637190D02*
X9411262Y-10637190D01*
X9411262Y-10637190D02*
X9430310Y-10646714D01*
X9430310Y-10646714D02*
X9439834Y-10665762D01*
X9439834Y-10665762D02*
X9439834Y-10684810D01*
X9439834Y-10684810D02*
X9344596Y-10703857D01*
X9611262Y-10770524D02*
X9611262Y-10570524D01*
X9611262Y-10761000D02*
X9592215Y-10770524D01*
X9592215Y-10770524D02*
X9554120Y-10770524D01*
X9554120Y-10770524D02*
X9535072Y-10761000D01*
X9535072Y-10761000D02*
X9525548Y-10751476D01*
X9525548Y-10751476D02*
X9516024Y-10732429D01*
X9516024Y-10732429D02*
X9516024Y-10675286D01*
X9516024Y-10675286D02*
X9525548Y-10656238D01*
X9525548Y-10656238D02*
X9535072Y-10646714D01*
X9535072Y-10646714D02*
X9554120Y-10637190D01*
X9554120Y-10637190D02*
X9592215Y-10637190D01*
X9592215Y-10637190D02*
X9611262Y-10646714D01*
X9687453Y-10846714D02*
X9696977Y-10837190D01*
X9696977Y-10837190D02*
X9716024Y-10808619D01*
X9716024Y-10808619D02*
X9725548Y-10789571D01*
X9725548Y-10789571D02*
X9735072Y-10761000D01*
X9735072Y-10761000D02*
X9744596Y-10713381D01*
X9744596Y-10713381D02*
X9744596Y-10675286D01*
X9744596Y-10675286D02*
X9735072Y-10627667D01*
X9735072Y-10627667D02*
X9725548Y-10599095D01*
X9725548Y-10599095D02*
X9716024Y-10580048D01*
X9716024Y-10580048D02*
X9696977Y-10551476D01*
X9696977Y-10551476D02*
X9687453Y-10541952D01*
M02*
