%TF.GenerationSoftware,KiCad,Pcbnew,7.0.2*%
%TF.CreationDate,2024-03-01T12:34:03+01:00*%
%TF.ProjectId,piec_oszust,70696563-5f6f-4737-9a75-73742e6b6963,rev?*%
%TF.SameCoordinates,Original*%
%TF.FileFunction,Copper,L2,Bot*%
%TF.FilePolarity,Positive*%
%FSLAX46Y46*%
G04 Gerber Fmt 4.6, Leading zero omitted, Abs format (unit mm)*
G04 Created by KiCad (PCBNEW 7.0.2) date 2024-03-01 12:34:03*
%MOMM*%
%LPD*%
G01*
G04 APERTURE LIST*
%TA.AperFunction,ComponentPad*%
%ADD10R,1.600000X1.600000*%
%TD*%
%TA.AperFunction,ComponentPad*%
%ADD11O,1.600000X1.600000*%
%TD*%
%TA.AperFunction,ComponentPad*%
%ADD12C,1.400000*%
%TD*%
%TA.AperFunction,ComponentPad*%
%ADD13O,1.400000X1.400000*%
%TD*%
%TA.AperFunction,ComponentPad*%
%ADD14R,1.700000X1.700000*%
%TD*%
%TA.AperFunction,ComponentPad*%
%ADD15O,1.700000X1.700000*%
%TD*%
%TA.AperFunction,ComponentPad*%
%ADD16R,1.905000X2.000000*%
%TD*%
%TA.AperFunction,ComponentPad*%
%ADD17O,1.905000X2.000000*%
%TD*%
%TA.AperFunction,ComponentPad*%
%ADD18C,1.600000*%
%TD*%
%TA.AperFunction,ComponentPad*%
%ADD19R,2.000000X4.000000*%
%TD*%
%TA.AperFunction,ComponentPad*%
%ADD20O,2.000000X3.300000*%
%TD*%
%TA.AperFunction,ComponentPad*%
%ADD21O,3.500000X2.000000*%
%TD*%
%TA.AperFunction,ComponentPad*%
%ADD22R,1.500000X1.050000*%
%TD*%
%TA.AperFunction,ComponentPad*%
%ADD23O,1.500000X1.050000*%
%TD*%
%TA.AperFunction,ComponentPad*%
%ADD24R,1.050000X1.500000*%
%TD*%
%TA.AperFunction,ComponentPad*%
%ADD25O,1.050000X1.500000*%
%TD*%
%TA.AperFunction,Conductor*%
%ADD26C,0.500000*%
%TD*%
G04 APERTURE END LIST*
D10*
%TO.P,A1,1,D1/TX*%
%TO.N,unconnected-(A1-D1{slash}TX-Pad1)*%
X67310000Y-91440000D03*
D11*
%TO.P,A1,2,D0/RX*%
%TO.N,unconnected-(A1-D0{slash}RX-Pad2)*%
X67310000Y-88900000D03*
%TO.P,A1,3,~{RESET}*%
%TO.N,unconnected-(A1-~{RESET}-Pad3)*%
X67310000Y-86360000D03*
%TO.P,A1,4,GND*%
%TO.N,GND*%
X67310000Y-83820000D03*
%TO.P,A1,5,D2*%
%TO.N,unconnected-(A1-D2-Pad5)*%
X67310000Y-81280000D03*
%TO.P,A1,6,D3*%
%TO.N,unconnected-(A1-D3-Pad6)*%
X67310000Y-78740000D03*
%TO.P,A1,7,D4*%
%TO.N,unconnected-(A1-D4-Pad7)*%
X67310000Y-76200000D03*
%TO.P,A1,8,D5*%
%TO.N,unconnected-(A1-D5-Pad8)*%
X67310000Y-73660000D03*
%TO.P,A1,9,D6*%
%TO.N,unconnected-(A1-D6-Pad9)*%
X67310000Y-71120000D03*
%TO.P,A1,10,D7*%
%TO.N,unconnected-(A1-D7-Pad10)*%
X67310000Y-68580000D03*
%TO.P,A1,11,D8*%
%TO.N,unconnected-(A1-D8-Pad11)*%
X67310000Y-66040000D03*
%TO.P,A1,12,D9*%
%TO.N,unconnected-(A1-D9-Pad12)*%
X67310000Y-63500000D03*
%TO.P,A1,13,D10*%
%TO.N,D10*%
X67310000Y-60960000D03*
%TO.P,A1,14,D11*%
%TO.N,unconnected-(A1-D11-Pad14)*%
X67310000Y-58420000D03*
%TO.P,A1,15,D12*%
%TO.N,unconnected-(A1-D12-Pad15)*%
X67310000Y-55880000D03*
%TO.P,A1,16,D13*%
%TO.N,unconnected-(A1-D13-Pad16)*%
X52070000Y-55880000D03*
%TO.P,A1,17,3V3*%
%TO.N,unconnected-(A1-3V3-Pad17)*%
X52070000Y-58420000D03*
%TO.P,A1,18,AREF*%
%TO.N,+5V*%
X52070000Y-60960000D03*
%TO.P,A1,19,A0*%
%TO.N,unconnected-(A1-A0-Pad19)*%
X52070000Y-63500000D03*
%TO.P,A1,20,A1*%
%TO.N,unconnected-(A1-A1-Pad20)*%
X52070000Y-66040000D03*
%TO.P,A1,21,A2*%
%TO.N,unconnected-(A1-A2-Pad21)*%
X52070000Y-68580000D03*
%TO.P,A1,22,A3*%
%TO.N,unconnected-(A1-A3-Pad22)*%
X52070000Y-71120000D03*
%TO.P,A1,23,A4*%
%TO.N,unconnected-(A1-A4-Pad23)*%
X52070000Y-73660000D03*
%TO.P,A1,24,A5*%
%TO.N,unconnected-(A1-A5-Pad24)*%
X52070000Y-76200000D03*
%TO.P,A1,25,A6*%
%TO.N,unconnected-(A1-A6-Pad25)*%
X52070000Y-78740000D03*
%TO.P,A1,26,A7*%
%TO.N,unconnected-(A1-A7-Pad26)*%
X52070000Y-81280000D03*
%TO.P,A1,27,+5V*%
%TO.N,unconnected-(A1-+5V-Pad27)*%
X52070000Y-83820000D03*
%TO.P,A1,28,~{RESET}*%
%TO.N,unconnected-(A1-~{RESET}-Pad28)*%
X52070000Y-86360000D03*
%TO.P,A1,29,GND*%
%TO.N,GND*%
X52070000Y-88900000D03*
%TO.P,A1,30,VIN*%
%TO.N,+5V*%
X52070000Y-91440000D03*
%TD*%
D12*
%TO.P,R1,1*%
%TO.N,D10*%
X92710000Y-60960000D03*
D13*
%TO.P,R1,2*%
%TO.N,Net-(Q1-B)*%
X92710000Y-68580000D03*
%TD*%
D14*
%TO.P,J3,1,Pin_1*%
%TO.N,Net-(J3-Pin_1)*%
X71120000Y-53340000D03*
D15*
%TO.P,J3,2,Pin_2*%
%TO.N,GND*%
X71120000Y-50800000D03*
%TD*%
D16*
%TO.P,U2,1,VI*%
%TO.N,+12V*%
X39370000Y-66040000D03*
D17*
%TO.P,U2,2,GND*%
%TO.N,GND*%
X41910000Y-66040000D03*
%TO.P,U2,3,VO*%
%TO.N,+8V*%
X44450000Y-66040000D03*
%TD*%
D14*
%TO.P,J2,1,Pin_1*%
%TO.N,PWM_OUT_100_1*%
X95250000Y-74295000D03*
D15*
%TO.P,J2,2,Pin_2*%
%TO.N,GND*%
X92710000Y-74295000D03*
%TD*%
D12*
%TO.P,R7,1*%
%TO.N,GND*%
X93980000Y-58420000D03*
D13*
%TO.P,R7,2*%
%TO.N,Net-(U3A--)*%
X86360000Y-58420000D03*
%TD*%
D14*
%TO.P,J4,1,Pin_1*%
%TO.N,PWM_OUT_100_2*%
X87630000Y-49530000D03*
D15*
%TO.P,J4,2,Pin_2*%
%TO.N,GND*%
X87630000Y-52070000D03*
%TD*%
D12*
%TO.P,R3,1*%
%TO.N,PWM_OUT_100_1*%
X87630000Y-80010000D03*
D13*
%TO.P,R3,2*%
%TO.N,+8V*%
X80010000Y-80010000D03*
%TD*%
D12*
%TO.P,R4,1*%
%TO.N,PWM_OUT_100_1*%
X80010000Y-82550000D03*
D13*
%TO.P,R4,2*%
X87630000Y-82550000D03*
%TD*%
D12*
%TO.P,R9,1*%
%TO.N,GND*%
X72390000Y-73660000D03*
D13*
%TO.P,R9,2*%
%TO.N,Net-(R8-Pad1)*%
X80010000Y-73660000D03*
%TD*%
D12*
%TO.P,R8,1*%
%TO.N,Net-(R8-Pad1)*%
X80010000Y-71120000D03*
D13*
%TO.P,R8,2*%
%TO.N,Net-(U3B--)*%
X72390000Y-71120000D03*
%TD*%
D10*
%TO.P,C1,1*%
%TO.N,+5V*%
X38237349Y-93980000D03*
D18*
%TO.P,C1,2*%
%TO.N,GND*%
X43237349Y-93980000D03*
%TD*%
D10*
%TO.P,U3,1*%
%TO.N,Net-(R5-Pad2)*%
X88900000Y-60960000D03*
D11*
%TO.P,U3,2,-*%
%TO.N,Net-(U3A--)*%
X86360000Y-60960000D03*
%TO.P,U3,3,+*%
%TO.N,D10*%
X83820000Y-60960000D03*
%TO.P,U3,4,V+*%
%TO.N,+8V*%
X81280000Y-60960000D03*
%TO.P,U3,5,+*%
%TO.N,Net-(J3-Pin_1)*%
X78740000Y-60960000D03*
%TO.P,U3,6,-*%
%TO.N,Net-(U3B--)*%
X76200000Y-60960000D03*
%TO.P,U3,7*%
X73660000Y-60960000D03*
%TO.P,U3,8*%
%TO.N,unconnected-(U3-Pad8)*%
X73660000Y-68580000D03*
%TO.P,U3,9,-*%
%TO.N,unconnected-(U3C---Pad9)*%
X76200000Y-68580000D03*
%TO.P,U3,10,+*%
%TO.N,unconnected-(U3C-+-Pad10)*%
X78740000Y-68580000D03*
%TO.P,U3,11,V-*%
%TO.N,GND*%
X81280000Y-68580000D03*
%TO.P,U3,12,+*%
%TO.N,unconnected-(U3D-+-Pad12)*%
X83820000Y-68580000D03*
%TO.P,U3,13,-*%
%TO.N,unconnected-(U3D---Pad13)*%
X86360000Y-68580000D03*
%TO.P,U3,14*%
%TO.N,unconnected-(U3-Pad14)*%
X88900000Y-68580000D03*
%TD*%
D12*
%TO.P,R2,1*%
%TO.N,Net-(Q1-C)*%
X87630000Y-77470000D03*
D13*
%TO.P,R2,2*%
%TO.N,+8V*%
X80010000Y-77470000D03*
%TD*%
D10*
%TO.P,C2,1*%
%TO.N,+8V*%
X44312651Y-57150000D03*
D18*
%TO.P,C2,2*%
%TO.N,GND*%
X39312651Y-57150000D03*
%TD*%
D19*
%TO.P,J1,1*%
%TO.N,+12V*%
X45720000Y-75620000D03*
D20*
%TO.P,J1,2*%
%TO.N,GND*%
X39720000Y-75620000D03*
D21*
%TO.P,J1,MP*%
%TO.N,N/C*%
X38720000Y-71120000D03*
X38720000Y-80120000D03*
%TD*%
D12*
%TO.P,R6,1*%
%TO.N,Net-(U3A--)*%
X83820000Y-58420000D03*
D13*
%TO.P,R6,2*%
%TO.N,Net-(R5-Pad2)*%
X83820000Y-50800000D03*
%TD*%
D16*
%TO.P,U1,1,VI*%
%TO.N,+12V*%
X44450000Y-85090000D03*
D17*
%TO.P,U1,2,GND*%
%TO.N,GND*%
X41910000Y-85090000D03*
%TO.P,U1,3,VO*%
%TO.N,+5V*%
X39370000Y-85090000D03*
%TD*%
D22*
%TO.P,Q2,1,C*%
%TO.N,PWM_OUT_100_1*%
X93070000Y-81280000D03*
D23*
%TO.P,Q2,2,B*%
%TO.N,Net-(Q1-C)*%
X93070000Y-80010000D03*
%TO.P,Q2,3,E*%
%TO.N,GND*%
X93070000Y-78740000D03*
%TD*%
D12*
%TO.P,R5,1*%
%TO.N,PWM_OUT_100_2*%
X93980000Y-55880000D03*
D13*
%TO.P,R5,2*%
%TO.N,Net-(R5-Pad2)*%
X86360000Y-55880000D03*
%TD*%
D24*
%TO.P,Q1,1,C*%
%TO.N,Net-(Q1-C)*%
X85090000Y-72390000D03*
D25*
%TO.P,Q1,2,B*%
%TO.N,Net-(Q1-B)*%
X86360000Y-72390000D03*
%TO.P,Q1,3,E*%
%TO.N,GND*%
X87630000Y-72390000D03*
%TD*%
D26*
%TO.N,GND*%
X86995000Y-52705000D02*
X87630000Y-52070000D01*
%TO.N,Net-(U3B--)*%
X72390000Y-66675000D02*
X72390000Y-71120000D01*
X73660000Y-65405000D02*
X72390000Y-66675000D01*
X73660000Y-60960000D02*
X73660000Y-65405000D01*
%TD*%
M02*
