%TF.GenerationSoftware,KiCad,Pcbnew,7.0.2*%
%TF.CreationDate,2024-03-01T12:34:03+01:00*%
%TF.ProjectId,piec_oszust,70696563-5f6f-4737-9a75-73742e6b6963,rev?*%
%TF.SameCoordinates,Original*%
%TF.FileFunction,Legend,Top*%
%TF.FilePolarity,Positive*%
%FSLAX46Y46*%
G04 Gerber Fmt 4.6, Leading zero omitted, Abs format (unit mm)*
G04 Created by KiCad (PCBNEW 7.0.2) date 2024-03-01 12:34:03*
%MOMM*%
%LPD*%
G01*
G04 APERTURE LIST*
%ADD10C,0.250000*%
%ADD11C,0.150000*%
%ADD12C,0.120000*%
G04 APERTURE END LIST*
D10*
X74136190Y-93735238D02*
X74136190Y-91735238D01*
X74136190Y-91735238D02*
X74898095Y-91735238D01*
X74898095Y-91735238D02*
X75088571Y-91830476D01*
X75088571Y-91830476D02*
X75183809Y-91925714D01*
X75183809Y-91925714D02*
X75279047Y-92116190D01*
X75279047Y-92116190D02*
X75279047Y-92401904D01*
X75279047Y-92401904D02*
X75183809Y-92592380D01*
X75183809Y-92592380D02*
X75088571Y-92687619D01*
X75088571Y-92687619D02*
X74898095Y-92782857D01*
X74898095Y-92782857D02*
X74136190Y-92782857D01*
X76136190Y-93735238D02*
X76136190Y-91735238D01*
X77088571Y-92687619D02*
X77755238Y-92687619D01*
X78040952Y-93735238D02*
X77088571Y-93735238D01*
X77088571Y-93735238D02*
X77088571Y-91735238D01*
X77088571Y-91735238D02*
X78040952Y-91735238D01*
X80040952Y-93544761D02*
X79945714Y-93640000D01*
X79945714Y-93640000D02*
X79660000Y-93735238D01*
X79660000Y-93735238D02*
X79469524Y-93735238D01*
X79469524Y-93735238D02*
X79183809Y-93640000D01*
X79183809Y-93640000D02*
X78993333Y-93449523D01*
X78993333Y-93449523D02*
X78898095Y-93259047D01*
X78898095Y-93259047D02*
X78802857Y-92878095D01*
X78802857Y-92878095D02*
X78802857Y-92592380D01*
X78802857Y-92592380D02*
X78898095Y-92211428D01*
X78898095Y-92211428D02*
X78993333Y-92020952D01*
X78993333Y-92020952D02*
X79183809Y-91830476D01*
X79183809Y-91830476D02*
X79469524Y-91735238D01*
X79469524Y-91735238D02*
X79660000Y-91735238D01*
X79660000Y-91735238D02*
X79945714Y-91830476D01*
X79945714Y-91830476D02*
X80040952Y-91925714D01*
X82136191Y-91735238D02*
X83279048Y-91735238D01*
X82707619Y-93735238D02*
X82707619Y-91735238D01*
X83945715Y-92687619D02*
X84612382Y-92687619D01*
X84898096Y-93735238D02*
X83945715Y-93735238D01*
X83945715Y-93735238D02*
X83945715Y-91735238D01*
X83945715Y-91735238D02*
X84898096Y-91735238D01*
X85660001Y-93640000D02*
X85945715Y-93735238D01*
X85945715Y-93735238D02*
X86421906Y-93735238D01*
X86421906Y-93735238D02*
X86612382Y-93640000D01*
X86612382Y-93640000D02*
X86707620Y-93544761D01*
X86707620Y-93544761D02*
X86802858Y-93354285D01*
X86802858Y-93354285D02*
X86802858Y-93163809D01*
X86802858Y-93163809D02*
X86707620Y-92973333D01*
X86707620Y-92973333D02*
X86612382Y-92878095D01*
X86612382Y-92878095D02*
X86421906Y-92782857D01*
X86421906Y-92782857D02*
X86040953Y-92687619D01*
X86040953Y-92687619D02*
X85850477Y-92592380D01*
X85850477Y-92592380D02*
X85755239Y-92497142D01*
X85755239Y-92497142D02*
X85660001Y-92306666D01*
X85660001Y-92306666D02*
X85660001Y-92116190D01*
X85660001Y-92116190D02*
X85755239Y-91925714D01*
X85755239Y-91925714D02*
X85850477Y-91830476D01*
X85850477Y-91830476D02*
X86040953Y-91735238D01*
X86040953Y-91735238D02*
X86517144Y-91735238D01*
X86517144Y-91735238D02*
X86802858Y-91830476D01*
X87374287Y-91735238D02*
X88517144Y-91735238D01*
X87945715Y-93735238D02*
X87945715Y-91735238D01*
X90612383Y-91925714D02*
X90707621Y-91830476D01*
X90707621Y-91830476D02*
X90898097Y-91735238D01*
X90898097Y-91735238D02*
X91374288Y-91735238D01*
X91374288Y-91735238D02*
X91564764Y-91830476D01*
X91564764Y-91830476D02*
X91660002Y-91925714D01*
X91660002Y-91925714D02*
X91755240Y-92116190D01*
X91755240Y-92116190D02*
X91755240Y-92306666D01*
X91755240Y-92306666D02*
X91660002Y-92592380D01*
X91660002Y-92592380D02*
X90517145Y-93735238D01*
X90517145Y-93735238D02*
X91755240Y-93735238D01*
X92993335Y-91735238D02*
X93183812Y-91735238D01*
X93183812Y-91735238D02*
X93374288Y-91830476D01*
X93374288Y-91830476D02*
X93469526Y-91925714D01*
X93469526Y-91925714D02*
X93564764Y-92116190D01*
X93564764Y-92116190D02*
X93660002Y-92497142D01*
X93660002Y-92497142D02*
X93660002Y-92973333D01*
X93660002Y-92973333D02*
X93564764Y-93354285D01*
X93564764Y-93354285D02*
X93469526Y-93544761D01*
X93469526Y-93544761D02*
X93374288Y-93640000D01*
X93374288Y-93640000D02*
X93183812Y-93735238D01*
X93183812Y-93735238D02*
X92993335Y-93735238D01*
X92993335Y-93735238D02*
X92802859Y-93640000D01*
X92802859Y-93640000D02*
X92707621Y-93544761D01*
X92707621Y-93544761D02*
X92612383Y-93354285D01*
X92612383Y-93354285D02*
X92517145Y-92973333D01*
X92517145Y-92973333D02*
X92517145Y-92497142D01*
X92517145Y-92497142D02*
X92612383Y-92116190D01*
X92612383Y-92116190D02*
X92707621Y-91925714D01*
X92707621Y-91925714D02*
X92802859Y-91830476D01*
X92802859Y-91830476D02*
X92993335Y-91735238D01*
X94421907Y-91925714D02*
X94517145Y-91830476D01*
X94517145Y-91830476D02*
X94707621Y-91735238D01*
X94707621Y-91735238D02*
X95183812Y-91735238D01*
X95183812Y-91735238D02*
X95374288Y-91830476D01*
X95374288Y-91830476D02*
X95469526Y-91925714D01*
X95469526Y-91925714D02*
X95564764Y-92116190D01*
X95564764Y-92116190D02*
X95564764Y-92306666D01*
X95564764Y-92306666D02*
X95469526Y-92592380D01*
X95469526Y-92592380D02*
X94326669Y-93735238D01*
X94326669Y-93735238D02*
X95564764Y-93735238D01*
X97279050Y-92401904D02*
X97279050Y-93735238D01*
X96802859Y-91640000D02*
X96326669Y-93068571D01*
X96326669Y-93068571D02*
X97564764Y-93068571D01*
D11*
%TO.C,A1*%
X58975714Y-96696904D02*
X59451904Y-96696904D01*
X58880476Y-96982619D02*
X59213809Y-95982619D01*
X59213809Y-95982619D02*
X59547142Y-96982619D01*
X60404285Y-96982619D02*
X59832857Y-96982619D01*
X60118571Y-96982619D02*
X60118571Y-95982619D01*
X60118571Y-95982619D02*
X60023333Y-96125476D01*
X60023333Y-96125476D02*
X59928095Y-96220714D01*
X59928095Y-96220714D02*
X59832857Y-96268333D01*
X60951904Y-56417380D02*
X60951904Y-55607857D01*
X60951904Y-55607857D02*
X60904285Y-55512619D01*
X60904285Y-55512619D02*
X60856666Y-55465000D01*
X60856666Y-55465000D02*
X60761428Y-55417380D01*
X60761428Y-55417380D02*
X60570952Y-55417380D01*
X60570952Y-55417380D02*
X60475714Y-55465000D01*
X60475714Y-55465000D02*
X60428095Y-55512619D01*
X60428095Y-55512619D02*
X60380476Y-55607857D01*
X60380476Y-55607857D02*
X60380476Y-56417380D01*
X59951904Y-55465000D02*
X59809047Y-55417380D01*
X59809047Y-55417380D02*
X59570952Y-55417380D01*
X59570952Y-55417380D02*
X59475714Y-55465000D01*
X59475714Y-55465000D02*
X59428095Y-55512619D01*
X59428095Y-55512619D02*
X59380476Y-55607857D01*
X59380476Y-55607857D02*
X59380476Y-55703095D01*
X59380476Y-55703095D02*
X59428095Y-55798333D01*
X59428095Y-55798333D02*
X59475714Y-55845952D01*
X59475714Y-55845952D02*
X59570952Y-55893571D01*
X59570952Y-55893571D02*
X59761428Y-55941190D01*
X59761428Y-55941190D02*
X59856666Y-55988809D01*
X59856666Y-55988809D02*
X59904285Y-56036428D01*
X59904285Y-56036428D02*
X59951904Y-56131666D01*
X59951904Y-56131666D02*
X59951904Y-56226904D01*
X59951904Y-56226904D02*
X59904285Y-56322142D01*
X59904285Y-56322142D02*
X59856666Y-56369761D01*
X59856666Y-56369761D02*
X59761428Y-56417380D01*
X59761428Y-56417380D02*
X59523333Y-56417380D01*
X59523333Y-56417380D02*
X59380476Y-56369761D01*
X58618571Y-55941190D02*
X58475714Y-55893571D01*
X58475714Y-55893571D02*
X58428095Y-55845952D01*
X58428095Y-55845952D02*
X58380476Y-55750714D01*
X58380476Y-55750714D02*
X58380476Y-55607857D01*
X58380476Y-55607857D02*
X58428095Y-55512619D01*
X58428095Y-55512619D02*
X58475714Y-55465000D01*
X58475714Y-55465000D02*
X58570952Y-55417380D01*
X58570952Y-55417380D02*
X58951904Y-55417380D01*
X58951904Y-55417380D02*
X58951904Y-56417380D01*
X58951904Y-56417380D02*
X58618571Y-56417380D01*
X58618571Y-56417380D02*
X58523333Y-56369761D01*
X58523333Y-56369761D02*
X58475714Y-56322142D01*
X58475714Y-56322142D02*
X58428095Y-56226904D01*
X58428095Y-56226904D02*
X58428095Y-56131666D01*
X58428095Y-56131666D02*
X58475714Y-56036428D01*
X58475714Y-56036428D02*
X58523333Y-55988809D01*
X58523333Y-55988809D02*
X58618571Y-55941190D01*
X58618571Y-55941190D02*
X58951904Y-55941190D01*
%TO.C,R1*%
X95092619Y-64936666D02*
X94616428Y-65269999D01*
X95092619Y-65508094D02*
X94092619Y-65508094D01*
X94092619Y-65508094D02*
X94092619Y-65127142D01*
X94092619Y-65127142D02*
X94140238Y-65031904D01*
X94140238Y-65031904D02*
X94187857Y-64984285D01*
X94187857Y-64984285D02*
X94283095Y-64936666D01*
X94283095Y-64936666D02*
X94425952Y-64936666D01*
X94425952Y-64936666D02*
X94521190Y-64984285D01*
X94521190Y-64984285D02*
X94568809Y-65031904D01*
X94568809Y-65031904D02*
X94616428Y-65127142D01*
X94616428Y-65127142D02*
X94616428Y-65508094D01*
X95092619Y-63984285D02*
X95092619Y-64555713D01*
X95092619Y-64269999D02*
X94092619Y-64269999D01*
X94092619Y-64269999D02*
X94235476Y-64365237D01*
X94235476Y-64365237D02*
X94330714Y-64460475D01*
X94330714Y-64460475D02*
X94378333Y-64555713D01*
%TO.C,J3*%
X70786666Y-55572619D02*
X70786666Y-56286904D01*
X70786666Y-56286904D02*
X70739047Y-56429761D01*
X70739047Y-56429761D02*
X70643809Y-56525000D01*
X70643809Y-56525000D02*
X70500952Y-56572619D01*
X70500952Y-56572619D02*
X70405714Y-56572619D01*
X71167619Y-55572619D02*
X71786666Y-55572619D01*
X71786666Y-55572619D02*
X71453333Y-55953571D01*
X71453333Y-55953571D02*
X71596190Y-55953571D01*
X71596190Y-55953571D02*
X71691428Y-56001190D01*
X71691428Y-56001190D02*
X71739047Y-56048809D01*
X71739047Y-56048809D02*
X71786666Y-56144047D01*
X71786666Y-56144047D02*
X71786666Y-56382142D01*
X71786666Y-56382142D02*
X71739047Y-56477380D01*
X71739047Y-56477380D02*
X71691428Y-56525000D01*
X71691428Y-56525000D02*
X71596190Y-56572619D01*
X71596190Y-56572619D02*
X71310476Y-56572619D01*
X71310476Y-56572619D02*
X71215238Y-56525000D01*
X71215238Y-56525000D02*
X71167619Y-56477380D01*
%TO.C,U2*%
X41148095Y-61232619D02*
X41148095Y-62042142D01*
X41148095Y-62042142D02*
X41195714Y-62137380D01*
X41195714Y-62137380D02*
X41243333Y-62185000D01*
X41243333Y-62185000D02*
X41338571Y-62232619D01*
X41338571Y-62232619D02*
X41529047Y-62232619D01*
X41529047Y-62232619D02*
X41624285Y-62185000D01*
X41624285Y-62185000D02*
X41671904Y-62137380D01*
X41671904Y-62137380D02*
X41719523Y-62042142D01*
X41719523Y-62042142D02*
X41719523Y-61232619D01*
X42148095Y-61327857D02*
X42195714Y-61280238D01*
X42195714Y-61280238D02*
X42290952Y-61232619D01*
X42290952Y-61232619D02*
X42529047Y-61232619D01*
X42529047Y-61232619D02*
X42624285Y-61280238D01*
X42624285Y-61280238D02*
X42671904Y-61327857D01*
X42671904Y-61327857D02*
X42719523Y-61423095D01*
X42719523Y-61423095D02*
X42719523Y-61518333D01*
X42719523Y-61518333D02*
X42671904Y-61661190D01*
X42671904Y-61661190D02*
X42100476Y-62232619D01*
X42100476Y-62232619D02*
X42719523Y-62232619D01*
%TO.C,J2*%
X97482619Y-74628333D02*
X98196904Y-74628333D01*
X98196904Y-74628333D02*
X98339761Y-74675952D01*
X98339761Y-74675952D02*
X98435000Y-74771190D01*
X98435000Y-74771190D02*
X98482619Y-74914047D01*
X98482619Y-74914047D02*
X98482619Y-75009285D01*
X97577857Y-74199761D02*
X97530238Y-74152142D01*
X97530238Y-74152142D02*
X97482619Y-74056904D01*
X97482619Y-74056904D02*
X97482619Y-73818809D01*
X97482619Y-73818809D02*
X97530238Y-73723571D01*
X97530238Y-73723571D02*
X97577857Y-73675952D01*
X97577857Y-73675952D02*
X97673095Y-73628333D01*
X97673095Y-73628333D02*
X97768333Y-73628333D01*
X97768333Y-73628333D02*
X97911190Y-73675952D01*
X97911190Y-73675952D02*
X98482619Y-74247380D01*
X98482619Y-74247380D02*
X98482619Y-73628333D01*
%TO.C,R7*%
X95718333Y-58882619D02*
X95385000Y-58406428D01*
X95146905Y-58882619D02*
X95146905Y-57882619D01*
X95146905Y-57882619D02*
X95527857Y-57882619D01*
X95527857Y-57882619D02*
X95623095Y-57930238D01*
X95623095Y-57930238D02*
X95670714Y-57977857D01*
X95670714Y-57977857D02*
X95718333Y-58073095D01*
X95718333Y-58073095D02*
X95718333Y-58215952D01*
X95718333Y-58215952D02*
X95670714Y-58311190D01*
X95670714Y-58311190D02*
X95623095Y-58358809D01*
X95623095Y-58358809D02*
X95527857Y-58406428D01*
X95527857Y-58406428D02*
X95146905Y-58406428D01*
X96051667Y-57882619D02*
X96718333Y-57882619D01*
X96718333Y-57882619D02*
X96289762Y-58882619D01*
%TO.C,J4*%
X87296666Y-46222619D02*
X87296666Y-46936904D01*
X87296666Y-46936904D02*
X87249047Y-47079761D01*
X87249047Y-47079761D02*
X87153809Y-47175000D01*
X87153809Y-47175000D02*
X87010952Y-47222619D01*
X87010952Y-47222619D02*
X86915714Y-47222619D01*
X88201428Y-46555952D02*
X88201428Y-47222619D01*
X87963333Y-46175000D02*
X87725238Y-46889285D01*
X87725238Y-46889285D02*
X88344285Y-46889285D01*
%TO.C,R3*%
X83653333Y-80472619D02*
X83320000Y-79996428D01*
X83081905Y-80472619D02*
X83081905Y-79472619D01*
X83081905Y-79472619D02*
X83462857Y-79472619D01*
X83462857Y-79472619D02*
X83558095Y-79520238D01*
X83558095Y-79520238D02*
X83605714Y-79567857D01*
X83605714Y-79567857D02*
X83653333Y-79663095D01*
X83653333Y-79663095D02*
X83653333Y-79805952D01*
X83653333Y-79805952D02*
X83605714Y-79901190D01*
X83605714Y-79901190D02*
X83558095Y-79948809D01*
X83558095Y-79948809D02*
X83462857Y-79996428D01*
X83462857Y-79996428D02*
X83081905Y-79996428D01*
X83986667Y-79472619D02*
X84605714Y-79472619D01*
X84605714Y-79472619D02*
X84272381Y-79853571D01*
X84272381Y-79853571D02*
X84415238Y-79853571D01*
X84415238Y-79853571D02*
X84510476Y-79901190D01*
X84510476Y-79901190D02*
X84558095Y-79948809D01*
X84558095Y-79948809D02*
X84605714Y-80044047D01*
X84605714Y-80044047D02*
X84605714Y-80282142D01*
X84605714Y-80282142D02*
X84558095Y-80377380D01*
X84558095Y-80377380D02*
X84510476Y-80425000D01*
X84510476Y-80425000D02*
X84415238Y-80472619D01*
X84415238Y-80472619D02*
X84129524Y-80472619D01*
X84129524Y-80472619D02*
X84034286Y-80425000D01*
X84034286Y-80425000D02*
X83986667Y-80377380D01*
%TO.C,R4*%
X83653333Y-83012619D02*
X83320000Y-82536428D01*
X83081905Y-83012619D02*
X83081905Y-82012619D01*
X83081905Y-82012619D02*
X83462857Y-82012619D01*
X83462857Y-82012619D02*
X83558095Y-82060238D01*
X83558095Y-82060238D02*
X83605714Y-82107857D01*
X83605714Y-82107857D02*
X83653333Y-82203095D01*
X83653333Y-82203095D02*
X83653333Y-82345952D01*
X83653333Y-82345952D02*
X83605714Y-82441190D01*
X83605714Y-82441190D02*
X83558095Y-82488809D01*
X83558095Y-82488809D02*
X83462857Y-82536428D01*
X83462857Y-82536428D02*
X83081905Y-82536428D01*
X84510476Y-82345952D02*
X84510476Y-83012619D01*
X84272381Y-81965000D02*
X84034286Y-82679285D01*
X84034286Y-82679285D02*
X84653333Y-82679285D01*
%TO.C,R9*%
X76033333Y-74122619D02*
X75700000Y-73646428D01*
X75461905Y-74122619D02*
X75461905Y-73122619D01*
X75461905Y-73122619D02*
X75842857Y-73122619D01*
X75842857Y-73122619D02*
X75938095Y-73170238D01*
X75938095Y-73170238D02*
X75985714Y-73217857D01*
X75985714Y-73217857D02*
X76033333Y-73313095D01*
X76033333Y-73313095D02*
X76033333Y-73455952D01*
X76033333Y-73455952D02*
X75985714Y-73551190D01*
X75985714Y-73551190D02*
X75938095Y-73598809D01*
X75938095Y-73598809D02*
X75842857Y-73646428D01*
X75842857Y-73646428D02*
X75461905Y-73646428D01*
X76509524Y-74122619D02*
X76700000Y-74122619D01*
X76700000Y-74122619D02*
X76795238Y-74075000D01*
X76795238Y-74075000D02*
X76842857Y-74027380D01*
X76842857Y-74027380D02*
X76938095Y-73884523D01*
X76938095Y-73884523D02*
X76985714Y-73694047D01*
X76985714Y-73694047D02*
X76985714Y-73313095D01*
X76985714Y-73313095D02*
X76938095Y-73217857D01*
X76938095Y-73217857D02*
X76890476Y-73170238D01*
X76890476Y-73170238D02*
X76795238Y-73122619D01*
X76795238Y-73122619D02*
X76604762Y-73122619D01*
X76604762Y-73122619D02*
X76509524Y-73170238D01*
X76509524Y-73170238D02*
X76461905Y-73217857D01*
X76461905Y-73217857D02*
X76414286Y-73313095D01*
X76414286Y-73313095D02*
X76414286Y-73551190D01*
X76414286Y-73551190D02*
X76461905Y-73646428D01*
X76461905Y-73646428D02*
X76509524Y-73694047D01*
X76509524Y-73694047D02*
X76604762Y-73741666D01*
X76604762Y-73741666D02*
X76795238Y-73741666D01*
X76795238Y-73741666D02*
X76890476Y-73694047D01*
X76890476Y-73694047D02*
X76938095Y-73646428D01*
X76938095Y-73646428D02*
X76985714Y-73551190D01*
%TO.C,R8*%
X76033333Y-71582619D02*
X75700000Y-71106428D01*
X75461905Y-71582619D02*
X75461905Y-70582619D01*
X75461905Y-70582619D02*
X75842857Y-70582619D01*
X75842857Y-70582619D02*
X75938095Y-70630238D01*
X75938095Y-70630238D02*
X75985714Y-70677857D01*
X75985714Y-70677857D02*
X76033333Y-70773095D01*
X76033333Y-70773095D02*
X76033333Y-70915952D01*
X76033333Y-70915952D02*
X75985714Y-71011190D01*
X75985714Y-71011190D02*
X75938095Y-71058809D01*
X75938095Y-71058809D02*
X75842857Y-71106428D01*
X75842857Y-71106428D02*
X75461905Y-71106428D01*
X76604762Y-71011190D02*
X76509524Y-70963571D01*
X76509524Y-70963571D02*
X76461905Y-70915952D01*
X76461905Y-70915952D02*
X76414286Y-70820714D01*
X76414286Y-70820714D02*
X76414286Y-70773095D01*
X76414286Y-70773095D02*
X76461905Y-70677857D01*
X76461905Y-70677857D02*
X76509524Y-70630238D01*
X76509524Y-70630238D02*
X76604762Y-70582619D01*
X76604762Y-70582619D02*
X76795238Y-70582619D01*
X76795238Y-70582619D02*
X76890476Y-70630238D01*
X76890476Y-70630238D02*
X76938095Y-70677857D01*
X76938095Y-70677857D02*
X76985714Y-70773095D01*
X76985714Y-70773095D02*
X76985714Y-70820714D01*
X76985714Y-70820714D02*
X76938095Y-70915952D01*
X76938095Y-70915952D02*
X76890476Y-70963571D01*
X76890476Y-70963571D02*
X76795238Y-71011190D01*
X76795238Y-71011190D02*
X76604762Y-71011190D01*
X76604762Y-71011190D02*
X76509524Y-71058809D01*
X76509524Y-71058809D02*
X76461905Y-71106428D01*
X76461905Y-71106428D02*
X76414286Y-71201666D01*
X76414286Y-71201666D02*
X76414286Y-71392142D01*
X76414286Y-71392142D02*
X76461905Y-71487380D01*
X76461905Y-71487380D02*
X76509524Y-71535000D01*
X76509524Y-71535000D02*
X76604762Y-71582619D01*
X76604762Y-71582619D02*
X76795238Y-71582619D01*
X76795238Y-71582619D02*
X76890476Y-71535000D01*
X76890476Y-71535000D02*
X76938095Y-71487380D01*
X76938095Y-71487380D02*
X76985714Y-71392142D01*
X76985714Y-71392142D02*
X76985714Y-71201666D01*
X76985714Y-71201666D02*
X76938095Y-71106428D01*
X76938095Y-71106428D02*
X76890476Y-71058809D01*
X76890476Y-71058809D02*
X76795238Y-71011190D01*
%TO.C,C1*%
X40570682Y-89097380D02*
X40523063Y-89145000D01*
X40523063Y-89145000D02*
X40380206Y-89192619D01*
X40380206Y-89192619D02*
X40284968Y-89192619D01*
X40284968Y-89192619D02*
X40142111Y-89145000D01*
X40142111Y-89145000D02*
X40046873Y-89049761D01*
X40046873Y-89049761D02*
X39999254Y-88954523D01*
X39999254Y-88954523D02*
X39951635Y-88764047D01*
X39951635Y-88764047D02*
X39951635Y-88621190D01*
X39951635Y-88621190D02*
X39999254Y-88430714D01*
X39999254Y-88430714D02*
X40046873Y-88335476D01*
X40046873Y-88335476D02*
X40142111Y-88240238D01*
X40142111Y-88240238D02*
X40284968Y-88192619D01*
X40284968Y-88192619D02*
X40380206Y-88192619D01*
X40380206Y-88192619D02*
X40523063Y-88240238D01*
X40523063Y-88240238D02*
X40570682Y-88287857D01*
X41523063Y-89192619D02*
X40951635Y-89192619D01*
X41237349Y-89192619D02*
X41237349Y-88192619D01*
X41237349Y-88192619D02*
X41142111Y-88335476D01*
X41142111Y-88335476D02*
X41046873Y-88430714D01*
X41046873Y-88430714D02*
X40951635Y-88478333D01*
%TO.C,U3*%
X90692619Y-65531904D02*
X91502142Y-65531904D01*
X91502142Y-65531904D02*
X91597380Y-65484285D01*
X91597380Y-65484285D02*
X91645000Y-65436666D01*
X91645000Y-65436666D02*
X91692619Y-65341428D01*
X91692619Y-65341428D02*
X91692619Y-65150952D01*
X91692619Y-65150952D02*
X91645000Y-65055714D01*
X91645000Y-65055714D02*
X91597380Y-65008095D01*
X91597380Y-65008095D02*
X91502142Y-64960476D01*
X91502142Y-64960476D02*
X90692619Y-64960476D01*
X90692619Y-64579523D02*
X90692619Y-63960476D01*
X90692619Y-63960476D02*
X91073571Y-64293809D01*
X91073571Y-64293809D02*
X91073571Y-64150952D01*
X91073571Y-64150952D02*
X91121190Y-64055714D01*
X91121190Y-64055714D02*
X91168809Y-64008095D01*
X91168809Y-64008095D02*
X91264047Y-63960476D01*
X91264047Y-63960476D02*
X91502142Y-63960476D01*
X91502142Y-63960476D02*
X91597380Y-64008095D01*
X91597380Y-64008095D02*
X91645000Y-64055714D01*
X91645000Y-64055714D02*
X91692619Y-64150952D01*
X91692619Y-64150952D02*
X91692619Y-64436666D01*
X91692619Y-64436666D02*
X91645000Y-64531904D01*
X91645000Y-64531904D02*
X91597380Y-64579523D01*
%TO.C,R2*%
X83653333Y-77932619D02*
X83320000Y-77456428D01*
X83081905Y-77932619D02*
X83081905Y-76932619D01*
X83081905Y-76932619D02*
X83462857Y-76932619D01*
X83462857Y-76932619D02*
X83558095Y-76980238D01*
X83558095Y-76980238D02*
X83605714Y-77027857D01*
X83605714Y-77027857D02*
X83653333Y-77123095D01*
X83653333Y-77123095D02*
X83653333Y-77265952D01*
X83653333Y-77265952D02*
X83605714Y-77361190D01*
X83605714Y-77361190D02*
X83558095Y-77408809D01*
X83558095Y-77408809D02*
X83462857Y-77456428D01*
X83462857Y-77456428D02*
X83081905Y-77456428D01*
X84034286Y-77027857D02*
X84081905Y-76980238D01*
X84081905Y-76980238D02*
X84177143Y-76932619D01*
X84177143Y-76932619D02*
X84415238Y-76932619D01*
X84415238Y-76932619D02*
X84510476Y-76980238D01*
X84510476Y-76980238D02*
X84558095Y-77027857D01*
X84558095Y-77027857D02*
X84605714Y-77123095D01*
X84605714Y-77123095D02*
X84605714Y-77218333D01*
X84605714Y-77218333D02*
X84558095Y-77361190D01*
X84558095Y-77361190D02*
X83986667Y-77932619D01*
X83986667Y-77932619D02*
X84605714Y-77932619D01*
%TO.C,C2*%
X41645984Y-62767380D02*
X41598365Y-62815000D01*
X41598365Y-62815000D02*
X41455508Y-62862619D01*
X41455508Y-62862619D02*
X41360270Y-62862619D01*
X41360270Y-62862619D02*
X41217413Y-62815000D01*
X41217413Y-62815000D02*
X41122175Y-62719761D01*
X41122175Y-62719761D02*
X41074556Y-62624523D01*
X41074556Y-62624523D02*
X41026937Y-62434047D01*
X41026937Y-62434047D02*
X41026937Y-62291190D01*
X41026937Y-62291190D02*
X41074556Y-62100714D01*
X41074556Y-62100714D02*
X41122175Y-62005476D01*
X41122175Y-62005476D02*
X41217413Y-61910238D01*
X41217413Y-61910238D02*
X41360270Y-61862619D01*
X41360270Y-61862619D02*
X41455508Y-61862619D01*
X41455508Y-61862619D02*
X41598365Y-61910238D01*
X41598365Y-61910238D02*
X41645984Y-61957857D01*
X42026937Y-61957857D02*
X42074556Y-61910238D01*
X42074556Y-61910238D02*
X42169794Y-61862619D01*
X42169794Y-61862619D02*
X42407889Y-61862619D01*
X42407889Y-61862619D02*
X42503127Y-61910238D01*
X42503127Y-61910238D02*
X42550746Y-61957857D01*
X42550746Y-61957857D02*
X42598365Y-62053095D01*
X42598365Y-62053095D02*
X42598365Y-62148333D01*
X42598365Y-62148333D02*
X42550746Y-62291190D01*
X42550746Y-62291190D02*
X41979318Y-62862619D01*
X41979318Y-62862619D02*
X42598365Y-62862619D01*
%TO.C,J1*%
X47482619Y-75953333D02*
X48196904Y-75953333D01*
X48196904Y-75953333D02*
X48339761Y-76000952D01*
X48339761Y-76000952D02*
X48435000Y-76096190D01*
X48435000Y-76096190D02*
X48482619Y-76239047D01*
X48482619Y-76239047D02*
X48482619Y-76334285D01*
X48482619Y-74953333D02*
X48482619Y-75524761D01*
X48482619Y-75239047D02*
X47482619Y-75239047D01*
X47482619Y-75239047D02*
X47625476Y-75334285D01*
X47625476Y-75334285D02*
X47720714Y-75429523D01*
X47720714Y-75429523D02*
X47768333Y-75524761D01*
%TO.C,R6*%
X82362619Y-54776666D02*
X81886428Y-55109999D01*
X82362619Y-55348094D02*
X81362619Y-55348094D01*
X81362619Y-55348094D02*
X81362619Y-54967142D01*
X81362619Y-54967142D02*
X81410238Y-54871904D01*
X81410238Y-54871904D02*
X81457857Y-54824285D01*
X81457857Y-54824285D02*
X81553095Y-54776666D01*
X81553095Y-54776666D02*
X81695952Y-54776666D01*
X81695952Y-54776666D02*
X81791190Y-54824285D01*
X81791190Y-54824285D02*
X81838809Y-54871904D01*
X81838809Y-54871904D02*
X81886428Y-54967142D01*
X81886428Y-54967142D02*
X81886428Y-55348094D01*
X81362619Y-53919523D02*
X81362619Y-54109999D01*
X81362619Y-54109999D02*
X81410238Y-54205237D01*
X81410238Y-54205237D02*
X81457857Y-54252856D01*
X81457857Y-54252856D02*
X81600714Y-54348094D01*
X81600714Y-54348094D02*
X81791190Y-54395713D01*
X81791190Y-54395713D02*
X82172142Y-54395713D01*
X82172142Y-54395713D02*
X82267380Y-54348094D01*
X82267380Y-54348094D02*
X82315000Y-54300475D01*
X82315000Y-54300475D02*
X82362619Y-54205237D01*
X82362619Y-54205237D02*
X82362619Y-54014761D01*
X82362619Y-54014761D02*
X82315000Y-53919523D01*
X82315000Y-53919523D02*
X82267380Y-53871904D01*
X82267380Y-53871904D02*
X82172142Y-53824285D01*
X82172142Y-53824285D02*
X81934047Y-53824285D01*
X81934047Y-53824285D02*
X81838809Y-53871904D01*
X81838809Y-53871904D02*
X81791190Y-53919523D01*
X81791190Y-53919523D02*
X81743571Y-54014761D01*
X81743571Y-54014761D02*
X81743571Y-54205237D01*
X81743571Y-54205237D02*
X81791190Y-54300475D01*
X81791190Y-54300475D02*
X81838809Y-54348094D01*
X81838809Y-54348094D02*
X81934047Y-54395713D01*
%TO.C,U1*%
X41148095Y-88822619D02*
X41148095Y-89632142D01*
X41148095Y-89632142D02*
X41195714Y-89727380D01*
X41195714Y-89727380D02*
X41243333Y-89775000D01*
X41243333Y-89775000D02*
X41338571Y-89822619D01*
X41338571Y-89822619D02*
X41529047Y-89822619D01*
X41529047Y-89822619D02*
X41624285Y-89775000D01*
X41624285Y-89775000D02*
X41671904Y-89727380D01*
X41671904Y-89727380D02*
X41719523Y-89632142D01*
X41719523Y-89632142D02*
X41719523Y-88822619D01*
X42719523Y-89822619D02*
X42148095Y-89822619D01*
X42433809Y-89822619D02*
X42433809Y-88822619D01*
X42433809Y-88822619D02*
X42338571Y-88965476D01*
X42338571Y-88965476D02*
X42243333Y-89060714D01*
X42243333Y-89060714D02*
X42148095Y-89108333D01*
%TO.C,Q2*%
X90067857Y-80105238D02*
X90020238Y-80200476D01*
X90020238Y-80200476D02*
X89925000Y-80295714D01*
X89925000Y-80295714D02*
X89782142Y-80438571D01*
X89782142Y-80438571D02*
X89734523Y-80533809D01*
X89734523Y-80533809D02*
X89734523Y-80629047D01*
X89972619Y-80581428D02*
X89925000Y-80676666D01*
X89925000Y-80676666D02*
X89829761Y-80771904D01*
X89829761Y-80771904D02*
X89639285Y-80819523D01*
X89639285Y-80819523D02*
X89305952Y-80819523D01*
X89305952Y-80819523D02*
X89115476Y-80771904D01*
X89115476Y-80771904D02*
X89020238Y-80676666D01*
X89020238Y-80676666D02*
X88972619Y-80581428D01*
X88972619Y-80581428D02*
X88972619Y-80390952D01*
X88972619Y-80390952D02*
X89020238Y-80295714D01*
X89020238Y-80295714D02*
X89115476Y-80200476D01*
X89115476Y-80200476D02*
X89305952Y-80152857D01*
X89305952Y-80152857D02*
X89639285Y-80152857D01*
X89639285Y-80152857D02*
X89829761Y-80200476D01*
X89829761Y-80200476D02*
X89925000Y-80295714D01*
X89925000Y-80295714D02*
X89972619Y-80390952D01*
X89972619Y-80390952D02*
X89972619Y-80581428D01*
X89067857Y-79771904D02*
X89020238Y-79724285D01*
X89020238Y-79724285D02*
X88972619Y-79629047D01*
X88972619Y-79629047D02*
X88972619Y-79390952D01*
X88972619Y-79390952D02*
X89020238Y-79295714D01*
X89020238Y-79295714D02*
X89067857Y-79248095D01*
X89067857Y-79248095D02*
X89163095Y-79200476D01*
X89163095Y-79200476D02*
X89258333Y-79200476D01*
X89258333Y-79200476D02*
X89401190Y-79248095D01*
X89401190Y-79248095D02*
X89972619Y-79819523D01*
X89972619Y-79819523D02*
X89972619Y-79200476D01*
%TO.C,R5*%
X95718333Y-56342619D02*
X95385000Y-55866428D01*
X95146905Y-56342619D02*
X95146905Y-55342619D01*
X95146905Y-55342619D02*
X95527857Y-55342619D01*
X95527857Y-55342619D02*
X95623095Y-55390238D01*
X95623095Y-55390238D02*
X95670714Y-55437857D01*
X95670714Y-55437857D02*
X95718333Y-55533095D01*
X95718333Y-55533095D02*
X95718333Y-55675952D01*
X95718333Y-55675952D02*
X95670714Y-55771190D01*
X95670714Y-55771190D02*
X95623095Y-55818809D01*
X95623095Y-55818809D02*
X95527857Y-55866428D01*
X95527857Y-55866428D02*
X95146905Y-55866428D01*
X96623095Y-55342619D02*
X96146905Y-55342619D01*
X96146905Y-55342619D02*
X96099286Y-55818809D01*
X96099286Y-55818809D02*
X96146905Y-55771190D01*
X96146905Y-55771190D02*
X96242143Y-55723571D01*
X96242143Y-55723571D02*
X96480238Y-55723571D01*
X96480238Y-55723571D02*
X96575476Y-55771190D01*
X96575476Y-55771190D02*
X96623095Y-55818809D01*
X96623095Y-55818809D02*
X96670714Y-55914047D01*
X96670714Y-55914047D02*
X96670714Y-56152142D01*
X96670714Y-56152142D02*
X96623095Y-56247380D01*
X96623095Y-56247380D02*
X96575476Y-56295000D01*
X96575476Y-56295000D02*
X96480238Y-56342619D01*
X96480238Y-56342619D02*
X96242143Y-56342619D01*
X96242143Y-56342619D02*
X96146905Y-56295000D01*
X96146905Y-56295000D02*
X96099286Y-56247380D01*
%TO.C,Q1*%
X86264761Y-69387857D02*
X86169523Y-69340238D01*
X86169523Y-69340238D02*
X86074285Y-69245000D01*
X86074285Y-69245000D02*
X85931428Y-69102142D01*
X85931428Y-69102142D02*
X85836190Y-69054523D01*
X85836190Y-69054523D02*
X85740952Y-69054523D01*
X85788571Y-69292619D02*
X85693333Y-69245000D01*
X85693333Y-69245000D02*
X85598095Y-69149761D01*
X85598095Y-69149761D02*
X85550476Y-68959285D01*
X85550476Y-68959285D02*
X85550476Y-68625952D01*
X85550476Y-68625952D02*
X85598095Y-68435476D01*
X85598095Y-68435476D02*
X85693333Y-68340238D01*
X85693333Y-68340238D02*
X85788571Y-68292619D01*
X85788571Y-68292619D02*
X85979047Y-68292619D01*
X85979047Y-68292619D02*
X86074285Y-68340238D01*
X86074285Y-68340238D02*
X86169523Y-68435476D01*
X86169523Y-68435476D02*
X86217142Y-68625952D01*
X86217142Y-68625952D02*
X86217142Y-68959285D01*
X86217142Y-68959285D02*
X86169523Y-69149761D01*
X86169523Y-69149761D02*
X86074285Y-69245000D01*
X86074285Y-69245000D02*
X85979047Y-69292619D01*
X85979047Y-69292619D02*
X85788571Y-69292619D01*
X87169523Y-69292619D02*
X86598095Y-69292619D01*
X86883809Y-69292619D02*
X86883809Y-68292619D01*
X86883809Y-68292619D02*
X86788571Y-68435476D01*
X86788571Y-68435476D02*
X86693333Y-68530714D01*
X86693333Y-68530714D02*
X86598095Y-68578333D01*
D12*
%TO.C,A1*%
X68710000Y-95380000D02*
X68710000Y-92710000D01*
X68710000Y-90170000D02*
X68710000Y-51940000D01*
X68710000Y-51940000D02*
X63630000Y-51940000D01*
X66040000Y-92710000D02*
X68710000Y-92710000D01*
X66040000Y-90170000D02*
X68710000Y-90170000D01*
X66040000Y-90170000D02*
X66040000Y-92710000D01*
X66040000Y-90170000D02*
X66040000Y-54610000D01*
X66040000Y-54610000D02*
X68710000Y-54610000D01*
X63630000Y-59820000D02*
X55750000Y-59820000D01*
X63630000Y-49400000D02*
X63630000Y-59820000D01*
X55750000Y-59820000D02*
X55750000Y-49400000D01*
X55750000Y-49400000D02*
X63630000Y-49400000D01*
X53340000Y-92710000D02*
X53340000Y-54610000D01*
X53340000Y-92710000D02*
X50670000Y-92710000D01*
X53340000Y-54610000D02*
X50670000Y-54610000D01*
X50670000Y-95380000D02*
X68710000Y-95380000D01*
X50670000Y-51940000D02*
X55750000Y-51940000D01*
X50670000Y-51940000D02*
X50670000Y-95380000D01*
%TO.C,R1*%
X92710000Y-61900000D02*
X92710000Y-62850000D01*
X93630000Y-62850000D02*
X91790000Y-62850000D01*
X91790000Y-62850000D02*
X91790000Y-66690000D01*
X93630000Y-66690000D02*
X93630000Y-62850000D01*
X91790000Y-66690000D02*
X93630000Y-66690000D01*
X92710000Y-67640000D02*
X92710000Y-66690000D01*
%TO.C,J3*%
X72450000Y-52070000D02*
X72450000Y-49470000D01*
X72450000Y-52070000D02*
X69790000Y-52070000D01*
X72450000Y-49470000D02*
X69790000Y-49470000D01*
X71120000Y-54670000D02*
X69790000Y-54670000D01*
X69790000Y-54670000D02*
X69790000Y-53340000D01*
X69790000Y-52070000D02*
X69790000Y-49470000D01*
%TO.C,U2*%
X36790000Y-62770000D02*
X36790000Y-67411000D01*
X36790000Y-62770000D02*
X47030000Y-62770000D01*
X36790000Y-64280000D02*
X47030000Y-64280000D01*
X36790000Y-67411000D02*
X47030000Y-67411000D01*
X40060000Y-62770000D02*
X40060000Y-64280000D01*
X43761000Y-62770000D02*
X43761000Y-64280000D01*
X47030000Y-62770000D02*
X47030000Y-67411000D01*
%TO.C,J2*%
X93980000Y-72965000D02*
X91380000Y-72965000D01*
X93980000Y-72965000D02*
X93980000Y-75625000D01*
X91380000Y-72965000D02*
X91380000Y-75625000D01*
X96580000Y-74295000D02*
X96580000Y-75625000D01*
X96580000Y-75625000D02*
X95250000Y-75625000D01*
X93980000Y-75625000D02*
X91380000Y-75625000D01*
%TO.C,R7*%
X93040000Y-58420000D02*
X92090000Y-58420000D01*
X92090000Y-59340000D02*
X92090000Y-57500000D01*
X92090000Y-57500000D02*
X88250000Y-57500000D01*
X88250000Y-59340000D02*
X92090000Y-59340000D01*
X88250000Y-57500000D02*
X88250000Y-59340000D01*
X87300000Y-58420000D02*
X88250000Y-58420000D01*
%TO.C,J4*%
X86300000Y-50800000D02*
X86300000Y-53400000D01*
X86300000Y-50800000D02*
X88960000Y-50800000D01*
X86300000Y-53400000D02*
X88960000Y-53400000D01*
X87630000Y-48200000D02*
X88960000Y-48200000D01*
X88960000Y-48200000D02*
X88960000Y-49530000D01*
X88960000Y-50800000D02*
X88960000Y-53400000D01*
%TO.C,R3*%
X86690000Y-80010000D02*
X85740000Y-80010000D01*
X85740000Y-80930000D02*
X85740000Y-79090000D01*
X85740000Y-79090000D02*
X81900000Y-79090000D01*
X81900000Y-80930000D02*
X85740000Y-80930000D01*
X81900000Y-79090000D02*
X81900000Y-80930000D01*
X80950000Y-80010000D02*
X81900000Y-80010000D01*
%TO.C,R4*%
X80950000Y-82550000D02*
X81900000Y-82550000D01*
X81900000Y-81630000D02*
X81900000Y-83470000D01*
X81900000Y-83470000D02*
X85740000Y-83470000D01*
X85740000Y-81630000D02*
X81900000Y-81630000D01*
X85740000Y-83470000D02*
X85740000Y-81630000D01*
X86690000Y-82550000D02*
X85740000Y-82550000D01*
%TO.C,R9*%
X73330000Y-73660000D02*
X74280000Y-73660000D01*
X74280000Y-72740000D02*
X74280000Y-74580000D01*
X74280000Y-74580000D02*
X78120000Y-74580000D01*
X78120000Y-72740000D02*
X74280000Y-72740000D01*
X78120000Y-74580000D02*
X78120000Y-72740000D01*
X79070000Y-73660000D02*
X78120000Y-73660000D01*
%TO.C,R8*%
X79070000Y-71120000D02*
X78120000Y-71120000D01*
X78120000Y-72040000D02*
X78120000Y-70200000D01*
X78120000Y-70200000D02*
X74280000Y-70200000D01*
X74280000Y-72040000D02*
X78120000Y-72040000D01*
X74280000Y-70200000D02*
X74280000Y-72040000D01*
X73330000Y-71120000D02*
X74280000Y-71120000D01*
%TO.C,C1*%
X36327651Y-91665000D02*
X37127651Y-91665000D01*
X36727651Y-91265000D02*
X36727651Y-92065000D01*
X40737349Y-89900000D02*
X40737349Y-98060000D01*
X40777349Y-89900000D02*
X40777349Y-98060000D01*
X40817349Y-89900000D02*
X40817349Y-98060000D01*
X40857349Y-89901000D02*
X40857349Y-98059000D01*
X40897349Y-89903000D02*
X40897349Y-98057000D01*
X40937349Y-89904000D02*
X40937349Y-98056000D01*
X40977349Y-89906000D02*
X40977349Y-98054000D01*
X41017349Y-89909000D02*
X41017349Y-98051000D01*
X41057349Y-89912000D02*
X41057349Y-98048000D01*
X41097349Y-89915000D02*
X41097349Y-98045000D01*
X41137349Y-89919000D02*
X41137349Y-98041000D01*
X41177349Y-89923000D02*
X41177349Y-98037000D01*
X41217349Y-89928000D02*
X41217349Y-98032000D01*
X41257349Y-89932000D02*
X41257349Y-98028000D01*
X41297349Y-89938000D02*
X41297349Y-98022000D01*
X41337349Y-89943000D02*
X41337349Y-98017000D01*
X41377349Y-89950000D02*
X41377349Y-98010000D01*
X41417349Y-89956000D02*
X41417349Y-98004000D01*
X41458349Y-89963000D02*
X41458349Y-97997000D01*
X41498349Y-89970000D02*
X41498349Y-97990000D01*
X41538349Y-89978000D02*
X41538349Y-97982000D01*
X41578349Y-89986000D02*
X41578349Y-97974000D01*
X41618349Y-89995000D02*
X41618349Y-97965000D01*
X41658349Y-90004000D02*
X41658349Y-97956000D01*
X41698349Y-90013000D02*
X41698349Y-97947000D01*
X41738349Y-90023000D02*
X41738349Y-97937000D01*
X41778349Y-90033000D02*
X41778349Y-97927000D01*
X41818349Y-90044000D02*
X41818349Y-97916000D01*
X41858349Y-90055000D02*
X41858349Y-97905000D01*
X41898349Y-90066000D02*
X41898349Y-97894000D01*
X41938349Y-90078000D02*
X41938349Y-97882000D01*
X41978349Y-90091000D02*
X41978349Y-97869000D01*
X42018349Y-90103000D02*
X42018349Y-97857000D01*
X42058349Y-90117000D02*
X42058349Y-97843000D01*
X42098349Y-90130000D02*
X42098349Y-97830000D01*
X42138349Y-90145000D02*
X42138349Y-97815000D01*
X42178349Y-90159000D02*
X42178349Y-97801000D01*
X42218349Y-90175000D02*
X42218349Y-92940000D01*
X42218349Y-95020000D02*
X42218349Y-97785000D01*
X42258349Y-90190000D02*
X42258349Y-92940000D01*
X42258349Y-95020000D02*
X42258349Y-97770000D01*
X42298349Y-90206000D02*
X42298349Y-92940000D01*
X42298349Y-95020000D02*
X42298349Y-97754000D01*
X42338349Y-90223000D02*
X42338349Y-92940000D01*
X42338349Y-95020000D02*
X42338349Y-97737000D01*
X42378349Y-90240000D02*
X42378349Y-92940000D01*
X42378349Y-95020000D02*
X42378349Y-97720000D01*
X42418349Y-90258000D02*
X42418349Y-92940000D01*
X42418349Y-95020000D02*
X42418349Y-97702000D01*
X42458349Y-90276000D02*
X42458349Y-92940000D01*
X42458349Y-95020000D02*
X42458349Y-97684000D01*
X42498349Y-90294000D02*
X42498349Y-92940000D01*
X42498349Y-95020000D02*
X42498349Y-97666000D01*
X42538349Y-90314000D02*
X42538349Y-92940000D01*
X42538349Y-95020000D02*
X42538349Y-97646000D01*
X42578349Y-90333000D02*
X42578349Y-92940000D01*
X42578349Y-95020000D02*
X42578349Y-97627000D01*
X42618349Y-90353000D02*
X42618349Y-92940000D01*
X42618349Y-95020000D02*
X42618349Y-97607000D01*
X42658349Y-90374000D02*
X42658349Y-92940000D01*
X42658349Y-95020000D02*
X42658349Y-97586000D01*
X42698349Y-90396000D02*
X42698349Y-92940000D01*
X42698349Y-95020000D02*
X42698349Y-97564000D01*
X42738349Y-90418000D02*
X42738349Y-92940000D01*
X42738349Y-95020000D02*
X42738349Y-97542000D01*
X42778349Y-90440000D02*
X42778349Y-92940000D01*
X42778349Y-95020000D02*
X42778349Y-97520000D01*
X42818349Y-90463000D02*
X42818349Y-92940000D01*
X42818349Y-95020000D02*
X42818349Y-97497000D01*
X42858349Y-90487000D02*
X42858349Y-92940000D01*
X42858349Y-95020000D02*
X42858349Y-97473000D01*
X42898349Y-90511000D02*
X42898349Y-92940000D01*
X42898349Y-95020000D02*
X42898349Y-97449000D01*
X42938349Y-90536000D02*
X42938349Y-92940000D01*
X42938349Y-95020000D02*
X42938349Y-97424000D01*
X42978349Y-90562000D02*
X42978349Y-92940000D01*
X42978349Y-95020000D02*
X42978349Y-97398000D01*
X43018349Y-90588000D02*
X43018349Y-92940000D01*
X43018349Y-95020000D02*
X43018349Y-97372000D01*
X43058349Y-90615000D02*
X43058349Y-92940000D01*
X43058349Y-95020000D02*
X43058349Y-97345000D01*
X43098349Y-90642000D02*
X43098349Y-92940000D01*
X43098349Y-95020000D02*
X43098349Y-97318000D01*
X43138349Y-90671000D02*
X43138349Y-92940000D01*
X43138349Y-95020000D02*
X43138349Y-97289000D01*
X43178349Y-90700000D02*
X43178349Y-92940000D01*
X43178349Y-95020000D02*
X43178349Y-97260000D01*
X43218349Y-90730000D02*
X43218349Y-92940000D01*
X43218349Y-95020000D02*
X43218349Y-97230000D01*
X43258349Y-90760000D02*
X43258349Y-92940000D01*
X43258349Y-95020000D02*
X43258349Y-97200000D01*
X43298349Y-90791000D02*
X43298349Y-92940000D01*
X43298349Y-95020000D02*
X43298349Y-97169000D01*
X43338349Y-90824000D02*
X43338349Y-92940000D01*
X43338349Y-95020000D02*
X43338349Y-97136000D01*
X43378349Y-90856000D02*
X43378349Y-92940000D01*
X43378349Y-95020000D02*
X43378349Y-97104000D01*
X43418349Y-90890000D02*
X43418349Y-92940000D01*
X43418349Y-95020000D02*
X43418349Y-97070000D01*
X43458349Y-90925000D02*
X43458349Y-92940000D01*
X43458349Y-95020000D02*
X43458349Y-97035000D01*
X43498349Y-90961000D02*
X43498349Y-92940000D01*
X43498349Y-95020000D02*
X43498349Y-96999000D01*
X43538349Y-90997000D02*
X43538349Y-92940000D01*
X43538349Y-95020000D02*
X43538349Y-96963000D01*
X43578349Y-91035000D02*
X43578349Y-92940000D01*
X43578349Y-95020000D02*
X43578349Y-96925000D01*
X43618349Y-91073000D02*
X43618349Y-92940000D01*
X43618349Y-95020000D02*
X43618349Y-96887000D01*
X43658349Y-91113000D02*
X43658349Y-92940000D01*
X43658349Y-95020000D02*
X43658349Y-96847000D01*
X43698349Y-91154000D02*
X43698349Y-92940000D01*
X43698349Y-95020000D02*
X43698349Y-96806000D01*
X43738349Y-91196000D02*
X43738349Y-92940000D01*
X43738349Y-95020000D02*
X43738349Y-96764000D01*
X43778349Y-91239000D02*
X43778349Y-92940000D01*
X43778349Y-95020000D02*
X43778349Y-96721000D01*
X43818349Y-91283000D02*
X43818349Y-92940000D01*
X43818349Y-95020000D02*
X43818349Y-96677000D01*
X43858349Y-91329000D02*
X43858349Y-92940000D01*
X43858349Y-95020000D02*
X43858349Y-96631000D01*
X43898349Y-91376000D02*
X43898349Y-92940000D01*
X43898349Y-95020000D02*
X43898349Y-96584000D01*
X43938349Y-91424000D02*
X43938349Y-92940000D01*
X43938349Y-95020000D02*
X43938349Y-96536000D01*
X43978349Y-91475000D02*
X43978349Y-92940000D01*
X43978349Y-95020000D02*
X43978349Y-96485000D01*
X44018349Y-91526000D02*
X44018349Y-92940000D01*
X44018349Y-95020000D02*
X44018349Y-96434000D01*
X44058349Y-91580000D02*
X44058349Y-92940000D01*
X44058349Y-95020000D02*
X44058349Y-96380000D01*
X44098349Y-91635000D02*
X44098349Y-92940000D01*
X44098349Y-95020000D02*
X44098349Y-96325000D01*
X44138349Y-91693000D02*
X44138349Y-92940000D01*
X44138349Y-95020000D02*
X44138349Y-96267000D01*
X44178349Y-91752000D02*
X44178349Y-92940000D01*
X44178349Y-95020000D02*
X44178349Y-96208000D01*
X44218349Y-91814000D02*
X44218349Y-92940000D01*
X44218349Y-95020000D02*
X44218349Y-96146000D01*
X44258349Y-91878000D02*
X44258349Y-92940000D01*
X44258349Y-95020000D02*
X44258349Y-96082000D01*
X44298349Y-91946000D02*
X44298349Y-96014000D01*
X44338349Y-92016000D02*
X44338349Y-95944000D01*
X44378349Y-92090000D02*
X44378349Y-95870000D01*
X44418349Y-92167000D02*
X44418349Y-95793000D01*
X44458349Y-92249000D02*
X44458349Y-95711000D01*
X44498349Y-92335000D02*
X44498349Y-95625000D01*
X44538349Y-92428000D02*
X44538349Y-95532000D01*
X44578349Y-92527000D02*
X44578349Y-95433000D01*
X44618349Y-92634000D02*
X44618349Y-95326000D01*
X44658349Y-92751000D02*
X44658349Y-95209000D01*
X44698349Y-92882000D02*
X44698349Y-95078000D01*
X44738349Y-93032000D02*
X44738349Y-94928000D01*
X44778349Y-93212000D02*
X44778349Y-94748000D01*
X44818349Y-93447000D02*
X44818349Y-94513000D01*
X44857349Y-93980000D02*
G75*
G03*
X44857349Y-93980000I-4120000J0D01*
G01*
%TO.C,U3*%
X90230000Y-62120000D02*
X72330000Y-62120000D01*
X72330000Y-62120000D02*
X72330000Y-67420000D01*
X90230000Y-63770000D02*
X90230000Y-62120000D01*
X90230000Y-67420000D02*
X90230000Y-65770000D01*
X72330000Y-67420000D02*
X90230000Y-67420000D01*
X90230000Y-63770000D02*
G75*
G03*
X90230000Y-65770000I0J-1000000D01*
G01*
%TO.C,R2*%
X86690000Y-77470000D02*
X85740000Y-77470000D01*
X85740000Y-78390000D02*
X85740000Y-76550000D01*
X85740000Y-76550000D02*
X81900000Y-76550000D01*
X81900000Y-78390000D02*
X85740000Y-78390000D01*
X81900000Y-76550000D02*
X81900000Y-78390000D01*
X80950000Y-77470000D02*
X81900000Y-77470000D01*
%TO.C,C2*%
X46222349Y-59465000D02*
X45422349Y-59465000D01*
X45822349Y-59865000D02*
X45822349Y-59065000D01*
X41812651Y-61230000D02*
X41812651Y-53070000D01*
X41772651Y-61230000D02*
X41772651Y-53070000D01*
X41732651Y-61230000D02*
X41732651Y-53070000D01*
X41692651Y-61229000D02*
X41692651Y-53071000D01*
X41652651Y-61227000D02*
X41652651Y-53073000D01*
X41612651Y-61226000D02*
X41612651Y-53074000D01*
X41572651Y-61224000D02*
X41572651Y-53076000D01*
X41532651Y-61221000D02*
X41532651Y-53079000D01*
X41492651Y-61218000D02*
X41492651Y-53082000D01*
X41452651Y-61215000D02*
X41452651Y-53085000D01*
X41412651Y-61211000D02*
X41412651Y-53089000D01*
X41372651Y-61207000D02*
X41372651Y-53093000D01*
X41332651Y-61202000D02*
X41332651Y-53098000D01*
X41292651Y-61198000D02*
X41292651Y-53102000D01*
X41252651Y-61192000D02*
X41252651Y-53108000D01*
X41212651Y-61187000D02*
X41212651Y-53113000D01*
X41172651Y-61180000D02*
X41172651Y-53120000D01*
X41132651Y-61174000D02*
X41132651Y-53126000D01*
X41091651Y-61167000D02*
X41091651Y-53133000D01*
X41051651Y-61160000D02*
X41051651Y-53140000D01*
X41011651Y-61152000D02*
X41011651Y-53148000D01*
X40971651Y-61144000D02*
X40971651Y-53156000D01*
X40931651Y-61135000D02*
X40931651Y-53165000D01*
X40891651Y-61126000D02*
X40891651Y-53174000D01*
X40851651Y-61117000D02*
X40851651Y-53183000D01*
X40811651Y-61107000D02*
X40811651Y-53193000D01*
X40771651Y-61097000D02*
X40771651Y-53203000D01*
X40731651Y-61086000D02*
X40731651Y-53214000D01*
X40691651Y-61075000D02*
X40691651Y-53225000D01*
X40651651Y-61064000D02*
X40651651Y-53236000D01*
X40611651Y-61052000D02*
X40611651Y-53248000D01*
X40571651Y-61039000D02*
X40571651Y-53261000D01*
X40531651Y-61027000D02*
X40531651Y-53273000D01*
X40491651Y-61013000D02*
X40491651Y-53287000D01*
X40451651Y-61000000D02*
X40451651Y-53300000D01*
X40411651Y-60985000D02*
X40411651Y-53315000D01*
X40371651Y-60971000D02*
X40371651Y-53329000D01*
X40331651Y-60955000D02*
X40331651Y-58190000D01*
X40331651Y-56110000D02*
X40331651Y-53345000D01*
X40291651Y-60940000D02*
X40291651Y-58190000D01*
X40291651Y-56110000D02*
X40291651Y-53360000D01*
X40251651Y-60924000D02*
X40251651Y-58190000D01*
X40251651Y-56110000D02*
X40251651Y-53376000D01*
X40211651Y-60907000D02*
X40211651Y-58190000D01*
X40211651Y-56110000D02*
X40211651Y-53393000D01*
X40171651Y-60890000D02*
X40171651Y-58190000D01*
X40171651Y-56110000D02*
X40171651Y-53410000D01*
X40131651Y-60872000D02*
X40131651Y-58190000D01*
X40131651Y-56110000D02*
X40131651Y-53428000D01*
X40091651Y-60854000D02*
X40091651Y-58190000D01*
X40091651Y-56110000D02*
X40091651Y-53446000D01*
X40051651Y-60836000D02*
X40051651Y-58190000D01*
X40051651Y-56110000D02*
X40051651Y-53464000D01*
X40011651Y-60816000D02*
X40011651Y-58190000D01*
X40011651Y-56110000D02*
X40011651Y-53484000D01*
X39971651Y-60797000D02*
X39971651Y-58190000D01*
X39971651Y-56110000D02*
X39971651Y-53503000D01*
X39931651Y-60777000D02*
X39931651Y-58190000D01*
X39931651Y-56110000D02*
X39931651Y-53523000D01*
X39891651Y-60756000D02*
X39891651Y-58190000D01*
X39891651Y-56110000D02*
X39891651Y-53544000D01*
X39851651Y-60734000D02*
X39851651Y-58190000D01*
X39851651Y-56110000D02*
X39851651Y-53566000D01*
X39811651Y-60712000D02*
X39811651Y-58190000D01*
X39811651Y-56110000D02*
X39811651Y-53588000D01*
X39771651Y-60690000D02*
X39771651Y-58190000D01*
X39771651Y-56110000D02*
X39771651Y-53610000D01*
X39731651Y-60667000D02*
X39731651Y-58190000D01*
X39731651Y-56110000D02*
X39731651Y-53633000D01*
X39691651Y-60643000D02*
X39691651Y-58190000D01*
X39691651Y-56110000D02*
X39691651Y-53657000D01*
X39651651Y-60619000D02*
X39651651Y-58190000D01*
X39651651Y-56110000D02*
X39651651Y-53681000D01*
X39611651Y-60594000D02*
X39611651Y-58190000D01*
X39611651Y-56110000D02*
X39611651Y-53706000D01*
X39571651Y-60568000D02*
X39571651Y-58190000D01*
X39571651Y-56110000D02*
X39571651Y-53732000D01*
X39531651Y-60542000D02*
X39531651Y-58190000D01*
X39531651Y-56110000D02*
X39531651Y-53758000D01*
X39491651Y-60515000D02*
X39491651Y-58190000D01*
X39491651Y-56110000D02*
X39491651Y-53785000D01*
X39451651Y-60488000D02*
X39451651Y-58190000D01*
X39451651Y-56110000D02*
X39451651Y-53812000D01*
X39411651Y-60459000D02*
X39411651Y-58190000D01*
X39411651Y-56110000D02*
X39411651Y-53841000D01*
X39371651Y-60430000D02*
X39371651Y-58190000D01*
X39371651Y-56110000D02*
X39371651Y-53870000D01*
X39331651Y-60400000D02*
X39331651Y-58190000D01*
X39331651Y-56110000D02*
X39331651Y-53900000D01*
X39291651Y-60370000D02*
X39291651Y-58190000D01*
X39291651Y-56110000D02*
X39291651Y-53930000D01*
X39251651Y-60339000D02*
X39251651Y-58190000D01*
X39251651Y-56110000D02*
X39251651Y-53961000D01*
X39211651Y-60306000D02*
X39211651Y-58190000D01*
X39211651Y-56110000D02*
X39211651Y-53994000D01*
X39171651Y-60274000D02*
X39171651Y-58190000D01*
X39171651Y-56110000D02*
X39171651Y-54026000D01*
X39131651Y-60240000D02*
X39131651Y-58190000D01*
X39131651Y-56110000D02*
X39131651Y-54060000D01*
X39091651Y-60205000D02*
X39091651Y-58190000D01*
X39091651Y-56110000D02*
X39091651Y-54095000D01*
X39051651Y-60169000D02*
X39051651Y-58190000D01*
X39051651Y-56110000D02*
X39051651Y-54131000D01*
X39011651Y-60133000D02*
X39011651Y-58190000D01*
X39011651Y-56110000D02*
X39011651Y-54167000D01*
X38971651Y-60095000D02*
X38971651Y-58190000D01*
X38971651Y-56110000D02*
X38971651Y-54205000D01*
X38931651Y-60057000D02*
X38931651Y-58190000D01*
X38931651Y-56110000D02*
X38931651Y-54243000D01*
X38891651Y-60017000D02*
X38891651Y-58190000D01*
X38891651Y-56110000D02*
X38891651Y-54283000D01*
X38851651Y-59976000D02*
X38851651Y-58190000D01*
X38851651Y-56110000D02*
X38851651Y-54324000D01*
X38811651Y-59934000D02*
X38811651Y-58190000D01*
X38811651Y-56110000D02*
X38811651Y-54366000D01*
X38771651Y-59891000D02*
X38771651Y-58190000D01*
X38771651Y-56110000D02*
X38771651Y-54409000D01*
X38731651Y-59847000D02*
X38731651Y-58190000D01*
X38731651Y-56110000D02*
X38731651Y-54453000D01*
X38691651Y-59801000D02*
X38691651Y-58190000D01*
X38691651Y-56110000D02*
X38691651Y-54499000D01*
X38651651Y-59754000D02*
X38651651Y-58190000D01*
X38651651Y-56110000D02*
X38651651Y-54546000D01*
X38611651Y-59706000D02*
X38611651Y-58190000D01*
X38611651Y-56110000D02*
X38611651Y-54594000D01*
X38571651Y-59655000D02*
X38571651Y-58190000D01*
X38571651Y-56110000D02*
X38571651Y-54645000D01*
X38531651Y-59604000D02*
X38531651Y-58190000D01*
X38531651Y-56110000D02*
X38531651Y-54696000D01*
X38491651Y-59550000D02*
X38491651Y-58190000D01*
X38491651Y-56110000D02*
X38491651Y-54750000D01*
X38451651Y-59495000D02*
X38451651Y-58190000D01*
X38451651Y-56110000D02*
X38451651Y-54805000D01*
X38411651Y-59437000D02*
X38411651Y-58190000D01*
X38411651Y-56110000D02*
X38411651Y-54863000D01*
X38371651Y-59378000D02*
X38371651Y-58190000D01*
X38371651Y-56110000D02*
X38371651Y-54922000D01*
X38331651Y-59316000D02*
X38331651Y-58190000D01*
X38331651Y-56110000D02*
X38331651Y-54984000D01*
X38291651Y-59252000D02*
X38291651Y-58190000D01*
X38291651Y-56110000D02*
X38291651Y-55048000D01*
X38251651Y-59184000D02*
X38251651Y-55116000D01*
X38211651Y-59114000D02*
X38211651Y-55186000D01*
X38171651Y-59040000D02*
X38171651Y-55260000D01*
X38131651Y-58963000D02*
X38131651Y-55337000D01*
X38091651Y-58881000D02*
X38091651Y-55419000D01*
X38051651Y-58795000D02*
X38051651Y-55505000D01*
X38011651Y-58702000D02*
X38011651Y-55598000D01*
X37971651Y-58603000D02*
X37971651Y-55697000D01*
X37931651Y-58496000D02*
X37931651Y-55804000D01*
X37891651Y-58379000D02*
X37891651Y-55921000D01*
X37851651Y-58248000D02*
X37851651Y-56052000D01*
X37811651Y-58098000D02*
X37811651Y-56202000D01*
X37771651Y-57918000D02*
X37771651Y-56382000D01*
X37731651Y-57683000D02*
X37731651Y-56617000D01*
X45932651Y-57150000D02*
G75*
G03*
X45932651Y-57150000I-4120000J0D01*
G01*
%TO.C,J1*%
X46830000Y-70510000D02*
X46830000Y-73320000D01*
X40770000Y-70510000D02*
X46830000Y-70510000D01*
X33610000Y-70510000D02*
X36670000Y-70510000D01*
X47020000Y-74620000D02*
X47020000Y-76620000D01*
X46830000Y-77920000D02*
X46830000Y-80730000D01*
X46830000Y-80730000D02*
X40770000Y-80730000D01*
X36670000Y-80730000D02*
X33610000Y-80730000D01*
X33610000Y-80730000D02*
X33610000Y-70510000D01*
%TO.C,R6*%
X83820000Y-57480000D02*
X83820000Y-56530000D01*
X82900000Y-56530000D02*
X84740000Y-56530000D01*
X84740000Y-56530000D02*
X84740000Y-52690000D01*
X82900000Y-52690000D02*
X82900000Y-56530000D01*
X84740000Y-52690000D02*
X82900000Y-52690000D01*
X83820000Y-51740000D02*
X83820000Y-52690000D01*
%TO.C,U1*%
X47030000Y-88360000D02*
X47030000Y-83719000D01*
X47030000Y-88360000D02*
X36790000Y-88360000D01*
X47030000Y-86850000D02*
X36790000Y-86850000D01*
X47030000Y-83719000D02*
X36790000Y-83719000D01*
X43760000Y-88360000D02*
X43760000Y-86850000D01*
X40059000Y-88360000D02*
X40059000Y-86850000D01*
X36790000Y-88360000D02*
X36790000Y-83719000D01*
%TO.C,Q2*%
X94920000Y-81810000D02*
X94920000Y-78210000D01*
X90470000Y-80010000D02*
G75*
G03*
X94908478Y-81848478I2600000J0D01*
G01*
X94908478Y-78171522D02*
G75*
G03*
X90470000Y-80010000I-1838478J-1838478D01*
G01*
%TO.C,R5*%
X93040000Y-55880000D02*
X92090000Y-55880000D01*
X92090000Y-56800000D02*
X92090000Y-54960000D01*
X92090000Y-54960000D02*
X88250000Y-54960000D01*
X88250000Y-56800000D02*
X92090000Y-56800000D01*
X88250000Y-54960000D02*
X88250000Y-56800000D01*
X87300000Y-55880000D02*
X88250000Y-55880000D01*
%TO.C,Q1*%
X84560000Y-74240000D02*
X88160000Y-74240000D01*
X86360000Y-69790000D02*
G75*
G03*
X84521522Y-74228478I0J-2600000D01*
G01*
X88198478Y-74228478D02*
G75*
G03*
X86360000Y-69790000I-1838478J1838478D01*
G01*
%TD*%
M02*
