M48
; DRILL file {KiCad 7.0.2} date Fri Mar  1 12:34:05 2024
; FORMAT={-:-/ absolute / inch / decimal}
; #@! TF.CreationDate,2024-03-01T12:34:05+01:00
; #@! TF.GenerationSoftware,Kicad,Pcbnew,7.0.2
; #@! TF.FileFunction,Plated,1,2,PTH
FMAT,2
INCH
; #@! TA.AperFunction,Plated,PTH,ComponentDrill
T1C0.0276
; #@! TA.AperFunction,Plated,PTH,ComponentDrill
T2C0.0295
; #@! TA.AperFunction,Plated,PTH,ComponentDrill
T3C0.0315
; #@! TA.AperFunction,Plated,PTH,ComponentDrill
T4C0.0394
; #@! TA.AperFunction,Plated,PTH,ComponentDrill
T5C0.0433
%
G90
G05
T1
X2.85Y-2.8
X2.85Y-2.9
X3.15Y-2.8
X3.15Y-2.9
X3.15Y-3.05
X3.15Y-3.15
X3.15Y-3.25
X3.3Y-2.0
X3.3Y-2.3
X3.4Y-2.2
X3.4Y-2.3
X3.45Y-3.05
X3.45Y-3.15
X3.45Y-3.25
X3.65Y-2.4
X3.65Y-2.7
X3.7Y-2.2
X3.7Y-2.3
T2
X3.35Y-2.85
X3.4Y-2.85
X3.45Y-2.85
X3.6642Y-3.1
X3.6642Y-3.15
X3.6642Y-3.2
T3
X1.5054Y-3.7
X1.5477Y-2.25
X1.7023Y-3.7
X1.7446Y-2.25
X2.9Y-2.4
X2.9Y-2.7
X3.0Y-2.4
X3.0Y-2.7
X3.1Y-2.4
X3.1Y-2.7
X3.2Y-2.4
X3.2Y-2.7
X3.3Y-2.4
X3.3Y-2.7
X3.4Y-2.4
X3.4Y-2.7
X3.5Y-2.4
X3.5Y-2.7
T4
X2.05Y-2.2
X2.05Y-2.3
X2.05Y-2.4
X2.05Y-2.5
X2.05Y-2.6
X2.05Y-2.7
X2.05Y-2.8
X2.05Y-2.9
X2.05Y-3.0
X2.05Y-3.1
X2.05Y-3.2
X2.05Y-3.3
X2.05Y-3.4
X2.05Y-3.5
X2.05Y-3.6
X2.65Y-2.2
X2.65Y-2.3
X2.65Y-2.4
X2.65Y-2.5
X2.65Y-2.6
X2.65Y-2.7
X2.65Y-2.8
X2.65Y-2.9
X2.65Y-3.0
X2.65Y-3.1
X2.65Y-3.2
X2.65Y-3.3
X2.65Y-3.4
X2.65Y-3.5
X2.65Y-3.6
X2.8Y-2.0
X2.8Y-2.1
X3.45Y-1.95
X3.45Y-2.05
X3.65Y-2.925
X3.75Y-2.925
T5
X1.55Y-2.6
X1.55Y-3.35
X1.65Y-2.6
X1.65Y-3.35
X1.75Y-2.6
X1.75Y-3.35
T4
G00X1.5539Y-2.8
M15
G01X1.4949Y-2.8
M16
G05
G00X1.5539Y-3.1543
M15
G01X1.4949Y-3.1543
M16
G05
G00X1.5638Y-2.9516
M15
G01X1.5638Y-3.0028
M16
G05
G00X1.8Y-2.9378
M15
G01X1.8Y-3.0165
M16
G05
T0
M30
